<?xml version="1.0" encoding="utf-8"?>
<!-- Generator: Adobe Illustrator 21.0.0, SVG Export Plug-In . SVG Version: 6.00 Build 0)  -->
<svg version="1.1" id="图层_1" xmlns="http://www.w3.org/2000/svg" xmlns:xlink="http://www.w3.org/1999/xlink" x="0px" y="0px"
	 viewBox="0 0 81 81" style="enable-background:new 0 0 81 81;" xml:space="preserve">
<style type="text/css">
	.st0{fill:none;stroke:#FFFFFF;stroke-width:2;stroke-miterlimit:10;}
	.st1{fill:#FFFFFF;}
</style>
<path class="st0" d="M59.8,20.9v41.8c0,0.9-0.7,1.6-1.6,1.6H25.7c-0.9,0-1.6-0.7-1.6-1.6v-32c0-0.5,0.2-0.9,0.6-1.2l8.9-9.7
	c0.3-0.2,0.7-0.4,1-0.4h23.7C59,19.3,59.8,20.1,59.8,20.9z"/>
<path class="st1" d="M32.7,37.8h4.1c0.3,0,0.6,0.3,0.6,0.6S37.1,39,36.8,39h-2.7c-0.3,0-0.6,0.3-0.6,0.6v0.8c0,0.3,0.3,0.6,0.6,0.6
	h2.5c0.3,0,0.6,0.3,0.6,0.6s-0.3,0.6-0.6,0.6h-2.5c-0.3,0-0.6,0.3-0.6,0.6v1.1c0,0.3,0.3,0.6,0.6,0.6H37c0.3,0,0.6,0.3,0.6,0.6v0.1
	c0,0.3-0.3,0.6-0.6,0.6h-4.3c-0.3,0-0.6-0.3-0.6-0.6v-6.9C32.1,38.1,32.4,37.8,32.7,37.8z"/>
<path class="st1" d="M39,38.4c0-0.3,0.3-0.6,0.6-0.6h2.2c0.5,0,1,0.1,1.6,0.2c0.5,0.1,1,0.4,1.4,0.7s0.8,0.7,1,1.2
	c0.3,0.5,0.4,1.1,0.4,1.9c0,0.7-0.1,1.3-0.4,1.8c-0.3,0.5-0.6,0.9-1,1.2s-0.9,0.6-1.4,0.7c-0.5,0.2-1,0.2-1.6,0.2h-2.2
	c-0.3,0-0.6-0.3-0.6-0.6V38.4z M41.6,44.5c0.4,0,0.7,0,1.1-0.1c0.4-0.1,0.7-0.2,1-0.4s0.5-0.5,0.7-0.8c0.2-0.4,0.3-0.8,0.3-1.3
	c0-0.6-0.1-1-0.3-1.4s-0.4-0.6-0.7-0.8s-0.6-0.3-1-0.4c-0.4-0.1-0.7-0.1-1.1-0.1H41c-0.3,0-0.6,0.3-0.6,0.6v4.3
	c0,0.3,0.3,0.6,0.6,0.6h0.6V44.5z"/>
<path class="st1" d="M48.3,37.8h0.2c0.3,0,0.6,0.3,0.6,0.6v6.9c0,0.3-0.3,0.6-0.6,0.6h-0.2c-0.3,0-0.6-0.3-0.6-0.6v-6.9
	C47.7,38.1,47.9,37.8,48.3,37.8z"/>
</svg>
