<?xml version="1.0" encoding="utf-8"?>
<!-- Generator: Adobe Illustrator 21.0.0, SVG Export Plug-In . SVG Version: 6.00 Build 0)  -->
<svg version="1.1" id="图层_1" xmlns="http://www.w3.org/2000/svg" xmlns:xlink="http://www.w3.org/1999/xlink" x="0px" y="0px"
	 viewBox="0 0 1435 822" style="enable-background:new 0 0 1435 822;" xml:space="preserve">
<style type="text/css">
	.st0{fill:#3CD5DE;}
	.st1{fill:#00B050;}
	.st2{opacity:0.9;}
	.st3{fill:#FFFFFF;}
	.st4{fill:none;stroke:#FFFFFF;}
</style>
<g>
	<g>
		<path class="st0" d="M979,77.9c-0.8,0-1.5,0.7-1.5,1.5s0.7,1.5,1.5,1.5V77.9z M1187,209.4l8.7-15h-17.3L1187,209.4z M979,80.9h184
			v-3H979V80.9z M1185.5,103.4v92.5h3v-92.5C1188.5,103.4,1185.5,103.4,1185.5,103.4z M1163,80.9c12.4,0,22.5,10.1,22.5,22.5h3
			c0-14.1-11.4-25.5-25.5-25.5V80.9z"/>
	</g>
	<g>
		<path class="st1" d="M653.5,744.5c-0.8,0-1.5-0.7-1.5-1.5s0.7-1.5,1.5-1.5V744.5z M705,603l8.7,15h-17.3L705,603z M653.5,741.5
			H697v3h-43.5V741.5z M703.5,735V616.5h3V735H703.5z M697,741.5c3.6,0,6.5-2.9,6.5-6.5h3c0,5.2-4.3,9.5-9.5,9.5V741.5z"/>
	</g>
	<g>
		<path class="st1" d="M780.5,744.5c0.8,0,1.5-0.7,1.5-1.5s-0.7-1.5-1.5-1.5V744.5z M729,603l-8.7,15h17.3L729,603z M780.5,741.5
			H737v3h43.5V741.5z M730.5,735V616.5h-3V735H730.5z M737,741.5c-3.6,0-6.5-2.9-6.5-6.5h-3c0,5.2,4.3,9.5,9.5,9.5V741.5z"/>
	</g>
	<g>
		<path class="st1" d="M716,431l-8.7-15h17.3L716,431z M655,307.5c-0.8,0-1.5-0.7-1.5-1.5s0.7-1.5,1.5-1.5V307.5z M716,356h1.5H716z
			 M708,307.5h-53v-3h53V307.5z M714.5,417.5V356h3v61.5H714.5z M714.5,356v-42h3v42H714.5z M708,304.5c5.2,0,9.5,4.3,9.5,9.5h-3
			c0-3.6-2.9-6.5-6.5-6.5V304.5z"/>
	</g>
	<g>
		<path class="st0" d="M655,77.5c-0.8,0-1.5,0.7-1.5,1.5s0.7,1.5,1.5,1.5V77.5z M783,79l-15-8.7v17.3L783,79z M655,80.5h114.5v-3
			H655V80.5z"/>
	</g>
	<g>
		<path class="st0" d="M1186.1,377.3c0-0.8-0.7-1.5-1.5-1.5s-1.5,0.7-1.5,1.5H1186.1z M1184.6,659.3l8.7-15H1176L1184.6,659.3z
			 M1183.1,377.3v268.5h3V377.3H1183.1z"/>
	</g>
	<g>
		<path class="st0" d="M238.5,377c0-0.8-0.7-1.5-1.5-1.5s-1.5,0.7-1.5,1.5H238.5z M237,659l8.7-15h-17.3L237,659z M235.5,377v268.5
			h3V377H235.5z"/>
	</g>
	<g>
		<path class="st1" d="M259.5,659c0,0.8,0.7,1.5,1.5,1.5s1.5-0.7,1.5-1.5H259.5z M261,377l-8.7,15h17.3L261,377z M262.5,659V390.5
			h-3V659H262.5z"/>
	</g>
	<g>
		<path class="st0" d="M574.5,377c0-0.8-0.7-1.5-1.5-1.5s-1.5,0.7-1.5,1.5H574.5z M573,659l8.7-15h-17.3L573,659z M571.5,377v268.5
			h3V377H571.5z"/>
	</g>
	<g class="st2">
		<path class="st1" d="M547.5,656c0,0.8,0.7,1.5,1.5,1.5s1.5-0.7,1.5-1.5H547.5z M549,374l-8.7,15h17.3L549,374z M550.5,656V387.5
			h-3V656H550.5z"/>
	</g>
	<g>
		<path class="st0" d="M870.5,610.5c0,0.8,0.7,1.5,1.5,1.5s1.5-0.7,1.5-1.5H870.5z M872,377l-8.7,15h17.3L872,377z M873.5,610.5
			v-220h-3v220H873.5z"/>
	</g>
	<g>
		<path class="st0" d="M1092.5,299c0.8,0,1.5-0.7,1.5-1.5s-0.7-1.5-1.5-1.5V299z M964.5,297.5l15,8.7v-17.3L964.5,297.5z
			 M1092.5,296H978v3h114.5V296z"/>
	</g>
	<g>
		<path class="st0" d="M1092.5,744.1c0.8,0,1.5-0.7,1.5-1.5s-0.7-1.5-1.5-1.5V744.1z M964.5,742.6l15,8.7V734L964.5,742.6z
			 M1092.5,741.1H978v3h114.5V741.1z"/>
	</g>
	<g>
		<path class="st0" d="M468,756.5c0.8,0,1.5-0.7,1.5-1.5s-0.7-1.5-1.5-1.5V756.5z M340,755l15,8.7v-17.3L340,755z M468,753.5H353.5
			v3H468V753.5z"/>
	</g>
	<g>
		<path class="st1" d="M341,729.5c-0.8,0-1.5,0.7-1.5,1.5s0.7,1.5,1.5,1.5V729.5z M469,731l-15-8.7v17.3L469,731z M341,732.5h114.5
			v-3H341V732.5z"/>
	</g>
	<g>
		<path class="st0" d="M777.5,283.5c0.8,0,1.5-0.7,1.5-1.5s-0.7-1.5-1.5-1.5V283.5z M649.5,282l15,8.7v-17.3L649.5,282z
			 M777.5,280.5H663v3h114.5V280.5z"/>
	</g>
	<g>
		<path class="st0" d="M469,283.5c0.8,0,1.5-0.7,1.5-1.5s-0.7-1.5-1.5-1.5V283.5z M341,282l15,8.7v-17.3L341,282z M469,280.5H354.5
			v3H469V280.5z"/>
	</g>
	<g>
		<path class="st1" d="M341,304.5c-0.8,0-1.5,0.7-1.5,1.5s0.7,1.5,1.5,1.5V304.5z M469,306l-15-8.7v17.3L469,306z M341,307.5h114.5
			v-3H341V307.5z"/>
	</g>
	<g>
		<path class="st0" d="M173,92.5c-0.8,0-1.5,0.7-1.5,1.5s0.7,1.5,1.5,1.5V92.5z M225,94l-15-8.7v17.3L225,94z M173,95.5h38.5v-3H173
			V95.5z"/>
	</g>
	<g>
		<path class="st1" d="M173,120.5c-0.8,0-1.5,0.7-1.5,1.5s0.7,1.5,1.5,1.5V120.5z M225,122l-15-8.7v17.3L225,122z M173,123.5h38.5
			v-3H173V123.5z"/>
	</g>
	<path class="st3" d="M242.1,88.8h2.8c0.5,0,0.9,0.1,1.4,0.2c0.4,0.1,0.8,0.2,1,0.5s0.5,0.5,0.7,0.8s0.2,0.7,0.2,1.2
		s-0.1,0.9-0.3,1.2c-0.2,0.3-0.4,0.6-0.7,0.8c-0.3,0.2-0.6,0.4-1.1,0.5c-0.4,0.1-0.8,0.1-1.3,0.1h-1.5v4H242L242.1,88.8L242.1,88.8z
		 M243.4,92.9h1.4c0.3,0,0.6,0,0.9-0.1s0.5-0.1,0.7-0.3c0.2-0.1,0.3-0.3,0.4-0.5s0.2-0.4,0.2-0.7s-0.1-0.5-0.2-0.7s-0.3-0.3-0.4-0.5
		c-0.2-0.1-0.4-0.2-0.7-0.2c-0.3-0.1-0.5-0.1-0.8-0.1h-1.4v3.1H243.4z M249.5,93.2c0-0.2,0-0.4,0-0.6c0-0.3,0-0.5,0-0.7h1.2
		c0,0.2,0,0.3,0,0.5s0,0.4,0,0.5l0,0c0.2-0.4,0.4-0.7,0.8-0.9c0.3-0.2,0.7-0.3,1.1-0.3c0.2,0,0.4,0,0.5,0.1l-0.1,1.1
		c-0.2,0-0.4-0.1-0.6-0.1c-0.3,0-0.6,0.1-0.8,0.2c-0.2,0.1-0.4,0.2-0.5,0.4c-0.1,0.2-0.2,0.4-0.3,0.6c-0.1,0.2-0.1,0.5-0.1,0.7V98
		h-1.2V93.2z M260.5,94.9c0,0.5-0.1,0.9-0.3,1.3c-0.2,0.4-0.4,0.7-0.7,1c-0.3,0.3-0.6,0.5-1.1,0.7c-0.4,0.2-0.8,0.2-1.3,0.2
		s-0.9-0.1-1.3-0.2c-0.4-0.2-0.8-0.4-1.1-0.7c-0.3-0.3-0.5-0.6-0.7-1s-0.2-0.8-0.2-1.3s0.1-0.9,0.2-1.3c0.2-0.4,0.4-0.7,0.7-1
		c0.3-0.3,0.6-0.5,1.1-0.7c0.4-0.2,0.8-0.2,1.3-0.2s0.9,0.1,1.3,0.2c0.4,0.2,0.8,0.4,1.1,0.7c0.3,0.3,0.5,0.6,0.7,1
		C260.4,94,260.5,94.4,260.5,94.9z M259.2,94.9c0-0.3,0-0.6-0.1-0.8c-0.1-0.3-0.2-0.5-0.4-0.7c-0.2-0.2-0.4-0.4-0.6-0.5
		c-0.3-0.1-0.5-0.2-0.9-0.2c-0.3,0-0.6,0.1-0.9,0.2s-0.5,0.3-0.6,0.5c-0.2,0.2-0.3,0.4-0.4,0.7c-0.1,0.3-0.1,0.6-0.1,0.8
		s0,0.6,0.1,0.8c0.1,0.3,0.2,0.5,0.4,0.7c0.2,0.2,0.4,0.4,0.6,0.5c0.3,0.1,0.6,0.2,0.9,0.2s0.6-0.1,0.9-0.2s0.5-0.3,0.6-0.5
		c0.2-0.2,0.3-0.4,0.4-0.7C259.2,95.5,259.2,95.2,259.2,94.9z M266.8,93.4c-0.1-0.2-0.3-0.4-0.6-0.5c-0.3-0.1-0.5-0.2-0.8-0.2
		s-0.6,0.1-0.9,0.2c-0.2,0.1-0.5,0.3-0.6,0.5c-0.2,0.2-0.3,0.4-0.4,0.7c-0.1,0.3-0.1,0.6-0.1,0.8s0,0.6,0.1,0.8
		c0.1,0.3,0.2,0.5,0.4,0.7c0.2,0.2,0.4,0.4,0.6,0.5c0.3,0.1,0.5,0.2,0.9,0.2c0.3,0,0.6-0.1,0.8-0.2c0.3-0.1,0.5-0.3,0.6-0.5l0.8,0.7
		c-0.3,0.3-0.6,0.5-1,0.7s-0.8,0.2-1.3,0.2s-0.9-0.1-1.3-0.2c-0.4-0.2-0.7-0.4-1-0.6c-0.3-0.3-0.5-0.6-0.7-1s-0.2-0.8-0.2-1.3
		s0.1-0.9,0.2-1.3c0.2-0.4,0.4-0.7,0.7-1c0.3-0.3,0.6-0.5,1-0.7s0.8-0.2,1.3-0.2c0.4,0,0.9,0.1,1.3,0.3c0.4,0.2,0.8,0.4,1,0.8
		L266.8,93.4z M273.7,94.4c0-0.2-0.1-0.5-0.1-0.7c-0.1-0.2-0.2-0.4-0.3-0.6c-0.1-0.2-0.3-0.3-0.5-0.4s-0.5-0.1-0.7-0.1
		c-0.3,0-0.5,0-0.7,0.1s-0.4,0.2-0.6,0.4c-0.2,0.2-0.3,0.3-0.4,0.6c-0.1,0.2-0.2,0.4-0.2,0.7H273.7z M275,94.9c0,0.1,0,0.1,0,0.2
		s0,0.1,0,0.2h-4.9c0,0.3,0.1,0.5,0.2,0.7s0.3,0.4,0.4,0.6c0.2,0.2,0.4,0.3,0.6,0.4s0.5,0.1,0.8,0.1c0.4,0,0.8-0.1,1.1-0.3
		c0.3-0.2,0.5-0.4,0.7-0.7l0.9,0.7c-0.3,0.4-0.7,0.8-1.2,1c-0.4,0.2-0.9,0.3-1.5,0.3c-0.5,0-0.9-0.1-1.3-0.2c-0.4-0.2-0.7-0.4-1-0.6
		c-0.3-0.3-0.5-0.6-0.7-1s-0.2-0.8-0.2-1.3s0.1-0.9,0.2-1.3c0.2-0.4,0.4-0.8,0.7-1c0.3-0.3,0.6-0.5,1-0.7s0.8-0.2,1.3-0.2
		c0.4,0,0.9,0.1,1.2,0.2c0.4,0.1,0.7,0.4,0.9,0.6c0.3,0.3,0.5,0.6,0.6,1C274.9,93.9,275,94.4,275,94.9z M280.3,93.4
		c-0.1-0.2-0.3-0.4-0.6-0.5c-0.3-0.1-0.5-0.2-0.8-0.2c-0.1,0-0.3,0-0.4,0.1c-0.1,0-0.3,0.1-0.4,0.1c-0.1,0.1-0.2,0.1-0.3,0.2
		c-0.1,0.1-0.1,0.2-0.1,0.4c0,0.3,0.1,0.5,0.4,0.6c0.2,0.1,0.6,0.2,1.1,0.3c0.3,0.1,0.6,0.2,0.8,0.2c0.3,0.1,0.5,0.2,0.6,0.4
		c0.2,0.1,0.3,0.3,0.4,0.5s0.2,0.4,0.2,0.7c0,0.4-0.1,0.7-0.2,0.9c-0.1,0.3-0.3,0.5-0.6,0.6c-0.2,0.2-0.5,0.3-0.8,0.3
		c-0.3,0.1-0.6,0.1-0.9,0.1c-0.5,0-0.9-0.1-1.4-0.3c-0.4-0.2-0.8-0.5-1.1-0.8l0.9-0.7c0.2,0.2,0.4,0.4,0.7,0.6
		c0.3,0.2,0.6,0.2,1,0.2c0.2,0,0.3,0,0.4,0s0.3-0.1,0.4-0.2s0.2-0.2,0.3-0.3c0.1-0.1,0.1-0.3,0.1-0.4c0-0.3-0.1-0.5-0.4-0.6
		s-0.7-0.3-1.2-0.4c-0.2-0.1-0.4-0.1-0.6-0.2s-0.4-0.2-0.6-0.3c-0.2-0.1-0.3-0.3-0.4-0.5s-0.2-0.4-0.2-0.7c0-0.3,0.1-0.6,0.2-0.8
		c0.1-0.2,0.3-0.4,0.5-0.6s0.5-0.3,0.7-0.3c0.3-0.1,0.6-0.1,0.9-0.1c0.4,0,0.9,0.1,1.3,0.3c0.4,0.2,0.7,0.4,1,0.8L280.3,93.4z
		 M286.4,93.4c-0.1-0.2-0.3-0.4-0.6-0.5c-0.3-0.1-0.5-0.2-0.8-0.2c-0.1,0-0.3,0-0.4,0.1c-0.1,0-0.3,0.1-0.4,0.1
		c-0.1,0.1-0.2,0.1-0.3,0.2c-0.1,0.1-0.1,0.2-0.1,0.4c0,0.3,0.1,0.5,0.4,0.6c0.2,0.1,0.6,0.2,1.1,0.3c0.3,0.1,0.6,0.2,0.8,0.2
		c0.3,0.1,0.5,0.2,0.6,0.4c0.2,0.1,0.3,0.3,0.4,0.5s0.2,0.4,0.2,0.7c0,0.4-0.1,0.7-0.2,0.9c-0.1,0.3-0.3,0.5-0.6,0.6
		c-0.2,0.2-0.5,0.3-0.8,0.3c-0.3,0.1-0.6,0.1-0.9,0.1c-0.5,0-0.9-0.1-1.4-0.3c-0.4-0.2-0.8-0.5-1.1-0.8l0.9-0.7
		c0.2,0.2,0.4,0.4,0.7,0.6c0.3,0.2,0.6,0.2,1,0.2c0.2,0,0.3,0,0.4,0s0.3-0.1,0.4-0.2s0.2-0.2,0.3-0.3c0.1-0.1,0.1-0.3,0.1-0.4
		c0-0.3-0.1-0.5-0.4-0.6s-0.7-0.3-1.2-0.4c-0.2-0.1-0.4-0.1-0.6-0.2s-0.4-0.2-0.6-0.3s-0.3-0.3-0.4-0.5s-0.2-0.4-0.2-0.7
		c0-0.3,0.1-0.6,0.2-0.8c0.1-0.2,0.3-0.4,0.5-0.6s0.5-0.3,0.7-0.3c0.3-0.1,0.6-0.1,0.9-0.1c0.4,0,0.9,0.1,1.3,0.3
		c0.4,0.2,0.7,0.4,1,0.8L286.4,93.4z M294,98h-1.3v-9.2h5.7v1.1H294v2.9h4.2v1.1H294V98z M301.6,98h-1.2v-9.8h1.2V98z M310.3,94.9
		c0,0.5-0.1,0.9-0.3,1.3c-0.2,0.4-0.4,0.7-0.7,1c-0.3,0.3-0.6,0.5-1.1,0.7c-0.4,0.2-0.8,0.2-1.3,0.2s-0.9-0.1-1.3-0.2
		c-0.4-0.2-0.8-0.4-1.1-0.7c-0.3-0.3-0.5-0.6-0.7-1s-0.2-0.8-0.2-1.3s0.1-0.9,0.2-1.3c0.2-0.4,0.4-0.7,0.7-1
		c0.3-0.3,0.6-0.5,1.1-0.7c0.4-0.2,0.8-0.2,1.3-0.2s0.9,0.1,1.3,0.2c0.4,0.2,0.8,0.4,1.1,0.7c0.3,0.3,0.5,0.6,0.7,1
		S310.3,94.4,310.3,94.9z M309,94.9c0-0.3,0-0.6-0.1-0.8c-0.1-0.3-0.2-0.5-0.4-0.7c-0.2-0.2-0.4-0.4-0.7-0.5
		c-0.3-0.1-0.5-0.2-0.9-0.2c-0.3,0-0.6,0.1-0.9,0.2s-0.5,0.3-0.6,0.5c-0.2,0.2-0.3,0.4-0.4,0.7c-0.1,0.3-0.1,0.6-0.1,0.8
		s0,0.6,0.1,0.8c0.1,0.3,0.2,0.5,0.4,0.7s0.4,0.4,0.6,0.5c0.3,0.1,0.6,0.2,0.9,0.2s0.6-0.1,0.9-0.2s0.5-0.3,0.7-0.5s0.3-0.4,0.4-0.7
		C309,95.5,309,95.2,309,94.9z M312.7,91.8l1.4,4.7l0,0l1.5-4.7h1.3l1.5,4.7l0,0l1.4-4.7h1.3l-2,6.2h-1.3l-1.5-4.6l0,0l-1.5,4.6
		h-1.3l-2.1-6.2H312.7z"/>
	<path class="st3" d="M239.9,60.9L239.9,60.9l4.1-4.1h1.8l-4.5,4.2l4.7,5h-1.8l-4.3-4.8l0,0V66h-1.3v-9.2h1.3L239.9,60.9L239.9,60.9
		z M251.5,62.4c0-0.2-0.1-0.5-0.1-0.7c-0.1-0.2-0.2-0.4-0.3-0.6c-0.1-0.2-0.3-0.3-0.5-0.4c-0.2-0.1-0.5-0.1-0.7-0.1
		c-0.3,0-0.5,0-0.7,0.1s-0.4,0.2-0.6,0.4s-0.3,0.3-0.4,0.6c-0.1,0.2-0.2,0.4-0.2,0.7H251.5z M252.7,62.9c0,0.1,0,0.1,0,0.2
		c0,0.1,0,0.1,0,0.2h-4.9c0,0.3,0.1,0.5,0.2,0.7s0.3,0.4,0.4,0.6c0.2,0.2,0.4,0.3,0.6,0.4s0.5,0.1,0.8,0.1c0.4,0,0.8-0.1,1.1-0.3
		c0.3-0.2,0.5-0.4,0.7-0.7l0.9,0.7c-0.3,0.4-0.7,0.8-1.2,1c-0.4,0.2-0.9,0.3-1.5,0.3c-0.5,0-0.9-0.1-1.3-0.2c-0.4-0.2-0.7-0.4-1-0.6
		c-0.3-0.3-0.5-0.6-0.7-1s-0.2-0.8-0.2-1.3s0.1-0.9,0.2-1.3c0.2-0.4,0.4-0.8,0.7-1c0.3-0.3,0.6-0.5,1-0.7s0.8-0.2,1.3-0.2
		s0.9,0.1,1.2,0.2c0.4,0.1,0.7,0.4,0.9,0.6c0.3,0.3,0.5,0.6,0.6,1C252.7,61.9,252.7,62.4,252.7,62.9z M257.1,64.7L257.1,64.7
		l1.7-4.8h1.3l-3,7.6c-0.1,0.3-0.2,0.5-0.3,0.7c-0.1,0.2-0.3,0.4-0.4,0.5c-0.2,0.1-0.4,0.3-0.6,0.3c-0.2,0.1-0.5,0.1-0.8,0.1
		c-0.1,0-0.3,0-0.4,0s-0.3,0-0.4-0.1l0.1-1.1c0.2,0.1,0.4,0.1,0.6,0.1c0.3,0,0.6-0.1,0.7-0.3c0.2-0.2,0.3-0.4,0.4-0.8l0.4-1
		l-2.6-6.2h1.4L257.1,64.7z"/>
	<path class="st3" d="M242.1,116.8h3.2c0.6,0,1.2,0.1,1.8,0.3c0.6,0.2,1.1,0.4,1.6,0.8s0.9,0.8,1.2,1.4c0.3,0.6,0.4,1.3,0.4,2.1
		c0,0.8-0.1,1.5-0.4,2.1s-0.7,1-1.2,1.4s-1,0.7-1.6,0.8c-0.6,0.2-1.2,0.3-1.8,0.3h-3.2V116.8z M243.4,124.9h1.6
		c0.6,0,1.1-0.1,1.5-0.2c0.5-0.2,0.9-0.4,1.2-0.7c0.3-0.3,0.6-0.7,0.8-1.1s0.3-0.9,0.3-1.5s-0.1-1.1-0.3-1.5s-0.5-0.8-0.8-1.1
		c-0.3-0.3-0.7-0.5-1.2-0.7s-1-0.2-1.5-0.2h-1.6V124.9z M256.1,122c0-0.5-0.1-0.8-0.4-1s-0.6-0.3-1.1-0.3c-0.3,0-0.7,0.1-1,0.2
		s-0.6,0.3-0.8,0.5l-0.6-0.8c0.3-0.3,0.7-0.5,1.1-0.7s0.9-0.2,1.4-0.2c0.4,0,0.8,0.1,1.1,0.2c0.3,0.1,0.6,0.3,0.8,0.5
		c0.2,0.2,0.4,0.5,0.5,0.8s0.2,0.6,0.2,0.9v2.7c0,0.2,0,0.4,0,0.7c0,0.2,0,0.4,0.1,0.6h-1.1c-0.1-0.3-0.1-0.6-0.1-0.9l0,0
		c-0.2,0.3-0.5,0.6-0.9,0.8c-0.3,0.2-0.7,0.3-1.2,0.3c-0.2,0-0.5,0-0.8-0.1s-0.5-0.2-0.7-0.3c-0.2-0.1-0.4-0.3-0.5-0.6
		c-0.1-0.2-0.2-0.5-0.2-0.9c0-0.5,0.1-0.8,0.4-1.1c0.3-0.3,0.6-0.5,1-0.6s0.9-0.2,1.4-0.3c0.5,0,1-0.1,1.5-0.1L256.1,122L256.1,122z
		 M255.8,123.1c-0.3,0-0.6,0-0.9,0s-0.6,0.1-0.9,0.2s-0.5,0.2-0.6,0.4c-0.2,0.2-0.3,0.4-0.3,0.6s0,0.3,0.1,0.5
		c0.1,0.1,0.2,0.2,0.3,0.3c0.1,0.1,0.3,0.1,0.4,0.2c0.1,0,0.3,0,0.5,0c0.6,0,1-0.2,1.3-0.5s0.5-0.8,0.5-1.3v-0.3L255.8,123.1
		L255.8,123.1z M262.5,120.8h-1.6v3.2c0,0.4,0.1,0.6,0.2,0.8c0.1,0.2,0.4,0.2,0.7,0.2c0.1,0,0.2,0,0.4,0s0.2-0.1,0.4-0.1v1
		c-0.1,0.1-0.3,0.1-0.5,0.1s-0.4,0.1-0.5,0.1c-0.6,0-1-0.2-1.3-0.5s-0.5-0.8-0.5-1.4v-3.3h-1.2v-1h1.2v-1.8h1.2v1.8h1.6v0.9H262.5z
		 M267.9,122c0-0.5-0.1-0.8-0.4-1s-0.6-0.3-1.1-0.3c-0.3,0-0.7,0.1-1,0.2s-0.6,0.3-0.8,0.5l-0.6-0.8c0.3-0.3,0.7-0.5,1.1-0.7
		s0.9-0.2,1.4-0.2c0.4,0,0.8,0.1,1.1,0.2c0.3,0.1,0.6,0.3,0.8,0.5c0.2,0.2,0.4,0.5,0.5,0.8s0.2,0.6,0.2,0.9v2.7c0,0.2,0,0.4,0,0.7
		c0,0.2,0,0.4,0.1,0.6H268c-0.1-0.3-0.1-0.6-0.1-0.9l0,0c-0.2,0.3-0.5,0.6-0.9,0.8c-0.3,0.2-0.7,0.3-1.2,0.3c-0.2,0-0.5,0-0.8-0.1
		s-0.5-0.2-0.7-0.3c-0.2-0.1-0.4-0.3-0.5-0.6c-0.1-0.2-0.2-0.5-0.2-0.9c0-0.5,0.1-0.8,0.4-1.1c0.3-0.3,0.6-0.5,1-0.6
		s0.9-0.2,1.4-0.3s1-0.1,1.5-0.1L267.9,122L267.9,122z M267.6,123.1c-0.3,0-0.6,0-0.9,0s-0.6,0.1-0.9,0.2s-0.5,0.2-0.6,0.4
		c-0.2,0.2-0.3,0.4-0.3,0.6s0,0.3,0.1,0.5c0.1,0.1,0.2,0.2,0.3,0.3c0.1,0.1,0.3,0.1,0.4,0.2c0.1,0,0.3,0,0.5,0c0.6,0,1-0.2,1.3-0.5
		s0.5-0.8,0.5-1.3v-0.3L267.6,123.1L267.6,123.1z M276.3,126H275v-9.2h5.7v1.1h-4.5v2.9h4.2v1.1h-4.2L276.3,126L276.3,126z
		 M283.9,126h-1.2v-9.8h1.2V126z M292.5,122.9c0,0.5-0.1,0.9-0.3,1.3c-0.2,0.4-0.4,0.7-0.7,1c-0.3,0.3-0.6,0.5-1.1,0.7
		c-0.4,0.2-0.8,0.2-1.3,0.2s-0.9-0.1-1.3-0.2c-0.4-0.2-0.8-0.4-1.1-0.7c-0.3-0.3-0.5-0.6-0.7-1s-0.2-0.8-0.2-1.3s0.1-0.9,0.2-1.3
		c0.2-0.4,0.4-0.7,0.7-1c0.3-0.3,0.6-0.5,1.1-0.7c0.4-0.2,0.8-0.2,1.3-0.2s0.9,0.1,1.3,0.2c0.4,0.2,0.8,0.4,1.1,0.7
		c0.3,0.3,0.5,0.6,0.7,1C292.5,122,292.5,122.4,292.5,122.9z M291.3,122.9c0-0.3,0-0.6-0.1-0.8c-0.1-0.3-0.2-0.5-0.4-0.7
		c-0.2-0.2-0.4-0.4-0.7-0.5c-0.3-0.1-0.5-0.2-0.9-0.2c-0.3,0-0.6,0.1-0.9,0.2s-0.5,0.3-0.6,0.5c-0.2,0.2-0.3,0.4-0.4,0.7
		c-0.1,0.3-0.1,0.5-0.1,0.8s0,0.6,0.1,0.8c0.1,0.3,0.2,0.5,0.4,0.7c0.2,0.2,0.4,0.4,0.6,0.5c0.3,0.1,0.6,0.2,0.9,0.2
		s0.6-0.1,0.9-0.2s0.5-0.3,0.7-0.5s0.3-0.4,0.4-0.7C291.2,123.5,291.3,123.2,291.3,122.9z M295,119.8l1.4,4.7l0,0l1.5-4.7h1.3
		l1.5,4.7l0,0l1.4-4.7h1.3l-2,6.2H300l-1.5-4.6l0,0L297,126h-1.3l-2.1-6.2H295z"/>
	<path class="st4" d="M163,46.5h172c5.2,0,9.5,4.3,9.5,9.5v76c0,5.2-4.3,9.5-9.5,9.5H163c-5.2,0-9.5-4.3-9.5-9.5V56
		C153.5,50.8,157.8,46.5,163,46.5z"/>
	<line class="st4" x1="345" y1="74.5" x2="153" y2="74.5"/>
</g>
</svg>
