<?xml version="1.0" encoding="utf-8"?>
<!-- Generator: Adobe Illustrator 21.0.0, SVG Export Plug-In . SVG Version: 6.00 Build 0)  -->
<svg version="1.1" id="图层_1" xmlns="http://www.w3.org/2000/svg" xmlns:xlink="http://www.w3.org/1999/xlink" x="0px" y="0px"
	 viewBox="0 0 101 35" style="enable-background:new 0 0 101 35;" xml:space="preserve">
<style type="text/css">
	.st0{fill:#2C3C59;}
	.st1{fill:#D5E9FA;}
	.st2{fill:none;stroke:#2C3C59;stroke-width:2;stroke-linecap:round;stroke-linejoin:round;stroke-miterlimit:10;}
	.st3{fill:none;stroke:#2C3C59;stroke-miterlimit:10;}
	.st4{fill:none;stroke:#4C5263;stroke-linecap:round;stroke-linejoin:round;stroke-miterlimit:10;}
</style>
<path class="st0" d="M48.4,13.6l-6.8,3.9v-2.9h-6.2c-0.6,0-1-0.4-1-1s0.4-1,1-1h6.3V9.7L48.4,13.6z"/>
<path class="st1" d="M98.6,27H57.2c-1.1,0-1.9-0.9-1.9-1.9V5.5c0-1.1,0.9-1.9,1.9-1.9h41.4c1.1,0,1.9,0.9,1.9,1.9v19.6
	C100.7,26.1,99.8,27,98.6,27z"/>
<path class="st0" d="M98.1,23.5H52v3h46.2L98.1,23.5L98.1,23.5z"/>
<path class="st0" d="M57.3,24.8c0,0.3,0.2,0.5,0.5,0.5s0.5-0.2,0.5-0.5H57.3z M58.3,20.3c0-0.3-0.2-0.5-0.5-0.5s-0.5,0.2-0.5,0.5
	H58.3z M63.1,24.9c0,0.3,0.2,0.5,0.5,0.5s0.5-0.2,0.5-0.5H63.1z M64.1,20.4c0-0.3-0.2-0.5-0.5-0.5s-0.5,0.2-0.5,0.5H64.1z M68.8,25
	c0,0.3,0.2,0.5,0.5,0.5s0.5-0.2,0.5-0.5H68.8z M69.8,20.4c0-0.3-0.2-0.5-0.5-0.5s-0.5,0.2-0.5,0.5H69.8z M74.6,25.1
	c0,0.3,0.2,0.5,0.5,0.5s0.5-0.2,0.5-0.5H74.6z M75.6,20.5c0-0.3-0.2-0.5-0.5-0.5s-0.5,0.2-0.5,0.5H75.6z M80.4,25.1
	c0,0.3,0.2,0.5,0.5,0.5s0.5-0.2,0.5-0.5H80.4z M81.4,20.6c0-0.3-0.2-0.5-0.5-0.5s-0.5,0.2-0.5,0.5H81.4z M86.1,25.2
	c0,0.3,0.2,0.5,0.5,0.5s0.5-0.2,0.5-0.5H86.1z M87.1,20.7c0-0.3-0.2-0.5-0.5-0.5s-0.5,0.2-0.5,0.5H87.1z M91.8,25.2
	c0,0.3,0.2,0.5,0.5,0.5s0.5-0.2,0.5-0.5H91.8z M92.8,20.7c0-0.3-0.2-0.5-0.5-0.5s-0.5,0.2-0.5,0.5H92.8z M58.3,24.8v-4.5h-1v4.5
	H58.3z M64.1,24.9v-4.5h-1v4.5H64.1z M69.8,25v-4.6h-1V25H69.8z M75.6,25.1v-4.6h-1v4.6H75.6z M81.4,25.1v-4.5h-1v4.5H81.4z
	 M87.1,25.2v-4.5h-1v4.5H87.1z M92.8,25.2v-4.5h-1v4.5H92.8z"/>
<path class="st2" d="M52,33.8V2.4c0-0.6,0.4-1,0.9-1h44.5c0.5,0,0.9,0.4,0.9,1v31.4"/>
<path class="st0" d="M67.6,31.1c0,0.8-0.7,1.5-1.5,1.5v2c1.9,0,3.5-1.6,3.5-3.5C69.6,31.1,67.6,31.1,67.6,31.1z M66.1,32.6
	c-0.8,0-1.5-0.7-1.5-1.5h-2c0,1.9,1.6,3.5,3.5,3.5V32.6z M64.6,31.1c0-0.8,0.7-1.5,1.5-1.5v-2c-1.9,0-3.5,1.6-3.5,3.5H64.6z
	 M66.1,29.6c0.8,0,1.5,0.7,1.5,1.5h2c0-1.9-1.6-3.5-3.5-3.5V29.6z M59.3,31.1c0,0.8-0.7,1.5-1.5,1.5v2c1.9,0,3.5-1.6,3.5-3.5
	C61.3,31.1,59.3,31.1,59.3,31.1z M57.8,32.6c-0.8,0-1.5-0.7-1.5-1.5h-2c0,1.9,1.6,3.5,3.5,3.5V32.6z M56.3,31.1
	c0-0.8,0.7-1.5,1.5-1.5v-2c-1.9,0-3.5,1.6-3.5,3.5H56.3z M57.8,29.6c0.8,0,1.5,0.7,1.5,1.5h2c0-1.9-1.6-3.5-3.5-3.5V29.6z"/>
<path class="st1" d="M32.5,23.5h-29c-0.6,0-1-0.5-1-1V9.2c0-0.5,0.4-1,1-1h29c0.6,0,1,0.5,1,1v13.4C33.4,23.1,33,23.5,32.5,23.5z"/>
<path class="st3" d="M30.5,21.7h-29c-0.6,0-1-0.5-1-1V7.3c0-0.5,0.4-1,1-1h29c0.5,0,1,0.5,1,1v13.4C31.5,21.2,31.1,21.7,30.5,21.7z"
	/>
<path class="st4" d="M26.1,8.9v10.2"/>
<path class="st4" d="M6,8.9v10.2"/>
<path class="st4" d="M11,8.9v10.2"/>
<path class="st4" d="M16.1,8.9v10.2"/>
<path class="st4" d="M21.1,8.9v10.2"/>
</svg>
