<?xml version="1.0" encoding="utf-8"?>
<!-- Generator: Adobe Illustrator 21.0.0, SVG Export Plug-In . SVG Version: 6.00 Build 0)  -->
<svg version="1.1" id="图层_1" xmlns="http://www.w3.org/2000/svg" xmlns:xlink="http://www.w3.org/1999/xlink" x="0px" y="0px"
	 viewBox="0 0 116 52" style="enable-background:new 0 0 116 52;" xml:space="preserve">
<style type="text/css">
	.st0{fill:#FFFFFF;}
</style>
<path class="st0" d="M39,34.4c-0.2-0.2-0.5-0.4-0.8-0.6c-0.3-0.2-0.7-0.3-1-0.3c-0.2,0-0.4,0-0.6,0.1c-0.2,0-0.4,0.1-0.6,0.2
	c-0.2,0.1-0.3,0.2-0.4,0.4c-0.1,0.2-0.2,0.4-0.2,0.6c0,0.2,0,0.4,0.1,0.6c0.1,0.2,0.2,0.3,0.4,0.4c0.2,0.1,0.4,0.2,0.6,0.3
	c0.2,0.1,0.5,0.2,0.8,0.3s0.6,0.2,1,0.3c0.3,0.1,0.7,0.3,0.9,0.5c0.3,0.2,0.5,0.5,0.7,0.8s0.3,0.7,0.3,1.2s-0.1,1-0.3,1.4
	s-0.5,0.7-0.8,1s-0.7,0.5-1.1,0.6c-0.4,0.1-0.9,0.2-1.4,0.2c-0.6,0-1.3-0.1-1.9-0.4c-0.6-0.2-1.1-0.6-1.5-1.1l1.3-1.2
	c0.2,0.3,0.6,0.6,1,0.8s0.8,0.3,1.2,0.3c0.2,0,0.4,0,0.6-0.1c0.2-0.1,0.4-0.1,0.6-0.3c0.2-0.1,0.3-0.3,0.4-0.4
	c0.1-0.2,0.2-0.4,0.2-0.7s-0.1-0.5-0.2-0.6c-0.1-0.2-0.3-0.3-0.5-0.4c-0.2-0.1-0.4-0.2-0.7-0.3s-0.6-0.2-0.9-0.3
	c-0.3-0.1-0.6-0.2-0.9-0.3c-0.3-0.1-0.6-0.3-0.8-0.5s-0.4-0.5-0.6-0.8c-0.1-0.3-0.2-0.7-0.2-1.2s0.1-0.9,0.3-1.3
	c0.2-0.4,0.5-0.7,0.8-0.9s0.7-0.4,1.2-0.5c0.4-0.1,0.9-0.2,1.3-0.2c0.5,0,1,0.1,1.5,0.3s1,0.4,1.4,0.8L39,34.4z M50,35.3
	c0.4,0,0.8,0.1,1.1,0.2c0.3,0.1,0.6,0.3,0.8,0.6s0.4,0.5,0.4,0.9c0.1,0.3,0.1,0.7,0.1,1v4.2h-1.7v-3.7c0-0.2,0-0.4,0-0.6
	c0-0.2-0.1-0.4-0.2-0.6c-0.1-0.2-0.2-0.3-0.4-0.4c-0.2-0.1-0.4-0.2-0.6-0.2c-0.3,0-0.5,0.1-0.7,0.2s-0.3,0.3-0.5,0.4
	s-0.2,0.4-0.3,0.6c0,0.2,0,0.5,0,0.7v3.7h-1.7v-4.1c0-0.4-0.1-0.8-0.3-1c-0.2-0.3-0.5-0.4-0.9-0.4c-0.3,0-0.5,0.1-0.7,0.2
	c-0.2,0.1-0.3,0.2-0.5,0.4c-0.1,0.2-0.2,0.4-0.3,0.6c-0.1,0.2-0.1,0.4-0.1,0.7v3.7h-1.7v-6.7h1.6v1.1l0,0c0.1-0.2,0.2-0.3,0.3-0.5
	c0.1-0.1,0.3-0.3,0.4-0.4c0.2-0.1,0.4-0.2,0.6-0.3c0.2-0.1,0.5-0.1,0.7-0.1c0.5,0,1,0.1,1.3,0.3s0.6,0.5,0.8,0.9
	c0.2-0.4,0.5-0.7,0.9-0.9C49,35.4,49.5,35.3,50,35.3z M58.6,41.4L58.6,41.4c-0.2,0.3-0.5,0.5-0.9,0.7s-0.8,0.3-1.3,0.3
	c-0.3,0-0.6,0-0.9-0.1c-0.3-0.1-0.6-0.2-0.8-0.3c-0.2-0.2-0.4-0.4-0.6-0.6c-0.2-0.3-0.2-0.6-0.2-1c0-0.5,0.1-0.9,0.4-1.2
	c0.3-0.3,0.7-0.5,1.1-0.7c0.4-0.2,0.9-0.3,1.5-0.3c0.6-0.1,1.1-0.1,1.6-0.1v-0.2c0-0.4-0.2-0.7-0.5-0.9s-0.7-0.3-1.1-0.3
	c-0.4,0-0.7,0.1-1,0.2c-0.3,0.1-0.6,0.3-0.8,0.5l-0.9-1c0.4-0.4,0.8-0.6,1.3-0.8s1-0.3,1.5-0.3c0.6,0,1.1,0.1,1.5,0.3
	s0.7,0.4,0.9,0.7s0.4,0.6,0.5,0.9c0.1,0.3,0.1,0.7,0.1,1v4.1h-1.6v-0.9C58.4,41.4,58.6,41.4,58.6,41.4z M58.5,39.2h-0.4
	c-0.3,0-0.6,0-0.9,0c-0.3,0-0.6,0.1-0.8,0.2c-0.3,0.1-0.5,0.2-0.6,0.3c-0.2,0.1-0.3,0.3-0.3,0.6c0,0.2,0,0.3,0.1,0.4
	c0.1,0.1,0.2,0.2,0.3,0.3s0.2,0.1,0.4,0.1s0.3,0,0.4,0c0.6,0,1-0.2,1.3-0.5S58.4,39.9,58.5,39.2L58.5,39.2L58.5,39.2z M62.1,31.6
	h1.7v10.6h-1.7V31.6z M65.9,31.6h1.7v10.6h-1.7V31.6z M73.2,32.3h3.2c0.6,0,1.1,0.1,1.5,0.2c0.5,0.1,0.8,0.3,1.2,0.5
	c0.3,0.2,0.6,0.5,0.8,0.9c0.2,0.4,0.3,0.8,0.3,1.3c0,0.6-0.1,1-0.3,1.4c-0.2,0.4-0.5,0.7-0.8,0.9s-0.8,0.4-1.2,0.5
	c-0.5,0.1-1,0.2-1.5,0.2H75v4.1h-1.8C73.2,42.3,73.2,32.3,73.2,32.3z M76.2,36.6c0.3,0,0.6,0,0.8-0.1c0.3,0,0.5-0.1,0.7-0.2
	c0.2-0.1,0.4-0.3,0.5-0.4c0.1-0.2,0.2-0.4,0.2-0.7s-0.1-0.5-0.2-0.7s-0.3-0.3-0.5-0.4c-0.2-0.1-0.4-0.2-0.7-0.2
	c-0.3,0-0.5-0.1-0.8-0.1h-1.3v2.8C74.9,36.6,76.2,36.6,76.2,36.6z M85,41.4L85,41.4c-0.2,0.3-0.5,0.5-0.9,0.7s-0.8,0.3-1.3,0.3
	c-0.3,0-0.6,0-0.9-0.1s-0.6-0.2-0.8-0.3c-0.2-0.2-0.4-0.4-0.6-0.6c-0.2-0.3-0.2-0.6-0.2-1c0-0.5,0.1-0.9,0.4-1.2s0.7-0.5,1.1-0.7
	s0.9-0.3,1.5-0.3c0.6-0.1,1.1-0.1,1.6-0.1v-0.2c0-0.4-0.2-0.7-0.5-0.9s-0.7-0.3-1.1-0.3s-0.7,0.1-1,0.2c-0.3,0.1-0.6,0.3-0.8,0.5
	l-0.9-1c0.4-0.4,0.8-0.6,1.3-0.8s1-0.3,1.5-0.3c0.6,0,1.1,0.1,1.5,0.3s0.7,0.4,0.9,0.7c0.2,0.3,0.4,0.6,0.5,0.9
	c0.1,0.3,0.1,0.7,0.1,1v4.1H85V41.4z M85,39.2h-0.4c-0.3,0-0.6,0-0.9,0s-0.6,0.1-0.8,0.2c-0.3,0.1-0.5,0.2-0.6,0.3
	C82.1,39.8,82,40,82,40.3c0,0.2,0,0.3,0.1,0.4c0.1,0.1,0.2,0.2,0.3,0.3s0.2,0.1,0.4,0.1s0.3,0,0.4,0c0.6,0,1-0.2,1.3-0.5
	S84.9,39.9,85,39.2L85,39.2L85,39.2z M88.5,35.5h1.6v1.1l0,0c0.2-0.4,0.4-0.7,0.8-1c0.3-0.2,0.7-0.4,1.2-0.4c0.1,0,0.1,0,0.2,0
	s0.1,0,0.2,0v1.5c-0.1,0-0.2,0-0.3-0.1c-0.1,0-0.1,0-0.2,0c-0.4,0-0.7,0.1-0.9,0.2c-0.2,0.1-0.4,0.3-0.5,0.5s-0.2,0.4-0.3,0.6
	s-0.1,0.4-0.1,0.5V42h-1.7C88.5,42,88.5,35.5,88.5,35.5z M98,37.4c-0.1-0.2-0.3-0.3-0.6-0.5c-0.3-0.1-0.5-0.2-0.8-0.2
	s-0.6,0.1-0.8,0.2c-0.2,0.1-0.4,0.3-0.6,0.5c-0.1,0.2-0.3,0.4-0.3,0.7c-0.1,0.3-0.1,0.5-0.1,0.8s0,0.5,0.1,0.8s0.2,0.5,0.4,0.7
	c0.2,0.2,0.4,0.4,0.6,0.5s0.5,0.2,0.8,0.2s0.5-0.1,0.8-0.2c0.3-0.1,0.5-0.3,0.6-0.4l1,1.1c-0.3,0.3-0.6,0.5-1.1,0.7
	c-0.4,0.2-0.9,0.2-1.4,0.2s-1-0.1-1.4-0.2c-0.4-0.2-0.8-0.4-1.2-0.7c-0.3-0.3-0.6-0.7-0.8-1.1c-0.2-0.4-0.3-0.9-0.3-1.5
	c0-0.5,0.1-1,0.3-1.5c0.2-0.4,0.5-0.8,0.8-1.1s0.7-0.5,1.1-0.7s0.9-0.3,1.4-0.3s1,0.1,1.4,0.3c0.5,0.2,0.8,0.4,1.1,0.8L98,37.4z
	 M105,38.2c0-0.2,0-0.4-0.1-0.6c-0.1-0.2-0.1-0.4-0.3-0.5c-0.1-0.1-0.3-0.3-0.5-0.4c-0.2-0.1-0.4-0.1-0.7-0.1
	c-0.5,0-0.9,0.2-1.3,0.5c-0.3,0.3-0.5,0.7-0.6,1.2h3.5V38.2z M106.6,39c0,0.1,0,0.1,0,0.2s0,0.1,0,0.2h-5.1c0,0.2,0.1,0.5,0.2,0.7
	s0.3,0.4,0.4,0.5c0.2,0.1,0.4,0.3,0.6,0.3s0.5,0.1,0.7,0.1c0.4,0,0.8-0.1,1.1-0.2c0.3-0.2,0.5-0.4,0.7-0.6l1.1,0.9
	c-0.7,0.9-1.6,1.3-2.9,1.3c-0.5,0-1-0.1-1.4-0.2c-0.4-0.2-0.8-0.4-1.1-0.7c-0.3-0.3-0.6-0.7-0.8-1.1c-0.2-0.4-0.3-0.9-0.3-1.5
	c0-0.5,0.1-1,0.3-1.5c0.2-0.4,0.4-0.8,0.8-1.1c0.3-0.3,0.7-0.6,1.1-0.7c0.4-0.2,0.9-0.3,1.4-0.3s0.9,0.1,1.3,0.2
	c0.4,0.1,0.7,0.4,1,0.7s0.5,0.7,0.7,1.1C106.6,37.8,106.6,38.4,106.6,39z M108.3,31.6h1.7v10.6h-1.7V31.6z"/>
</svg>
