<?xml version="1.0" encoding="utf-8"?>
<!-- Generator: Adobe Illustrator 21.0.0, SVG Export Plug-In . SVG Version: 6.00 Build 0)  -->
<svg version="1.1" id="图层_1" xmlns="http://www.w3.org/2000/svg" xmlns:xlink="http://www.w3.org/1999/xlink" x="0px" y="0px"
	 viewBox="0 0 110 94" style="enable-background:new 0 0 110 94;" xml:space="preserve">
<style type="text/css">
	.st0{fill:#FFFFFF;}
</style>
<path class="st0" d="M102.5,38.6c0.7,0,1.2,0.6,1.2,1.2v32.8c0,0.7-0.6,1.2-1.2,1.2H31.2c-0.7,0-1.2-0.6-1.2-1.2V39.8
	c0-0.7,0.6-1.2,1.2-1.2H102.5z M102.5,37.5H31.2c-1.4,0-2.4,1-2.4,2.4v32.8c0,1.4,1,2.4,2.4,2.4h71.3c1.4,0,2.4-1,2.4-2.4V39.8
	C104.9,38.6,103.8,37.5,102.5,37.5z"/>
<path class="st0" d="M66.9,13.6l0.5-0.9l-0.5-0.3l-0.5,0.3L66.9,13.6z M66.9,7.7h-1v1h1V7.7z M101.1,33L67.4,12.7l-1,1.7l33.7,20.3
	L101.1,33z M66.4,12.7L32.6,33l1,1.7l33.7-20.3L66.4,12.7z M65.9,3.6v4.1h2V3.6H65.9z M66.9,8.7c2.9,0,5.1,2.2,5.1,4.9h2
	c0-3.9-3.2-6.9-7.1-6.9V8.7z M72,13.6c0,2.7-2.2,4.9-5.1,4.9v2c3.9,0,7.1-3,7.1-6.9H72z M66.9,18.5c-2.9,0-5.1-2.2-5.1-4.9h-2
	c0,3.9,3.2,6.9,7.1,6.9V18.5z"/>
<path class="st0" d="M71.8,4.1h-10c-0.7,0-1.1-0.5-1.1-1.1V2c0-0.7,0.5-1.1,1.1-1.1h10.1C72.6,0.9,73,1.4,73,2v1
	C73,3.5,72.5,4.1,71.8,4.1z"/>
<path class="st0" d="M40.4,51.4h3.5c0.6,0,1.3,0.1,1.9,0.3c0.7,0.2,1.2,0.4,1.8,0.8c0.5,0.4,0.9,0.9,1.3,1.5
	c0.3,0.6,0.5,1.4,0.5,2.3c0,0.9-0.2,1.6-0.5,2.2c-0.3,0.6-0.8,1.1-1.3,1.5s-1.1,0.7-1.8,0.9s-1.3,0.3-1.9,0.3h-3.5V51.4z M43.7,59.7
	c0.5,0,0.9-0.1,1.4-0.2c0.5-0.1,0.9-0.3,1.2-0.5c0.4-0.3,0.7-0.6,0.9-1s0.4-1,0.4-1.7s-0.1-1.3-0.4-1.7c-0.2-0.4-0.5-0.8-0.9-1
	c-0.4-0.3-0.8-0.4-1.2-0.5C44.6,53,44.2,53,43.7,53h-1.5v6.9h1.5V59.7z M51,54.6h1.6v1.1l0,0c0.2-0.4,0.4-0.7,0.8-1
	c0.3-0.2,0.7-0.4,1.2-0.4c0.1,0,0.1,0,0.2,0c0.1,0,0.1,0,0.2,0V56c-0.1,0-0.2,0-0.3-0.1c-0.1,0-0.1,0-0.2,0c-0.4,0-0.7,0.1-0.9,0.2
	c-0.2,0.1-0.4,0.3-0.5,0.5s-0.2,0.4-0.3,0.6c0,0.2-0.1,0.4-0.1,0.5v3.6H51V54.6z M60.1,60.4L60.1,60.4c-0.2,0.3-0.5,0.5-0.9,0.7
	s-0.8,0.3-1.3,0.3c-0.3,0-0.6,0-0.9-0.1c-0.3-0.1-0.6-0.2-0.8-0.3c-0.2-0.2-0.4-0.4-0.6-0.6c-0.2-0.3-0.2-0.6-0.2-1
	c0-0.5,0.1-0.9,0.4-1.2c0.3-0.3,0.7-0.5,1.1-0.7c0.4-0.2,0.9-0.3,1.5-0.3c0.6-0.1,1.1-0.1,1.6-0.1v-0.2c0-0.4-0.2-0.7-0.5-0.9
	s-0.7-0.3-1.1-0.3c-0.4,0-0.7,0.1-1,0.2c-0.3,0.1-0.6,0.3-0.8,0.5l-0.9-1c0.4-0.4,0.8-0.6,1.3-0.8s1-0.3,1.5-0.3
	c0.6,0,1.1,0.1,1.5,0.3s0.7,0.4,0.9,0.7s0.4,0.6,0.5,0.9c0.1,0.3,0.1,0.7,0.1,1v4.1h-1.6v-0.9C59.9,60.4,60.1,60.4,60.1,60.4z
	 M60.1,58.2h-0.4c-0.3,0-0.6,0-0.9,0c-0.3,0-0.6,0.1-0.8,0.2c-0.3,0.1-0.5,0.2-0.6,0.3c-0.2,0.1-0.3,0.3-0.3,0.6
	c0,0.2,0,0.3,0.1,0.4c0.1,0.1,0.2,0.2,0.3,0.3s0.2,0.1,0.4,0.1c0.1,0,0.3,0,0.4,0c0.6,0,1-0.2,1.3-0.5S60,58.9,60.1,58.2L60.1,58.2
	L60.1,58.2z M62.6,54.6h1.9l1.9,4.9l0,0l1.7-4.9h1.8l-3.2,8.2c-0.1,0.3-0.3,0.6-0.4,0.8S66,64,65.8,64.2s-0.4,0.3-0.7,0.4
	c-0.3,0.1-0.6,0.1-1,0.1c-0.1,0-0.3,0-0.4,0c-0.1,0-0.3,0-0.4-0.1l0.1-1.5c0.1,0,0.2,0.1,0.3,0.1s0.2,0,0.3,0c0.2,0,0.3,0,0.4-0.1
	c0.1,0,0.2-0.1,0.3-0.2c0.1-0.1,0.2-0.2,0.2-0.3c0.1-0.1,0.1-0.3,0.2-0.5l0.3-0.9L62.6,54.6z M75,60.4L75,60.4
	c-0.2,0.3-0.5,0.5-0.9,0.7s-0.8,0.3-1.3,0.3c-0.3,0-0.6,0-0.9-0.1s-0.6-0.2-0.8-0.3c-0.2-0.2-0.4-0.4-0.6-0.6
	c-0.2-0.3-0.2-0.6-0.2-1c0-0.5,0.1-0.9,0.4-1.2s0.7-0.5,1.1-0.7s0.9-0.3,1.5-0.3c0.6-0.1,1.1-0.1,1.6-0.1v-0.2
	c0-0.4-0.2-0.7-0.5-0.9s-0.7-0.3-1.1-0.3s-0.7,0.1-1,0.2c-0.3,0.1-0.6,0.3-0.8,0.5l-0.9-1c0.4-0.4,0.8-0.6,1.3-0.8s1-0.3,1.5-0.3
	c0.6,0,1.1,0.1,1.5,0.3s0.7,0.4,0.9,0.7c0.2,0.3,0.4,0.6,0.5,0.9c0.1,0.3,0.1,0.7,0.1,1v4.1H75V60.4z M75,58.2h-0.4
	c-0.3,0-0.6,0-0.9,0s-0.6,0.1-0.8,0.2c-0.3,0.1-0.5,0.2-0.6,0.3C72.1,58.8,72,59,72,59.3c0,0.2,0,0.3,0.1,0.4
	c0.1,0.1,0.2,0.2,0.3,0.3c0.1,0.1,0.2,0.1,0.4,0.1s0.3,0,0.4,0c0.6,0,1-0.2,1.3-0.5S75,59,75,58.5V58.2z M85.4,54.6v6.1
	c0,0.6-0.1,1.2-0.2,1.6c-0.1,0.5-0.4,0.9-0.7,1.2c-0.3,0.3-0.7,0.6-1.2,0.8s-1,0.3-1.7,0.3c-0.3,0-0.6,0-0.9-0.1
	c-0.3,0-0.6-0.1-0.9-0.2S79.2,64.1,79,64c-0.3-0.1-0.5-0.3-0.7-0.5l1-1.3c0.3,0.3,0.7,0.5,1.1,0.7s0.8,0.3,1.2,0.3
	c0.4,0,0.7-0.1,1-0.2c0.3-0.1,0.5-0.3,0.7-0.5s0.3-0.4,0.4-0.7s0.1-0.6,0.1-0.9v-0.5l0,0c-0.2,0.3-0.6,0.6-0.9,0.8
	c-0.4,0.2-0.8,0.3-1.3,0.3s-1-0.1-1.4-0.3s-0.8-0.4-1.1-0.8c-0.3-0.3-0.5-0.7-0.7-1.1c-0.2-0.4-0.2-0.9-0.2-1.4s0.1-0.9,0.2-1.4
	c0.2-0.4,0.4-0.8,0.7-1.1c0.3-0.3,0.6-0.6,1-0.8s0.9-0.3,1.4-0.3s0.9,0.1,1.3,0.3s0.7,0.5,1,0.9l0,0v-1L85.4,54.6L85.4,54.6z
	 M81.8,55.7c-0.3,0-0.6,0.1-0.8,0.2c-0.2,0.1-0.4,0.3-0.6,0.5s-0.3,0.4-0.4,0.7s-0.1,0.5-0.1,0.8s0,0.5,0.1,0.8s0.2,0.5,0.4,0.7
	c0.2,0.2,0.4,0.4,0.6,0.5s0.5,0.2,0.8,0.2s0.6-0.1,0.8-0.2c0.3-0.1,0.5-0.3,0.6-0.5c0.2-0.2,0.3-0.4,0.4-0.7s0.1-0.5,0.1-0.8
	s0-0.6-0.1-0.8c-0.1-0.3-0.2-0.5-0.4-0.7c-0.2-0.2-0.4-0.3-0.6-0.5C82.4,55.8,82.1,55.7,81.8,55.7z M92.1,57.3c0-0.2,0-0.4-0.1-0.6
	c-0.1-0.2-0.1-0.4-0.3-0.5c-0.1-0.1-0.3-0.3-0.5-0.3c-0.2-0.1-0.4-0.1-0.7-0.1c-0.5,0-0.9,0.2-1.3,0.5c-0.3,0.3-0.5,0.7-0.6,1.2h3.5
	V57.3z M93.8,58c0,0.1,0,0.1,0,0.2c0,0.1,0,0.1,0,0.2h-5.1c0,0.2,0.1,0.5,0.2,0.7s0.3,0.4,0.4,0.5c0.2,0.1,0.4,0.3,0.6,0.3
	c0.2,0.1,0.5,0.1,0.7,0.1c0.4,0,0.8-0.1,1.1-0.2c0.3-0.2,0.5-0.4,0.7-0.6l1.1,0.9c-0.7,0.9-1.6,1.3-2.9,1.3c-0.5,0-1-0.1-1.4-0.2
	c-0.4-0.2-0.8-0.4-1.1-0.7c-0.3-0.3-0.6-0.7-0.8-1.1C87.1,59,87,58.5,87,58s0.1-1,0.3-1.5c0.2-0.4,0.4-0.8,0.8-1.1
	c0.3-0.3,0.7-0.6,1.1-0.7c0.4-0.2,0.9-0.3,1.4-0.3s0.9,0.1,1.3,0.2c0.4,0.1,0.7,0.4,1,0.7s0.5,0.7,0.7,1.1
	C93.7,56.9,93.8,57.4,93.8,58z"/>
</svg>
