<?xml version="1.0" encoding="utf-8"?>
<!-- Generator: Adobe Illustrator 24.0.0, SVG Export Plug-In . SVG Version: 6.00 Build 0)  -->
<svg version="1.1" id="图层_1" xmlns="http://www.w3.org/2000/svg" xmlns:xlink="http://www.w3.org/1999/xlink" x="0px" y="0px"
	 viewBox="0 0 116 52" style="enable-background:new 0 0 116 52;" xml:space="preserve">
<style type="text/css">
	.st0{fill:#D4E1EE;}
	.st1{fill:#4C5263;}
</style>
<path class="st0" d="M23.1,27.1c3.9,0,7-3.1,7-6.8s-3.2-6.8-7-6.8c-3.9,0-7,3.1-7,6.8S19.2,27.1,23.1,27.1z"/>
<path class="st0" d="M10.7,41.5c0,0,2.8-10.7,12.1-10.7S34,41.5,34,41.5H10.7z"/>
<path class="st1" d="M5.9,38.9C5.7,39.4,6,40,6.5,40.2s1.1-0.1,1.3-0.6L5.9,38.9z M32.2,39.4c0.1,0.5,0.7,0.9,1.2,0.8
	c0.5-0.1,0.9-0.7,0.8-1.2L32.2,39.4z M26.5,18.8c0,3.5-2.8,6.3-6.3,6.3v2c4.6,0,8.3-3.7,8.3-8.3H26.5z M20.3,25.1
	c-3.5,0-6.3-2.8-6.3-6.3h-2c0,4.6,3.7,8.3,8.3,8.3V25.1z M14,18.8c0-3.5,2.8-6.3,6.3-6.3v-2c-4.6,0-8.3,3.7-8.3,8.3H14z M20.3,12.5
	c3.5,0,6.3,2.8,6.3,6.3h2c0-4.6-3.7-8.3-8.3-8.3V12.5z M6.9,39.2c0.9,0.3,0.9,0.3,0.9,0.3l0,0l0,0l0,0l0,0c0,0,0,0,0-0.1
	s0.1-0.1,0.1-0.3c0.1-0.2,0.2-0.6,0.5-1c0.4-0.8,1.1-1.9,2.1-3c2-2.2,5.1-4.4,10-4.4v-2c-5.6,0-9.3,2.5-11.5,5
	c-1.1,1.2-1.9,2.5-2.4,3.4c-0.2,0.5-0.4,0.9-0.5,1.1C6,38.6,6,38.7,6,38.7v0.1l0,0l0,0l0,0l0,0C5.9,38.9,5.9,38.9,6.9,39.2z
	 M20.5,30.8c4.9,0,7.8,2.2,9.5,4.3c0.8,1.1,1.4,2.2,1.7,3c0.2,0.4,0.3,0.7,0.3,1c0,0.1,0.1,0.2,0.1,0.3c0,0,0,0,0,0.1l0,0l0,0l0,0
	l0,0c0,0,0,0,1-0.2s1-0.2,1-0.2l0,0l0,0l0,0l0,0V39c0-0.1-0.1-0.2-0.1-0.3c-0.1-0.3-0.2-0.7-0.4-1.2c-0.4-0.9-1-2.2-2-3.5
	c-2-2.6-5.4-5.1-11-5.1L20.5,30.8L20.5,30.8z"/>
</svg>
