<?xml version="1.0" encoding="utf-8"?>
<!-- Generator: Adobe Illustrator 21.0.0, SVG Export Plug-In . SVG Version: 6.00 Build 0)  -->
<svg version="1.1" id="图层_1" xmlns="http://www.w3.org/2000/svg" xmlns:xlink="http://www.w3.org/1999/xlink" x="0px" y="0px"
	 viewBox="0 0 23.6 21.5" style="enable-background:new 0 0 23.6 21.5;" xml:space="preserve">
<style type="text/css">
	.st0{fill:#FCFCFC;}
</style>
<g>
	<path class="st0" d="M19.4,20.5H3.8c-0.3,0-0.5-0.2-0.5-0.5v-8.9c0-0.3,0.2-0.5,0.5-0.5s0.5,0.2,0.5,0.5v8.4h14.5v-8.4
		c0-0.3,0.2-0.5,0.5-0.5s0.5,0.2,0.5,0.5V20C19.9,20.3,19.7,20.5,19.4,20.5z"/>
</g>
<g>
	<path class="st0" d="M23.1,9c-0.1,0-0.2,0-0.3-0.1l-11-7.8l-11,7.8C0.6,9.1,0.2,9.1,0.1,8.8c-0.2-0.2-0.1-0.6,0.1-0.7l11.3-8
		c0.2-0.1,0.4-0.1,0.6,0l11.3,8c0.2,0.2,0.3,0.5,0.1,0.7C23.4,9,23.3,9,23.1,9z"/>
</g>
<g>
	<path class="st0" d="M6,9.6h11.3c0.2,0,0.4,0.2,0.4,0.4l0,0c0,0.2-0.2,0.4-0.4,0.4H6c-0.2,0-0.4-0.2-0.4-0.4l0,0
		C5.6,9.8,5.7,9.6,6,9.6z"/>
</g>
<g>
	<path class="st0" d="M10.1,7.4H13c0.2,0,0.4,0.2,0.4,0.4l0,0c0,0.2-0.2,0.4-0.4,0.4h-2.9C9.9,8.2,9.7,8,9.7,7.8l0,0
		C9.7,7.6,9.9,7.4,10.1,7.4z"/>
</g>
<g>
	<path class="st0" d="M10.1,4.6H13c0.2,0,0.4,0.2,0.4,0.4l0,0c0,0.2-0.2,0.4-0.4,0.4h-2.9C9.9,5.4,9.7,5.2,9.7,5l0,0
		C9.7,4.7,9.9,4.6,10.1,4.6z"/>
</g>
<g>
	<path class="st0" d="M11.8,16.5L11.8,16.5C11.8,16.4,11.9,16.4,11.8,16.5l1.4-0.1l0,0v1c0,0.1,0.1,0.2,0.2,0.2h0.2
		c0.1,0,0.2-0.1,0.2-0.2v-1l0,0h1.3c0,0,0,0,0.1,0l0,0v3.1l0,0c0,0,0,0-0.1,0h-3.4c0,0,0,0-0.1,0l0,0v-3H11.8z M11.9,16
		c-0.3,0-0.5,0.2-0.5,0.5v3.1c0,0.3,0.2,0.5,0.5,0.5h3.4c0.2,0,0.5-0.2,0.5-0.5v-3.1c0-0.3-0.2-0.5-0.5-0.5H11.9z"/>
</g>
<g>
	<path class="st0" d="M9.8,12.8C9.8,12.8,9.8,12.7,9.8,12.8C9.9,12.7,9.9,12.7,9.8,12.8l1.4-0.1l0,0v1c0,0.1,0.1,0.2,0.2,0.2h0.2
		c0.1,0,0.2-0.1,0.2-0.2v-1l0,0h1.3c0,0,0,0,0.1,0l0,0v3.1l0,0c0,0,0,0-0.1,0H9.9c0,0,0,0-0.1,0l0,0C9.8,15.8,9.8,12.8,9.8,12.8z
		 M9.9,12.3c-0.3,0-0.5,0.2-0.5,0.5v3.1c0,0.3,0.2,0.5,0.5,0.5h3.4c0.2,0,0.5-0.2,0.5-0.5v-3.1c0-0.3-0.3-0.5-0.5-0.5
		C13.3,12.3,9.9,12.3,9.9,12.3z"/>
</g>
<g>
	<path class="st0" d="M7.8,16.5C7.8,16.5,7.8,16.4,7.8,16.5C7.9,16.4,7.9,16.4,7.8,16.5l1.4-0.1l0,0v0.9c0,0.1,0.1,0.2,0.2,0.2h0.2
		c0.1,0,0.2-0.1,0.2-0.2v-0.9l0,0h1.3c0,0,0,0,0.1,0l0,0v3l0,0c0,0,0,0-0.1,0H7.9H7.8l0,0V16.5z M7.9,16c-0.3,0-0.5,0.2-0.5,0.5v3
		c0,0.3,0.3,0.5,0.5,0.5h3.4c0.2,0,0.5-0.2,0.5-0.5v-3c0-0.3-0.3-0.5-0.5-0.5H7.9z"/>
</g>
</svg>
