<?xml version="1.0" encoding="utf-8"?>
<!-- Generator: Adobe Illustrator 24.0.0, SVG Export Plug-In . SVG Version: 6.00 Build 0)  -->
<svg version="1.1" id="图层_1" xmlns="http://www.w3.org/2000/svg" xmlns:xlink="http://www.w3.org/1999/xlink" x="0px" y="0px"
	 viewBox="0 0 116 52" style="enable-background:new 0 0 116 52;" xml:space="preserve">
<style type="text/css">
	.st0{fill:#D5E9FA;}
	.st1{fill:#2C3C59;}
</style>
<path class="st0" d="M38.7,20.2v17.6l-14.2,6l-13-6.3l-0.1-17.3l13.1-5.9L38.7,20.2z"/>
<path class="st1" d="M24.5,40.4c-0.1,0-0.2,0-0.3-0.1L8.9,33.9c-0.2-0.1-0.3-0.2-0.4-0.3c-0.1-0.1-0.1-0.3-0.1-0.5V16.4
	c0-0.2,0-0.3,0.1-0.5s0.2-0.2,0.4-0.3l15.2-6.3c0.2-0.1,0.4-0.1,0.6,0l16.3,6.3c0.2,0.1,0.3,0.2,0.4,0.3c0.1,0.1,0.1,0.3,0.1,0.5
	v16.8c0,0.2,0,0.3-0.1,0.5c-0.1,0.1-0.2,0.2-0.4,0.3l-16.3,6.4C24.7,40.4,24.6,40.4,24.5,40.4z M10.1,32.6l14.4,6L40,32.6V17
	l-15.5-6l-14.4,6V32.6z"/>
<path class="st1" d="M33.2,26.6c-0.2,0-0.4-0.1-0.6-0.2c-0.2-0.2-0.2-0.4-0.2-0.6v-5.7L16.6,14c-0.1,0-0.2-0.1-0.3-0.2
	c-0.1-0.1-0.1-0.2-0.2-0.3c0-0.1-0.1-0.2-0.1-0.3c0-0.1,0-0.2,0.1-0.3c0-0.1,0.1-0.2,0.2-0.3c0.1-0.1,0.2-0.1,0.3-0.2
	c0.1,0,0.2-0.1,0.3-0.1c0.1,0,0.2,0,0.3,0.1l16.3,6.3c0.2,0.1,0.3,0.2,0.4,0.3s0.1,0.3,0.1,0.5v6.3c0,0.2-0.1,0.4-0.2,0.6
	C33.6,26.5,33.4,26.6,33.2,26.6z"/>
<path class="st1" d="M24.5,40.4c-0.2,0-0.4-0.1-0.6-0.2c-0.2-0.2-0.2-0.4-0.2-0.6V23.3L8.9,17.1c-0.2-0.1-0.4-0.2-0.4-0.4
	c-0.1-0.2-0.1-0.4,0-0.6c0.1-0.2,0.2-0.4,0.4-0.4c0.2-0.1,0.4-0.1,0.6,0l14.9,6.2l16-6.2c0.2-0.1,0.4-0.1,0.6,0
	c0.2,0.1,0.4,0.3,0.4,0.5c0.1,0.2,0.1,0.4,0,0.6c-0.1,0.2-0.3,0.4-0.5,0.4l-15.8,6.1v16.3c0,0.1,0,0.2-0.1,0.3
	c0,0.1-0.1,0.2-0.2,0.3c-0.1,0.1-0.2,0.1-0.3,0.2C24.7,40.4,24.6,40.4,24.5,40.4z"/>
</svg>
