<?xml version="1.0" encoding="utf-8"?>
<!-- Generator: Adobe Illustrator 24.0.0, SVG Export Plug-In . SVG Version: 6.00 Build 0)  -->
<svg version="1.1" id="图层_1" xmlns="http://www.w3.org/2000/svg" xmlns:xlink="http://www.w3.org/1999/xlink" x="0px" y="0px"
	 viewBox="0 0 116 52" style="enable-background:new 0 0 116 52;" xml:space="preserve">
<style type="text/css">
	.st0{fill:#D5E9FA;}
	.st1{fill:#2C3C59;}
</style>
<path class="st0" d="M30.7,12.6L16.6,22.8V41h29.7V22.8L30.7,12.6z"/>
<path class="st1" d="M42.1,38.9h-25c-0.2,0-0.4-0.1-0.5-0.2c-0.1-0.1-0.2-0.3-0.2-0.5V23.1c0-0.2,0.1-0.4,0.2-0.5
	c0.1-0.1,0.3-0.2,0.5-0.2s0.4,0.1,0.5,0.2s0.2,0.3,0.2,0.5v14.5h23.6V23.1c0-0.2,0.1-0.4,0.2-0.5c0.1-0.1,0.3-0.2,0.5-0.2
	s0.4,0.1,0.5,0.2s0.2,0.3,0.2,0.5v15.2c0,0.2-0.1,0.4-0.2,0.5C42.5,38.8,42.3,38.9,42.1,38.9z"/>
<path class="st1" d="M47.8,22.3c-0.1,0-0.3,0-0.4-0.1L29.6,10L11.8,22.2c-0.2,0.1-0.3,0.1-0.5,0.1S11,22.2,10.9,22
	c-0.1-0.1-0.1-0.3-0.1-0.5s0.1-0.3,0.3-0.4L29.2,8.6c0.1-0.1,0.3-0.1,0.4-0.1s0.3,0,0.4,0.1l18.2,12.5c0.1,0.1,0.2,0.2,0.3,0.3
	c0,0.1,0.1,0.3,0,0.4c0,0.1-0.1,0.3-0.3,0.4C48.1,22.3,48,22.3,47.8,22.3z"/>
<path class="st1" d="M39.2,21.7H20.1c-0.2,0-0.4-0.1-0.5-0.2s-0.2-0.3-0.2-0.5s0.1-0.4,0.2-0.5s0.3-0.2,0.5-0.2h19.1
	c0.2,0,0.4,0.1,0.5,0.2s0.2,0.3,0.2,0.5s-0.1,0.4-0.2,0.5C39.5,21.7,39.4,21.7,39.2,21.7z"/>
<path class="st1" d="M31.7,18.5H27c-0.2,0-0.4-0.1-0.5-0.2s-0.2-0.3-0.2-0.5s0.1-0.4,0.2-0.5s0.3-0.2,0.5-0.2h4.6
	c0.2,0,0.4,0.1,0.5,0.2c0.1,0.1,0.2,0.3,0.2,0.5s-0.1,0.4-0.2,0.5C32,18.5,31.8,18.5,31.7,18.5z"/>
<path class="st1" d="M31.7,16.2H27c-0.2,0-0.4-0.1-0.5-0.2s-0.2-0.3-0.2-0.5s0.1-0.4,0.2-0.5s0.3-0.2,0.5-0.2h4.6
	c0.2,0,0.4,0.1,0.5,0.2c0.1,0.1,0.2,0.3,0.2,0.5s-0.1,0.4-0.2,0.5C32,16.1,31.8,16.2,31.7,16.2z"/>
<path class="st1" d="M28.3,38.9h-5.8c-0.2,0-0.4-0.1-0.5-0.2c-0.1-0.1-0.2-0.3-0.2-0.5v-5.8c0-0.2,0.1-0.4,0.2-0.5
	c0.1-0.1,0.3-0.2,0.5-0.2h5.8c0.2,0,0.4,0.1,0.5,0.2c0.1,0.1,0.2,0.3,0.2,0.5v5.8c0,0.2-0.1,0.4-0.2,0.5
	C28.6,38.8,28.4,38.9,28.3,38.9z M23.2,37.5h4.4v-4.4h-4.4V37.5z"/>
<path class="st1" d="M25.4,35.4c-0.2,0-0.4-0.1-0.5-0.2c-0.1-0.1-0.2-0.3-0.2-0.5v-2.3c0-0.2,0.1-0.4,0.2-0.5
	c0.1-0.1,0.3-0.2,0.5-0.2s0.4,0.1,0.5,0.2c0.1,0.1,0.2,0.3,0.2,0.5v2.3c0,0.2-0.1,0.4-0.2,0.5C25.7,35.3,25.6,35.4,25.4,35.4z"/>
<path class="st1" d="M36.6,38.9h-5.8c-0.2,0-0.4-0.1-0.5-0.2c-0.1-0.1-0.2-0.3-0.2-0.5v-5.8c0-0.2,0.1-0.4,0.2-0.5
	c0.1-0.1,0.3-0.2,0.5-0.2h5.8c0.2,0,0.4,0.1,0.5,0.2c0.1,0.1,0.2,0.3,0.2,0.5v5.8c0,0.2-0.1,0.4-0.2,0.5S36.8,38.9,36.6,38.9z
	 M31.5,37.5h4.4v-4.4h-4.4V37.5z"/>
<path class="st1" d="M33.7,35.4c-0.2,0-0.4-0.1-0.5-0.2C33.1,35,33,34.8,33,34.7v-2.3c0-0.2,0.1-0.4,0.2-0.5
	c0.1-0.1,0.3-0.2,0.5-0.2s0.4,0.1,0.5,0.2c0.1,0.1,0.2,0.3,0.2,0.5v2.3c0,0.2-0.1,0.4-0.2,0.5S33.9,35.4,33.7,35.4z"/>
<path class="st1" d="M26.8,33c-0.2,0-0.4-0.1-0.5-0.2c-0.1-0.1-0.2-0.3-0.2-0.5L26,26.5c0-0.1,0-0.2,0.1-0.3c0-0.1,0.1-0.2,0.1-0.2
	c0.1-0.1,0.1-0.1,0.2-0.2c0.1,0,0.2-0.1,0.3-0.1l5.8-0.1l0,0c0.2,0,0.4,0.1,0.5,0.2s0.2,0.3,0.2,0.5l0.1,5.8c0,0.1,0,0.2-0.1,0.3
	c0,0.1-0.1,0.2-0.1,0.2c-0.1,0.1-0.1,0.1-0.2,0.2c-0.1,0-0.2,0.1-0.3,0.1L26.8,33L26.8,33z M27.5,27.2v4.4h4.4v-4.4H27.5z"/>
<path class="st1" d="M29.7,29.5c-0.2,0-0.4-0.1-0.5-0.2C29.1,29.1,29,29,29,28.8v-2.3c0-0.1,0-0.2,0.1-0.3c0-0.1,0.1-0.2,0.1-0.2
	c0.1-0.1,0.1-0.1,0.2-0.2c0.1,0,0.2-0.1,0.3-0.1l0,0c0.2,0,0.4,0.1,0.5,0.2s0.2,0.3,0.2,0.5v2.3c0,0.2-0.1,0.4-0.2,0.5
	C30.1,29.4,29.9,29.5,29.7,29.5L29.7,29.5z"/>
</svg>
