<?xml version="1.0" encoding="utf-8"?>
<!-- Generator: Adobe Illustrator 24.0.0, SVG Export Plug-In . SVG Version: 6.00 Build 0)  -->
<svg version="1.1" id="图层_1" xmlns="http://www.w3.org/2000/svg" xmlns:xlink="http://www.w3.org/1999/xlink" x="0px" y="0px"
	 viewBox="0 0 116 52" style="enable-background:new 0 0 116 52;" xml:space="preserve">
<style type="text/css">
	.st0{fill:#D5E9FA;}
	.st1{fill:#2C3C59;}
	.st2{fill:#FFFFFF;}
</style>
<path class="st0" d="M13.3,39.1H5.6V24.4h28v14.6h-7.2H13.3z"/>
<path class="st1" d="M32.2,38.6H25c-0.2,0-0.3-0.1-0.5-0.2c-0.1-0.1-0.2-0.3-0.2-0.5c0-0.2,0.1-0.3,0.2-0.5c0.1-0.1,0.3-0.2,0.5-0.2
	h6.6V23.9H4.9v13.3h7c0.2,0,0.3,0.1,0.5,0.2c0.1,0.1,0.2,0.3,0.2,0.5c0,0.2-0.1,0.3-0.2,0.5c-0.1,0.1-0.3,0.2-0.5,0.2H4.2
	c-0.2,0-0.3-0.1-0.5-0.2c-0.1-0.1-0.2-0.3-0.2-0.5V23.3c0-0.2,0.1-0.3,0.2-0.5c0.1-0.1,0.3-0.2,0.5-0.2h28c0.2,0,0.3,0.1,0.5,0.2
	c0.1,0.1,0.2,0.3,0.2,0.5v14.6c0,0.2-0.1,0.3-0.2,0.5C32.6,38.5,32.4,38.6,32.2,38.6z"/>
<path class="st2" d="M25,31.3H11.9V41H25V31.3z"/>
<path class="st1" d="M24.8,24H11.6c-0.2,0-0.3-0.1-0.5-0.2C11,23.6,11,23.5,11,23.3v-9.7c0-0.2,0.1-0.3,0.2-0.5
	c0.1-0.1,0.3-0.2,0.5-0.2h11c0.1,0,0.2,0,0.3,0.1c0.1,0,0.2,0.1,0.2,0.1l2.1,2.1c0.1,0.1,0.2,0.3,0.2,0.5v7.6c0,0.1,0,0.2-0.1,0.3
	c0,0.1-0.1,0.2-0.1,0.2c-0.1,0.1-0.1,0.1-0.2,0.1C24.9,23.9,24.9,24,24.8,24z M12.3,22.6h11.8V16l-1.7-1.7H12.3V22.6z"/>
<path class="st1" d="M24.8,16.4h-2.1c-0.2,0-0.3-0.1-0.5-0.2C22,16,22,15.9,22,15.7v-2.1c0-0.1,0-0.3,0.1-0.4
	c0.1-0.1,0.2-0.2,0.3-0.2c0.1-0.1,0.3-0.1,0.4,0c0.1,0,0.2,0.1,0.3,0.2l2.1,2.1c0.1,0.1,0.2,0.2,0.2,0.3c0,0.1,0,0.3,0,0.4
	c-0.1,0.1-0.1,0.2-0.2,0.3C25,16.3,24.9,16.4,24.8,16.4z"/>
<path class="st1" d="M22.7,34.6H14c-0.2,0-0.3-0.1-0.5-0.2c-0.1-0.1-0.2-0.3-0.2-0.5s0.1-0.3,0.2-0.5c0.1-0.1,0.3-0.2,0.5-0.2h8.7
	c0.2,0,0.3,0.1,0.5,0.2c0.1,0.1,0.2,0.3,0.2,0.5s-0.1,0.3-0.2,0.5C23,34.5,22.9,34.6,22.7,34.6z"/>
<path class="st1" d="M32.3,26.3H4.2c-0.2,0-0.3-0.1-0.5-0.2c-0.1-0.1-0.2-0.3-0.2-0.5s0.1-0.3,0.2-0.5C3.9,25,4,24.9,4.2,24.9h28.1
	c0.2,0,0.3,0.1,0.5,0.2c0.1,0.1,0.2,0.3,0.2,0.5s-0.1,0.3-0.2,0.5C32.6,26.2,32.4,26.3,32.3,26.3z"/>
<path class="st1" d="M16.6,36.8h-2.7c-0.2,0-0.3-0.1-0.5-0.2c-0.1-0.1-0.2-0.3-0.2-0.5c0-0.2,0.1-0.3,0.2-0.5
	c0.1-0.1,0.3-0.2,0.5-0.2h2.7c0.2,0,0.3,0.1,0.5,0.2c0.1,0.1,0.2,0.3,0.2,0.5c0,0.2-0.1,0.3-0.2,0.5C16.9,36.8,16.7,36.8,16.6,36.8z
	"/>
<path class="st1" d="M25,41.5H11.9c-0.2,0-0.3-0.1-0.5-0.2c-0.1-0.1-0.2-0.3-0.2-0.5v-9.7c0-0.2,0.1-0.3,0.2-0.5
	c0.1-0.1,0.3-0.2,0.5-0.2H25c0.2,0,0.3,0.1,0.5,0.2c0.1,0.1,0.2,0.3,0.2,0.5v9.7c0,0.1,0,0.2-0.1,0.3c0,0.1-0.1,0.2-0.1,0.2
	c-0.1,0.1-0.1,0.1-0.2,0.1C25.2,41.5,25.1,41.5,25,41.5z M12.5,40.2h11.8v-8.4H12.5V40.2z"/>
</svg>
