<?xml version="1.0" encoding="utf-8"?>
<!-- Generator: Adobe Illustrator 24.0.0, SVG Export Plug-In . SVG Version: 6.00 Build 0)  -->
<svg version="1.1" id="图层_1" xmlns="http://www.w3.org/2000/svg" xmlns:xlink="http://www.w3.org/1999/xlink" x="0px" y="0px"
	 viewBox="0 0 116 52" style="enable-background:new 0 0 116 52;" xml:space="preserve">
<style type="text/css">
	.st0{fill:#D5E9FA;}
	.st1{fill:#2C3C59;}
</style>
<path class="st0" d="M40.4,29.2V37H29.6v0H9.3V19.4h20.3V23h5.8C37.1,25.1,38.7,27.2,40.4,29.2z"/>
<path class="st1" d="M29.4,36.5h-22c-0.2,0-0.3-0.1-0.4-0.2s-0.2-0.3-0.2-0.4V17.8c0-0.2,0.1-0.3,0.2-0.4c0.1-0.1,0.3-0.2,0.4-0.2
	h4.4c0.2,0,0.3,0.1,0.4,0.2c0.1,0.1,0.2,0.3,0.2,0.4s-0.1,0.3-0.2,0.4c-0.1,0.1-0.3,0.2-0.4,0.2H8v16.9h20.8V18.4H25
	c-0.2,0-0.3-0.1-0.4-0.2c-0.1-0.1-0.2-0.3-0.2-0.4s0.1-0.3,0.2-0.4c0.1-0.1,0.3-0.2,0.4-0.2h4.4c0.2,0,0.3,0.1,0.4,0.2
	c0.1,0.1,0.2,0.3,0.2,0.4v18.1c0,0.2-0.1,0.3-0.2,0.4C29.7,36.4,29.5,36.5,29.4,36.5z"/>
<path class="st1" d="M39.1,36.5H28.3c-0.2,0-0.3-0.1-0.4-0.2c-0.1-0.1-0.2-0.3-0.2-0.4c0-0.2,0.1-0.3,0.2-0.4
	c0.1-0.1,0.3-0.2,0.4-0.2h10.2v-7.2l-1.5-2.2c-0.9-1.3-1.7-2.5-2.6-3.8h-4.9c-0.2,0-0.3-0.1-0.4-0.2c-0.1-0.1-0.2-0.3-0.2-0.4
	c0-0.2,0.1-0.3,0.2-0.4c0.1-0.1,0.3-0.2,0.4-0.2h5.2c0.1,0,0.2,0,0.3,0.1c0.1,0,0.2,0.1,0.2,0.2c0.9,1.3,1.8,2.7,2.8,4
	c0.5,0.8,1.1,1.6,1.6,2.4c0.1,0.1,0.1,0.2,0.1,0.3v8c0,0.2-0.1,0.3-0.2,0.4C39.4,36.4,39.2,36.5,39.1,36.5z"/>
<path class="st1" d="M31.5,28.6c-0.2,0-0.3-0.1-0.4-0.2c-0.1-0.1-0.2-0.3-0.2-0.4l-0.1-3.8c0-0.1,0-0.2,0-0.2s0.1-0.1,0.1-0.2
	c0.1-0.1,0.1-0.1,0.2-0.1c0.1,0,0.1,0,0.2,0h2.4c0.1,0,0.2,0,0.3,0.1c0.1,0.1,0.2,0.1,0.2,0.2c0.5,0.8,0.9,1.6,1.4,2.4l0.8,1.4
	c0.1,0.1,0.1,0.2,0.1,0.3c0,0.1,0,0.2-0.1,0.3c-0.1,0.1-0.1,0.2-0.2,0.2c-0.1,0.1-0.2,0.1-0.3,0.1l-2.3,0L31.5,28.6L31.5,28.6z
	 M32.1,24.7l0,2.7l1.7,0h1.3l-0.3-0.6l-1.2-2.1L32.1,24.7z"/>
<path class="st1" d="M33.9,38.4c1.4,0,2.5-1.1,2.5-2.5c0-1.4-1.1-2.5-2.5-2.5c-1.4,0-2.5,1.1-2.5,2.5C31.5,37.2,32.6,38.4,33.9,38.4
	z"/>
<path class="st1" d="M12.4,38.4c1.4,0,2.5-1.1,2.5-2.5c0-1.4-1.1-2.5-2.5-2.5s-2.5,1.1-2.5,2.5C9.9,37.2,11,38.4,12.4,38.4z"/>
<path class="st0" d="M24.1,16.6v7.3l-5.9,2.5l-5.4-2.6l0-7.2l5.5-2.5L24.1,16.6z"/>
<path class="st1" d="M18.2,25.2c-0.1,0-0.2,0-0.2,0l-6.3-2.7c-0.1,0-0.2-0.1-0.3-0.2c-0.1-0.1-0.1-0.2-0.1-0.3v-7
	c0-0.1,0-0.2,0.1-0.3c0.1-0.1,0.2-0.2,0.3-0.2l6.3-2.6c0.1-0.1,0.3-0.1,0.4,0l6.8,2.6c0.1,0,0.2,0.1,0.3,0.2
	c0.1,0.1,0.1,0.2,0.1,0.3v7c0,0.1,0,0.2-0.1,0.3c-0.1,0.1-0.2,0.2-0.3,0.2l-6.8,2.7C18.3,25.2,18.2,25.2,18.2,25.2z M12.4,21.6
	l5.8,2.4l6.2-2.4v-6.2L18.2,13l-5.8,2.4L12.4,21.6z"/>
<path class="st1" d="M21.8,19.5c-0.2,0-0.3-0.1-0.4-0.2c-0.1-0.1-0.2-0.3-0.2-0.4v-2.2l-6.4-2.5c-0.1-0.1-0.3-0.2-0.3-0.3
	c-0.1-0.1-0.1-0.3,0-0.4c0.1-0.1,0.2-0.3,0.3-0.3c0.1-0.1,0.3-0.1,0.4,0l6.8,2.6c0.1,0,0.2,0.1,0.3,0.2c0.1,0.1,0.1,0.2,0.1,0.3v2.6
	c0,0.1,0,0.2,0,0.2c0,0.1-0.1,0.1-0.1,0.2c-0.1,0.1-0.1,0.1-0.2,0.1C21.9,19.5,21.9,19.5,21.8,19.5z"/>
<path class="st1" d="M18.2,25.2c-0.2,0-0.3-0.1-0.4-0.2c-0.1-0.1-0.2-0.3-0.2-0.4V18l-6-2.5c-0.1-0.1-0.2-0.2-0.3-0.3
	c-0.1-0.1-0.1-0.3,0-0.4c0.1-0.1,0.2-0.3,0.3-0.3c0.1-0.1,0.3-0.1,0.4,0l6.1,2.5l6.6-2.5c0.1,0,0.1,0,0.2,0c0.1,0,0.2,0,0.2,0
	c0.1,0,0.1,0.1,0.2,0.1c0.1,0.1,0.1,0.1,0.1,0.2c0,0.1,0,0.1,0,0.2c0,0.1,0,0.2,0,0.2c0,0.1-0.1,0.1-0.1,0.2
	c-0.1,0.1-0.1,0.1-0.2,0.1L18.7,18v6.6c0,0.2-0.1,0.3-0.2,0.4C18.5,25.2,18.3,25.2,18.2,25.2z"/>
</svg>
