<?xml version="1.0" encoding="utf-8"?>
<!-- Generator: Adobe Illustrator 24.0.0, SVG Export Plug-In . SVG Version: 6.00 Build 0)  -->
<svg version="1.1" id="图层_1" xmlns="http://www.w3.org/2000/svg" xmlns:xlink="http://www.w3.org/1999/xlink" x="0px" y="0px"
	 viewBox="0 0 116 52" style="enable-background:new 0 0 116 52;" xml:space="preserve">
<style type="text/css">
	.st0{fill:#D5E9FA;}
	.st1{fill:#2C3C59;}
</style>
<path class="st0" d="M20.5,24c2.8,0,5.1-2.1,5.1-4.8s-2.3-4.8-5.1-4.8c-2.8,0-5.1,2.1-5.1,4.8S17.7,24,20.5,24z"/>
<path class="st0" d="M11.5,34.1c0,0,2-7.5,8.8-7.5s8.1,7.5,8.1,7.5H11.5z"/>
<path class="st1" d="M8.7,33c-0.1,0-0.1,0-0.2,0c-0.1,0-0.1-0.1-0.2-0.1c-0.1,0-0.1-0.1-0.1-0.2c0-0.1-0.1-0.1-0.1-0.2
	c0-0.1,0-0.1,0-0.2c0-0.1,0.6-1.8,2.2-3.5c1.5-1.6,4.1-3.5,8.2-3.5c4.6,0,7.1,2.2,8.4,4.1c0,0.1,0.1,0.1,0.1,0.2c0,0.1,0,0.1,0,0.2
	c0,0.1,0,0.1-0.1,0.2c0,0.1-0.1,0.1-0.2,0.1c-0.1,0-0.1,0.1-0.2,0.1c-0.1,0-0.1,0-0.2,0c-0.1,0-0.1,0-0.2-0.1
	c-0.1,0-0.1-0.1-0.1-0.2c-1.1-1.7-3.4-3.7-7.4-3.7c-3,0-5.5,1.1-7.4,3.1c-1.4,1.6-2,3.1-2,3.1c0,0.1-0.1,0.2-0.2,0.3
	C8.9,33,8.8,33,8.7,33z M18.4,23.8c-1.2,0-2.3-0.3-3.3-1s-1.7-1.5-2.2-2.5c-0.4-1-0.6-2.2-0.3-3.3c0.2-1.1,0.8-2.1,1.6-2.9
	c0.8-0.8,1.9-1.3,3-1.5c1.1-0.2,2.3-0.1,3.4,0.3c1.1,0.4,2,1.2,2.6,2.1c0.6,0.9,1,2,1,3.1c0,1.5-0.6,2.9-1.7,4
	C21.5,23.2,20,23.8,18.4,23.8z M18.4,13.6c-0.9,0-1.9,0.3-2.6,0.8c-0.8,0.5-1.4,1.2-1.8,2.1c-0.4,0.8-0.5,1.8-0.3,2.7
	c0.2,0.9,0.6,1.7,1.3,2.4c0.7,0.6,1.5,1.1,2.4,1.3s1.9,0.1,2.8-0.3c0.9-0.3,1.6-0.9,2.1-1.7c0.5-0.8,0.8-1.6,0.8-2.6
	c0-1.2-0.5-2.4-1.4-3.2C20.9,14,19.7,13.6,18.4,13.6z"/>
<path class="st1" d="M29.4,35c-0.6,0-1.2-0.2-1.7-0.5c-0.5-0.3-0.9-0.8-1.1-1.4c-0.2-0.6-0.2-1.2,0-1.7c0.2-0.6,0.6-1.1,1.1-1.4
	c0.5-0.3,1.1-0.5,1.7-0.5c0.6,0,1.2,0.2,1.7,0.5c0.5,0.4,0.9,0.8,1,1.4c0.2,0.6,0.2,1.2,0,1.7c-0.2,0.6-0.6,1-1.1,1.4
	C30.6,34.8,30,35,29.4,35z M29.4,30.5c-0.3,0-0.7,0.1-0.9,0.3c-0.3,0.2-0.5,0.4-0.7,0.7c-0.2,0.3-0.2,0.6-0.2,0.9s0.1,0.6,0.3,0.9
	c0.2,0.3,0.5,0.5,0.8,0.6c0.3,0.1,0.6,0.2,1,0.1c0.3,0,0.6-0.2,0.9-0.4c0.3-0.2,0.4-0.5,0.6-0.8c0.2-0.4,0.1-0.9-0.1-1.3
	c-0.2-0.4-0.6-0.7-1-0.9C29.8,30.5,29.6,30.5,29.4,30.5L29.4,30.5z"/>
<path class="st1" d="M28.5,38c-0.1,0-0.1,0-0.2,0l-1.6-0.5c-0.1,0-0.2-0.1-0.3-0.2c-0.1-0.1-0.1-0.2-0.1-0.4l0.3-1.4
	c-0.1-0.1-0.1-0.1-0.2-0.2L25,35.8c-0.1,0-0.3,0-0.4,0c-0.1,0-0.2-0.1-0.3-0.3l-0.8-1.5c-0.1-0.1-0.1-0.3,0-0.4s0.1-0.2,0.2-0.3
	l1.2-0.8c0-0.1,0-0.2,0-0.2l-1.3-0.6c-0.1-0.1-0.2-0.1-0.3-0.3c-0.1-0.1-0.1-0.3,0-0.4l0.5-1.6c0-0.1,0.1-0.2,0.2-0.3
	c0.1-0.1,0.3-0.1,0.4-0.1l1.4,0.3c0.1-0.1,0.1-0.1,0.2-0.2L25.7,28c0-0.1,0-0.3,0-0.4c0-0.1,0.1-0.2,0.3-0.3l1.5-0.7
	c0.1-0.1,0.3-0.1,0.4,0c0.1,0,0.2,0.1,0.3,0.2L29,28c0.1,0,0.2,0,0.3,0l0.6-1.3c0.1-0.1,0.2-0.2,0.3-0.3c0.1-0.1,0.3-0.1,0.4,0
	l1.6,0.5c0.1,0,0.2,0.1,0.3,0.2c0.1,0.1,0.1,0.2,0.1,0.4L32.2,29c0.1,0.1,0.1,0.1,0.2,0.2l1.4-0.5c0.1,0,0.3,0,0.4,0
	c0.1,0,0.2,0.1,0.3,0.3l0.8,1.5c0.1,0.1,0.1,0.3,0,0.4c0,0.1-0.1,0.2-0.2,0.3l-1.2,0.8c0,0.1,0,0.2,0,0.2l1.3,0.6
	c0.1,0.1,0.2,0.2,0.3,0.3c0.1,0.1,0.1,0.3,0,0.4l-0.5,1.6c0,0.1-0.1,0.2-0.2,0.3c-0.1,0.1-0.3,0.1-0.4,0.1l-1.4-0.3
	c-0.1,0.1-0.1,0.1-0.2,0.2l0.5,1.3c0,0.1,0,0.3,0,0.4c0,0.1-0.1,0.2-0.3,0.3l-1.5,0.7c-0.1,0.1-0.3,0.1-0.4,0
	c-0.1,0-0.2-0.1-0.3-0.2l-0.8-1.2c-0.1,0-0.2,0-0.3,0L29,37.7c0,0.1-0.1,0.2-0.2,0.2C28.7,38,28.6,38,28.5,38z M27.5,36.6l0.7,0.2
	l0.6-1.2c0-0.1,0.1-0.2,0.2-0.2c0.1-0.1,0.2-0.1,0.3-0.1c0.3,0,0.5,0,0.8,0c0.1,0,0.2,0,0.3,0c0.1,0,0.2,0.1,0.2,0.2l0.7,1.1
	l0.7-0.3l-0.5-1.2c0-0.1,0-0.2,0-0.3c0-0.1,0.1-0.2,0.2-0.3c0.2-0.2,0.4-0.3,0.5-0.6c0.1-0.1,0.1-0.2,0.3-0.2c0.1,0,0.2,0,0.3,0
	l1.3,0.3l0.2-0.7L33,32.9c-0.1,0-0.2-0.1-0.2-0.2c-0.1-0.1-0.1-0.2-0.1-0.3c0-0.2,0-0.5-0.1-0.7c0-0.1,0-0.2,0-0.3
	c0-0.1,0.1-0.2,0.2-0.2l1.1-0.7l-0.3-0.6l-1.2,0.4c-0.1,0-0.2,0-0.3,0c-0.1,0-0.2-0.1-0.3-0.2c-0.2-0.2-0.4-0.3-0.6-0.5
	c-0.1-0.1-0.2-0.1-0.2-0.2c0-0.1,0-0.2,0-0.3l0.3-1.3l-0.7-0.2l-0.5,1.2c0,0.1-0.1,0.2-0.2,0.2c-0.1,0.1-0.2,0.1-0.3,0.1
	c-0.3,0-0.5,0-0.8,0c-0.1,0-0.2,0-0.3,0c-0.1,0-0.2-0.1-0.2-0.2l-0.7-1.1l-0.7,0.3l0.5,1.2c0,0.1,0,0.2,0,0.3c0,0.1-0.1,0.2-0.2,0.3
	c-0.2,0.2-0.4,0.3-0.5,0.6c-0.1,0.1-0.1,0.2-0.3,0.2c-0.1,0-0.2,0-0.3,0l-1.3-0.3L24.6,31l1.2,0.5c0.1,0,0.2,0.1,0.2,0.2
	c0.1,0.1,0.1,0.2,0.1,0.3c0,0.2,0,0.5,0.1,0.7c0,0.1,0,0.2,0,0.3c0,0.1-0.1,0.2-0.2,0.2L24.8,34l0.3,0.6l1.2-0.4c0.1,0,0.2,0,0.3,0
	c0.1,0,0.2,0.1,0.3,0.2c0.2,0.2,0.4,0.3,0.6,0.5c0.1,0.1,0.2,0.1,0.2,0.2c0,0.1,0,0.2,0,0.3L27.5,36.6z"/>
</svg>
