<?xml version="1.0" encoding="utf-8"?>
<!-- Generator: Adobe Illustrator 24.0.0, SVG Export Plug-In . SVG Version: 6.00 Build 0)  -->
<svg version="1.1" id="图层_1" xmlns="http://www.w3.org/2000/svg" xmlns:xlink="http://www.w3.org/1999/xlink" x="0px" y="0px"
	 viewBox="0 0 116 52" style="enable-background:new 0 0 116 52;" xml:space="preserve">
<style type="text/css">
	.st0{fill:#D5E9FA;}
	.st1{fill:#2C3C59;}
</style>
<path class="st0" d="M39.7,15.9H7.9v24.9h31.8V15.9z"/>
<path class="st1" d="M13.1,35c-0.1,0-0.3,0-0.4-0.1c-0.1-0.1-0.2-0.2-0.2-0.3c-0.1-0.1-0.1-0.2-0.1-0.4c0-0.1,0.1-0.2,0.1-0.3
	l5.3-6.7c0.1-0.1,0.1-0.1,0.2-0.2c0.1,0,0.2-0.1,0.3-0.1c0.1,0,0.2,0,0.3,0c0.1,0,0.2,0.1,0.2,0.1l3.3,3.1l8.6-9.4
	c0.1-0.1,0.3-0.2,0.5-0.2c0.2,0,0.4,0.1,0.5,0.2c0.1,0.1,0.2,0.3,0.2,0.5c0,0.2-0.1,0.4-0.2,0.5l-9,9.9c-0.1,0.1-0.1,0.1-0.2,0.2
	c-0.1,0-0.2,0.1-0.3,0.1c-0.1,0-0.2,0-0.3,0c-0.1,0-0.2-0.1-0.2-0.1l-3.3-3.1l-4.9,6.2c-0.1,0.1-0.1,0.1-0.2,0.2
	C13.3,35,13.2,35,13.1,35z"/>
<path class="st1" d="M31.7,21.3C31.6,21.3,31.6,21.3,31.7,21.3l-2.8-0.4c-0.2,0-0.3-0.1-0.4-0.3c-0.1-0.1-0.2-0.3-0.1-0.5
	c0-0.2,0.1-0.3,0.3-0.4c0.1-0.1,0.3-0.2,0.5-0.1l2.7,0.4c0.2,0,0.3,0.1,0.4,0.2c0.1,0.1,0.2,0.3,0.2,0.5c0,0.2-0.1,0.3-0.2,0.5
	C32,21.3,31.8,21.3,31.7,21.3z"/>
<path class="st1" d="M32,24.1c-0.2,0-0.3-0.1-0.4-0.2c-0.1-0.1-0.2-0.3-0.2-0.4L31,20.8c0-0.1,0-0.2,0-0.3c0-0.1,0.1-0.2,0.1-0.2
	c0.1-0.1,0.1-0.1,0.2-0.2c0.1,0,0.2-0.1,0.3-0.1c0.1,0,0.2,0,0.3,0c0.1,0,0.2,0.1,0.2,0.1c0.1,0.1,0.1,0.1,0.2,0.2
	c0,0.1,0.1,0.2,0.1,0.3l0.3,2.7c0,0.2,0,0.4-0.1,0.5C32.4,24,32.3,24,32,24.1C32.1,24.1,32,24.1,32,24.1z"/>
<path class="st0" d="M27.4,31.2c0.7,0,1.4-0.2,2-0.6c0.6-0.4,1.1-1,1.3-1.6c0.3-0.7,0.3-1.4,0.2-2.1c-0.1-0.7-0.5-1.3-1-1.9
	c-0.5-0.5-1.2-0.9-1.9-1c-0.7-0.1-1.4-0.1-2.1,0.2c-0.7,0.3-1.2,0.7-1.6,1.3c-0.4,0.6-0.6,1.3-0.6,2c0,0.5,0.1,0.9,0.3,1.4
	c0.2,0.4,0.4,0.8,0.8,1.2c0.3,0.3,0.7,0.6,1.2,0.8C26.5,31.1,26.9,31.2,27.4,31.2z"/>
<path class="st1" d="M33.7,35c-0.2,0-0.3-0.1-0.5-0.2l-3.6-3.4c-0.1-0.1-0.1-0.1-0.2-0.2c0-0.1-0.1-0.2-0.1-0.3c0-0.1,0-0.2,0-0.3
	c0-0.1,0.1-0.2,0.1-0.2c0.1-0.1,0.1-0.1,0.2-0.2c0.1,0,0.2-0.1,0.3-0.1c0.1,0,0.2,0,0.3,0c0.1,0,0.2,0.1,0.2,0.1l3.6,3.4
	c0.1,0.1,0.2,0.2,0.2,0.3c0,0.1,0,0.3,0,0.4c0,0.1-0.1,0.2-0.2,0.3S33.8,35,33.7,35L33.7,35z"/>
<path class="st1" d="M26.5,31.4c-0.8,0-1.7-0.3-2.4-0.7c-0.7-0.5-1.3-1.1-1.6-1.9c-0.3-0.8-0.4-1.6-0.2-2.5c0.2-0.8,0.6-1.6,1.2-2.2
	c0.6-0.6,1.4-1,2.2-1.2c0.8-0.2,1.7-0.1,2.5,0.2c0.8,0.3,1.5,0.9,1.9,1.6c0.5,0.7,0.7,1.5,0.7,2.4c0,1.1-0.5,2.2-1.3,3
	C28.7,31,27.6,31.4,26.5,31.4z M26.5,24.2c-0.6,0-1.2,0.2-1.6,0.5C24.3,25,24,25.5,23.7,26c-0.2,0.5-0.3,1.1-0.2,1.7
	c0.1,0.6,0.4,1.1,0.8,1.5c0.4,0.4,0.9,0.7,1.5,0.8c0.6,0.1,1.2,0.1,1.7-0.2c0.5-0.2,1-0.6,1.3-1.1c0.3-0.5,0.5-1.1,0.5-1.6
	c0-0.8-0.3-1.5-0.9-2.1C28,24.5,27.2,24.2,26.5,24.2z"/>
<path class="st1" d="M38.3,39.7H6.5c-0.2,0-0.4-0.1-0.5-0.2c-0.1-0.1-0.2-0.3-0.2-0.5V14.1c0-0.2,0.1-0.4,0.2-0.5
	c0.1-0.1,0.3-0.2,0.5-0.2h31.8c0.2,0,0.4,0.1,0.5,0.2c0.1,0.1,0.2,0.3,0.2,0.5V39c0,0.2-0.1,0.4-0.2,0.5S38.5,39.7,38.3,39.7z
	 M7.2,38.4h30.5V14.8H7.2V38.4z"/>
<path class="st1" d="M38.3,14.8H6.5c-0.2,0-0.4-0.1-0.5-0.2c-0.1-0.1-0.2-0.3-0.2-0.5V11c0-0.2,0.1-0.4,0.2-0.5
	c0.1-0.1,0.3-0.2,0.5-0.2h31.8c0.2,0,0.4,0.1,0.5,0.2S39,10.8,39,11v3.1c0,0.2-0.1,0.4-0.2,0.5C38.7,14.8,38.5,14.8,38.3,14.8z
	 M7.2,13.5h30.5v-1.8H7.2V13.5z"/>
</svg>
