<?xml version="1.0" encoding="utf-8"?>
<!-- Generator: Adobe Illustrator 24.0.0, SVG Export Plug-In . SVG Version: 6.00 Build 0)  -->
<svg version="1.1" id="图层_1" xmlns="http://www.w3.org/2000/svg" xmlns:xlink="http://www.w3.org/1999/xlink" x="0px" y="0px"
	 viewBox="0 0 116 52" style="enable-background:new 0 0 116 52;" xml:space="preserve">
<style type="text/css">
	.st0{fill:#D5E9FA;}
	.st1{fill:#2C3C59;}
</style>
<path class="st0" d="M24.8,41.5c8.5,0,15.4-6.9,15.4-15.4s-6.9-15.4-15.4-15.4c-8.5,0-15.4,6.9-15.4,15.4S16.3,41.5,24.8,41.5z"/>
<path class="st1" d="M11.4,25.7c-0.2,0-0.4-0.1-0.5-0.2c-0.1-0.1-0.2-0.3-0.2-0.5c0-0.2,0.1-0.4,0.2-0.5c0.1-0.1,0.3-0.2,0.5-0.2
	l7.2,0c0.2,0,0.4,0.1,0.5,0.2c0.1,0.1,0.2,0.3,0.2,0.5c0,0.2-0.1,0.4-0.2,0.5c-0.1,0.1-0.3,0.2-0.5,0.2L11.4,25.7z"/>
<path class="st1" d="M26.2,25.7c-0.2,0-0.4-0.1-0.5-0.2c-0.1-0.1-0.2-0.3-0.2-0.5c0-0.2,0.1-0.4,0.2-0.5c0.1-0.1,0.3-0.2,0.5-0.2
	l7.2,0c0.2,0,0.4,0.1,0.5,0.2c0.1,0.1,0.2,0.3,0.2,0.5c0,0.2-0.1,0.4-0.2,0.5c-0.1,0.1-0.3,0.2-0.5,0.2L26.2,25.7z"/>
<path class="st1" d="M15,29.3c-0.2,0-0.4-0.1-0.5-0.2c-0.1-0.1-0.2-0.3-0.2-0.5l0-7.2c0-0.1,0-0.2,0.1-0.3c0-0.1,0.1-0.2,0.1-0.2
	c0.1-0.1,0.1-0.1,0.2-0.1c0.1,0,0.2-0.1,0.3-0.1c0.2,0,0.4,0.1,0.5,0.2c0.1,0.1,0.2,0.3,0.2,0.5l0,7.2c0,0.1,0,0.2-0.1,0.3
	c0,0.1-0.1,0.2-0.1,0.2c-0.1,0.1-0.1,0.1-0.2,0.1C15.1,29.3,15,29.3,15,29.3L15,29.3z"/>
<path class="st1" d="M20.2,30.8c-0.1,0-0.2,0-0.3-0.1c-0.1-0.1-0.2-0.1-0.2-0.2c-0.1-0.1-0.1-0.2-0.1-0.3c0-0.1,0-0.2,0.1-0.3
	l4.8-10.3c0.1-0.2,0.2-0.3,0.4-0.3c0.2-0.1,0.4-0.1,0.5,0c0.2,0.1,0.3,0.2,0.3,0.4c0.1,0.2,0.1,0.4,0,0.5l-4.8,10.3
	c-0.1,0.1-0.1,0.2-0.3,0.3C20.5,30.8,20.3,30.8,20.2,30.8z"/>
<path class="st1" d="M22.8,41.1c-8.9,0-16.1-7.2-16.1-16.1S13.9,8.9,22.8,8.9c8.9,0,16.1,7.2,16.1,16.1S31.7,41.1,22.8,41.1z
	 M22.8,10.2C14.7,10.2,8,16.8,8,25s6.6,14.8,14.8,14.8S37.6,33.1,37.6,25S30.9,10.2,22.8,10.2z"/>
</svg>
