<?xml version="1.0" encoding="utf-8"?>
<!-- Generator: Adobe Illustrator 24.0.0, SVG Export Plug-In . SVG Version: 6.00 Build 0)  -->
<svg version="1.1" id="图层_1" xmlns="http://www.w3.org/2000/svg" xmlns:xlink="http://www.w3.org/1999/xlink" x="0px" y="0px"
	 viewBox="0 0 116 52" style="enable-background:new 0 0 116 52;" xml:space="preserve">
<style type="text/css">
	.st0{fill:#2C3C59;}
	.st1{fill:#D5E9FA;}
</style>
<path class="st0" d="M13.5,27.5l-8.8,0c-0.2,0-0.4-0.1-0.5-0.2C4.1,27.1,4,26.9,4,26.7c0-0.2,0.1-0.4,0.2-0.5
	C4.4,26.1,4.5,26,4.7,26l8.8,0c0.2,0,0.4,0.1,0.5,0.2c0.1,0.1,0.2,0.3,0.2,0.5c0,0.2-0.1,0.4-0.2,0.5C13.9,27.4,13.7,27.5,13.5,27.5
	L13.5,27.5z"/>
<path class="st0" d="M13.5,25.1h-1.7c-0.2,0-0.4-0.1-0.5-0.2c-0.1-0.1-0.2-0.3-0.2-0.5c0-0.2,0.1-0.4,0.2-0.5
	c0.1-0.1,0.3-0.2,0.5-0.2h1.7c0.2,0,0.4,0.1,0.5,0.2c0.1,0.1,0.2,0.3,0.2,0.5c0,0.2-0.1,0.4-0.2,0.5C13.9,25,13.7,25.1,13.5,25.1z"
	/>
<path class="st0" d="M9.4,25.1H6.6c-0.2,0-0.4-0.1-0.5-0.2c-0.1-0.1-0.2-0.3-0.2-0.5c0-0.2,0.1-0.4,0.2-0.5c0.1-0.1,0.3-0.2,0.5-0.2
	h2.8c0.2,0,0.4,0.1,0.5,0.2c0.1,0.1,0.2,0.3,0.2,0.5c0,0.2-0.1,0.4-0.2,0.5C9.8,25,9.6,25.1,9.4,25.1z"/>
<path class="st0" d="M13.5,29.9H7.7c-0.2,0-0.4-0.1-0.5-0.2C7.1,29.5,7,29.4,7,29.2c0-0.2,0.1-0.4,0.2-0.5c0.1-0.1,0.3-0.2,0.5-0.2
	h5.8c0.2,0,0.4,0.1,0.5,0.2c0.1,0.1,0.2,0.3,0.2,0.5c0,0.2-0.1,0.4-0.2,0.5C13.9,29.8,13.7,29.9,13.5,29.9z"/>
<path class="st1" d="M43,22.1v14.6l-11.8,5l-10.8-5.2l-0.1-14.3l10.9-4.9L43,22.1z"/>
<path class="st0" d="M31.3,38.9c-0.1,0-0.2,0-0.3-0.1l-12.6-5.3c-0.1-0.1-0.2-0.1-0.3-0.3C18,33.2,18,33,18,32.9V19
	c0-0.1,0-0.3,0.1-0.4c0.1-0.1,0.2-0.2,0.3-0.3L31,13.1c0.2-0.1,0.4-0.1,0.5,0L45,18.3c0.1,0.1,0.2,0.1,0.3,0.3
	c0.1,0.1,0.1,0.3,0.1,0.4v13.9c0,0.1,0,0.3-0.1,0.4c-0.1,0.1-0.2,0.2-0.3,0.3l-13.5,5.3C31.4,38.9,31.4,38.9,31.3,38.9z M19.4,32.4
	l11.9,5l12.8-5V19.4l-12.8-4.9l-11.9,4.9V32.4z"/>
<path class="st0" d="M31.3,38.9c-0.2,0-0.4-0.1-0.5-0.2c-0.1-0.1-0.2-0.3-0.2-0.5V24.7l-12.2-5c-0.2-0.1-0.3-0.2-0.4-0.4
	c-0.1-0.2-0.1-0.4,0-0.5c0.1-0.2,0.2-0.3,0.4-0.4c0.2-0.1,0.4-0.1,0.5,0l12.4,5.1l13.3-5.1c0.1,0,0.2,0,0.3,0c0.1,0,0.2,0,0.3,0.1
	c0.1,0,0.2,0.1,0.2,0.2c0.1,0.1,0.1,0.1,0.1,0.2c0,0.1,0,0.2,0,0.3c0,0.1,0,0.2-0.1,0.3c0,0.1-0.1,0.2-0.2,0.2s-0.1,0.1-0.2,0.1
	l-13.1,5v13.5c0,0.2-0.1,0.4-0.2,0.5C31.6,38.8,31.4,38.9,31.3,38.9z"/>
<path class="st0" d="M33.8,28.8c-0.1,0-0.2,0-0.3-0.1c-0.1-0.1-0.2-0.1-0.3-0.2l-2.4-3.7c-0.1-0.1-0.1-0.2-0.1-0.3
	c0-0.1,0-0.2,0-0.3c0-0.1,0.1-0.2,0.2-0.3c0.1-0.1,0.2-0.1,0.3-0.2l13.5-5.2c0.2-0.1,0.4-0.1,0.5,0c0.2,0.1,0.3,0.2,0.4,0.4
	c0.1,0.2,0.1,0.4,0,0.5c-0.1,0.2-0.2,0.3-0.4,0.4l-12.7,4.9l1.6,2.5l13-5c0.2-0.1,0.4-0.1,0.5,0c0.2,0.1,0.3,0.2,0.4,0.4
	c0.1,0.2,0.1,0.4,0,0.5c-0.1,0.2-0.2,0.3-0.4,0.4L34,28.7C33.9,28.8,33.9,28.8,33.8,28.8z"/>
<path class="st0" d="M47.5,23.5c-0.1,0-0.2,0-0.3-0.1c-0.1-0.1-0.2-0.1-0.3-0.2l-2.4-3.7c-0.1-0.2-0.1-0.3-0.1-0.5
	c0-0.2,0.1-0.3,0.3-0.4c0.2-0.1,0.3-0.1,0.5-0.1c0.2,0,0.3,0.1,0.4,0.3l2.4,3.7c0.1,0.1,0.1,0.2,0.1,0.3c0,0.1,0,0.2,0,0.3
	c0,0.1-0.1,0.2-0.1,0.3c-0.1,0.1-0.1,0.1-0.2,0.2C47.8,23.5,47.6,23.5,47.5,23.5z"/>
<path class="st0" d="M29,28.6c-0.1,0-0.2,0-0.3-0.1l-12.7-5.1c-0.2-0.1-0.3-0.2-0.4-0.4c-0.1-0.2-0.1-0.4,0-0.5
	c0.1-0.2,0.2-0.3,0.4-0.4c0.2-0.1,0.4-0.1,0.5,0L28.8,27l1.5-2.4l-11.9-4.8c-0.1,0-0.2-0.1-0.2-0.1c-0.1-0.1-0.1-0.1-0.2-0.2
	c0-0.1-0.1-0.2-0.1-0.3c0-0.1,0-0.2,0.1-0.3c0-0.1,0.1-0.2,0.2-0.2c0.1-0.1,0.1-0.1,0.2-0.2c0.1,0,0.2-0.1,0.3-0.1
	c0.1,0,0.2,0,0.3,0.1l12.7,5.1c0.1,0,0.2,0.1,0.3,0.2c0.1,0.1,0.1,0.2,0.2,0.3c0,0.1,0,0.2,0,0.3c0,0.1,0,0.2-0.1,0.3l-2.3,3.6
	c-0.1,0.1-0.2,0.2-0.3,0.2C29.3,28.6,29.1,28.6,29,28.6z"/>
<path class="st0" d="M16.2,23.5c-0.1,0-0.3,0-0.4-0.1c-0.1-0.1-0.2-0.2-0.3-0.3c-0.1-0.1-0.1-0.2-0.1-0.4c0-0.1,0-0.2,0.1-0.4
	l2.3-3.6c0-0.1,0.1-0.1,0.2-0.2c0.1-0.1,0.2-0.1,0.3-0.1c0.1,0,0.2,0,0.3,0c0.1,0,0.2,0.1,0.3,0.1c0.1,0.1,0.1,0.1,0.2,0.2
	c0.1,0.1,0.1,0.2,0.1,0.3c0,0.1,0,0.2,0,0.3c0,0.1-0.1,0.2-0.1,0.3l-2.3,3.6c-0.1,0.1-0.2,0.2-0.3,0.2
	C16.4,23.4,16.3,23.5,16.2,23.5z"/>
<path class="st0" d="M31.4,19.7c-0.2,0-0.4-0.1-0.5-0.2c-0.1-0.1-0.2-0.3-0.2-0.5l0-7.9c0-0.1,0-0.2,0.1-0.3c0-0.1,0.1-0.2,0.2-0.2
	c0.1-0.1,0.1-0.1,0.2-0.2c0.1,0,0.2-0.1,0.3-0.1c0.2,0,0.4,0.1,0.5,0.2c0.1,0.1,0.2,0.3,0.2,0.5l0,7.9c0,0.1,0,0.2-0.1,0.3
	c0,0.1-0.1,0.2-0.2,0.2c-0.1,0.1-0.1,0.1-0.2,0.2C31.5,19.6,31.5,19.7,31.4,19.7L31.4,19.7z"/>
<path class="st0" d="M31.3,19.9c-0.2,0-0.3-0.1-0.4-0.1l-1.6-1.2c-0.1-0.1-0.2-0.3-0.3-0.5c0-0.2,0-0.4,0.1-0.5
	c0.1-0.1,0.3-0.2,0.5-0.3c0.2,0,0.4,0,0.5,0.1l1.6,1.2c0.1,0.1,0.2,0.2,0.2,0.4s0,0.3,0,0.4c0,0.1-0.1,0.3-0.3,0.3
	C31.6,19.9,31.5,19.9,31.3,19.9L31.3,19.9z"/>
<path class="st0" d="M31.4,19.9c-0.1,0-0.3,0-0.4-0.1c-0.1-0.1-0.2-0.2-0.3-0.3c0-0.1-0.1-0.3,0-0.4c0-0.1,0.1-0.3,0.2-0.4l1.6-1.2
	c0.1-0.1,0.3-0.2,0.5-0.1c0.2,0,0.4,0.1,0.5,0.3c0.1,0.1,0.2,0.3,0.1,0.5c0,0.2-0.1,0.4-0.3,0.5l-1.6,1.2
	C31.7,19.9,31.5,19.9,31.4,19.9z"/>
</svg>
