<?xml version="1.0" encoding="utf-8"?>
<!-- Generator: Adobe Illustrator 24.0.0, SVG Export Plug-In . SVG Version: 6.00 Build 0)  -->
<svg version="1.1" id="图层_1" xmlns="http://www.w3.org/2000/svg" xmlns:xlink="http://www.w3.org/1999/xlink" x="0px" y="0px"
	 viewBox="0 0 116 52" style="enable-background:new 0 0 116 52;" xml:space="preserve">
<style type="text/css">
	.st0{fill:#D5E9FA;}
	.st1{fill:#2C3C59;}
</style>
<path class="st0" d="M20.5,15v8.5l-6.8,2.9l-6.3-3l0-8.3l6.3-2.8L20.5,15z"/>
<path class="st1" d="M13.7,24.9c-0.1,0-0.1,0-0.2,0l-7.3-3.1c-0.1,0-0.2-0.1-0.2-0.2c-0.1-0.1-0.1-0.2-0.1-0.3v-8.1
	c0-0.1,0-0.2,0.1-0.3c0.1-0.1,0.1-0.2,0.2-0.2l7.3-3c0.1-0.1,0.3-0.1,0.4,0l7.8,3c0.1,0,0.2,0.1,0.3,0.2c0.1,0.1,0.1,0.2,0.1,0.3
	v8.1c0,0.1,0,0.2-0.1,0.3c-0.1,0.1-0.2,0.2-0.3,0.2l-7.8,3.1C13.8,24.9,13.8,24.9,13.7,24.9z M6.9,20.9l6.8,2.8l7.3-2.9v-7.3
	l-7.3-2.8l-6.8,2.8V20.9z"/>
<path class="st1" d="M17.9,18.3c-0.1,0-0.3-0.1-0.4-0.2c-0.1-0.1-0.2-0.2-0.2-0.4v-2.7l-7.5-2.9c-0.1-0.1-0.2-0.2-0.3-0.3
	c-0.1-0.1-0.1-0.3,0-0.4c0.1-0.1,0.2-0.2,0.3-0.3c0.1-0.1,0.3-0.1,0.4,0l7.8,3c0.1,0,0.2,0.1,0.3,0.2c0.1,0.1,0.1,0.2,0.1,0.3v3
	c0,0.1-0.1,0.3-0.2,0.4C18.2,18.2,18,18.3,17.9,18.3z"/>
<path class="st1" d="M13.7,24.9c-0.1,0-0.3-0.1-0.4-0.2c-0.1-0.1-0.2-0.2-0.2-0.4v-7.7l-7-2.9c-0.1-0.1-0.2-0.2-0.3-0.3
	c0-0.1,0-0.3,0-0.4c0.1-0.1,0.2-0.2,0.3-0.3c0.1-0.1,0.3-0.1,0.4,0l7.1,2.9l7.6-3c0.1,0,0.1,0,0.2,0c0.1,0,0.1,0,0.2,0
	c0.1,0,0.1,0.1,0.2,0.1c0,0.1,0.1,0.1,0.1,0.2c0,0.1,0,0.1,0,0.2c0,0.1,0,0.1,0,0.2c0,0.1-0.1,0.1-0.1,0.2c-0.1,0-0.1,0.1-0.2,0.1
	l-7.5,2.9v7.7c0,0.1-0.1,0.3-0.2,0.4C14,24.8,13.8,24.9,13.7,24.9z"/>
<path class="st0" d="M37.8,14.5V23L31,25.8l-6.3-3l0-8.3l6.3-2.8L37.8,14.5z"/>
<path class="st1" d="M31,24.4c-0.1,0-0.1,0-0.2,0l-7.3-3.1c-0.1,0-0.2-0.1-0.2-0.2c-0.1-0.1-0.1-0.2-0.1-0.3v-8.1
	c0-0.1,0-0.2,0.1-0.3c0.1-0.1,0.1-0.2,0.2-0.2l7.3-3c0.1-0.1,0.3-0.1,0.4,0l7.8,3c0.1,0,0.2,0.1,0.3,0.2c0.1,0.1,0.1,0.2,0.1,0.3
	v8.1c0,0.1,0,0.2-0.1,0.3c-0.1,0.1-0.2,0.2-0.3,0.2l-7.8,3.1C31.1,24.4,31.1,24.4,31,24.4z M24.2,20.4l6.8,2.8l7.3-2.9v-7.3L31,10.2
	l-6.8,2.8V20.4z"/>
<path class="st1" d="M35.2,17.8c-0.1,0-0.3-0.1-0.4-0.2c-0.1-0.1-0.2-0.2-0.2-0.4v-2.7l-7.5-2.9c-0.1,0-0.1-0.1-0.2-0.1
	c-0.1,0-0.1-0.1-0.1-0.2c-0.1-0.1-0.1-0.3,0-0.4c0.1-0.1,0.2-0.2,0.3-0.3c0.1-0.1,0.3-0.1,0.4,0l7.8,3c0.1,0,0.2,0.1,0.3,0.2
	c0.1,0.1,0.1,0.2,0.1,0.3v3c0,0.1-0.1,0.3-0.2,0.4C35.5,17.7,35.3,17.8,35.2,17.8z"/>
<path class="st1" d="M31,24.4c-0.1,0-0.3-0.1-0.4-0.2c-0.1-0.1-0.2-0.2-0.2-0.4v-7.7l-7-2.9c-0.1-0.1-0.2-0.2-0.3-0.3
	c0-0.1,0-0.3,0-0.4c0.1-0.1,0.2-0.2,0.3-0.3c0.1-0.1,0.3-0.1,0.4,0l7.1,2.9l7.6-3c0.1,0,0.1,0,0.2,0c0.1,0,0.1,0,0.2,0
	c0.1,0,0.1,0.1,0.2,0.1c0,0.1,0.1,0.1,0.1,0.2c0,0.1,0,0.1,0,0.2c0,0.1,0,0.1,0,0.2c0,0.1-0.1,0.1-0.1,0.2c-0.1,0-0.1,0.1-0.2,0.1
	l-7.5,2.9v7.7c0,0.1-0.1,0.3-0.2,0.4C31.3,24.3,31.1,24.4,31,24.4z"/>
<path class="st0" d="M29.5,28.6v8.5L22.7,40l-6.3-3l0-8.3l6.3-2.8L29.5,28.6z"/>
<path class="st1" d="M22.7,38.5c-0.1,0-0.1,0-0.2,0l-7.3-3.1c-0.1,0-0.2-0.1-0.2-0.2c-0.1-0.1-0.1-0.2-0.1-0.3v-8.1
	c0-0.1,0-0.2,0.1-0.3c0.1-0.1,0.1-0.2,0.2-0.2l7.3-3c0.1-0.1,0.3-0.1,0.4,0l7.8,3c0.1,0,0.2,0.1,0.3,0.2c0.1,0.1,0.1,0.2,0.1,0.3
	v8.1c0,0.1,0,0.2-0.1,0.3c-0.1,0.1-0.2,0.2-0.3,0.2l-7.8,3.1C22.8,38.5,22.8,38.5,22.7,38.5z M15.9,34.5l6.8,2.8l7.3-2.9v-7.3
	l-7.3-2.8l-6.8,2.8V34.5z"/>
<path class="st1" d="M26.9,31.9c-0.1,0-0.3-0.1-0.4-0.2c-0.1-0.1-0.2-0.2-0.2-0.4v-2.7l-7.5-2.9c-0.1-0.1-0.2-0.2-0.3-0.3
	c-0.1-0.1-0.1-0.3,0-0.4c0.1-0.1,0.2-0.2,0.3-0.3c0.1-0.1,0.3-0.1,0.4,0l7.8,3c0.1,0,0.2,0.1,0.3,0.2c0.1,0.1,0.1,0.2,0.1,0.3v3
	c0,0.1-0.1,0.3-0.2,0.4C27.2,31.8,27,31.9,26.9,31.9z"/>
<path class="st1" d="M22.7,38.5c-0.1,0-0.3-0.1-0.4-0.2c-0.1-0.1-0.2-0.2-0.2-0.4v-7.7l-7-2.9c-0.1-0.1-0.2-0.2-0.3-0.3
	c0-0.1,0-0.3,0-0.4c0.1-0.1,0.2-0.2,0.3-0.3c0.1-0.1,0.3-0.1,0.4,0l7.1,2.9l7.6-3c0.1,0,0.1,0,0.2,0c0.1,0,0.1,0,0.2,0
	c0.1,0,0.1,0.1,0.2,0.1c0,0.1,0.1,0.1,0.1,0.2c0,0.1,0,0.1,0,0.2c0,0.1,0,0.1,0,0.2c0,0.1-0.1,0.1-0.1,0.2c-0.1,0-0.1,0.1-0.2,0.1
	l-7.5,2.9V38c0,0.1-0.1,0.3-0.2,0.4C23,38.5,22.9,38.5,22.7,38.5z"/>
</svg>
