<?xml version="1.0" encoding="utf-8"?>
<!-- Generator: Adobe Illustrator 24.0.0, SVG Export Plug-In . SVG Version: 6.00 Build 0)  -->
<svg version="1.1" id="图层_1" xmlns="http://www.w3.org/2000/svg" xmlns:xlink="http://www.w3.org/1999/xlink" x="0px" y="0px"
	 viewBox="0 0 116 52" style="enable-background:new 0 0 116 52;" xml:space="preserve">
<style type="text/css">
	.st0{fill:#D5E9FA;}
	.st1{fill:#2C3C59;}
</style>
<path class="st0" d="M39.9,12.8H23.8v20.4h16.1V12.8z"/>
<path class="st1" d="M38.9,32.4H22.4c-0.2,0-0.4-0.1-0.5-0.2c-0.1-0.1-0.2-0.3-0.2-0.5V11.3c0-0.2,0.1-0.4,0.2-0.5
	c0.1-0.1,0.3-0.2,0.5-0.2h13.5c0.2,0,0.4,0.1,0.5,0.2c0.1,0.1,0.2,0.3,0.2,0.5c0,0.2-0.1,0.4-0.2,0.5c-0.1,0.1-0.3,0.2-0.5,0.2H23.1
	v19h15.1V14.4c0-0.2,0.1-0.4,0.2-0.5c0.1-0.1,0.3-0.2,0.5-0.2c0.2,0,0.4,0.1,0.5,0.2c0.1,0.1,0.2,0.3,0.2,0.5v17.3
	c0,0.2-0.1,0.4-0.2,0.5C39.3,32.3,39.1,32.4,38.9,32.4z"/>
<path class="st1" d="M38.9,15.1h-3c-0.2,0-0.4-0.1-0.5-0.2c-0.1-0.1-0.2-0.3-0.2-0.5v-3.1c0-0.1,0-0.3,0.1-0.4
	c0.1-0.1,0.2-0.2,0.3-0.3c0.1-0.1,0.3-0.1,0.4,0c0.1,0,0.3,0.1,0.4,0.2l3,3.1c0.1,0.1,0.2,0.2,0.2,0.4c0,0.1,0,0.3,0,0.4
	c-0.1,0.1-0.1,0.2-0.3,0.3C39.2,15,39,15.1,38.9,15.1z M36.6,13.7h0.7L36.6,13V13.7z"/>
<path class="st0" d="M32.5,25.5v16H11V22.2h8.1v3.3H32.5z"/>
<path class="st1" d="M34.8,18.4h-8.3c-0.2,0-0.4-0.1-0.5-0.2c-0.1-0.1-0.2-0.3-0.2-0.5c0-0.2,0.1-0.4,0.2-0.5
	c0.1-0.1,0.3-0.2,0.5-0.2h8.3c0.2,0,0.4,0.1,0.5,0.2c0.1,0.1,0.2,0.3,0.2,0.5c0,0.2-0.1,0.4-0.2,0.5C35.2,18.3,35,18.4,34.8,18.4z"
	/>
<path class="st1" d="M34.8,22.2h-8.3c-0.2,0-0.4-0.1-0.5-0.2c-0.1-0.1-0.2-0.3-0.2-0.5c0-0.2,0.1-0.4,0.2-0.5
	c0.1-0.1,0.3-0.2,0.5-0.2h8.3c0.2,0,0.4,0.1,0.5,0.2c0.1,0.1,0.2,0.3,0.2,0.5c0,0.2-0.1,0.4-0.2,0.5C35.2,22.2,35,22.2,34.8,22.2z"
	/>
<path class="st1" d="M31.1,40.5H9.6c-0.2,0-0.4-0.1-0.5-0.2C9,40.2,8.9,40,8.9,39.8v-16c0-0.2,0.1-0.4,0.2-0.5
	c0.1-0.1,0.3-0.2,0.5-0.2c0.2,0,0.4,0.1,0.5,0.2c0.1,0.1,0.2,0.3,0.2,0.5v15.3h20.2V24.6H13.6c-0.2,0-0.4-0.1-0.5-0.2
	C13,24.2,13,24.1,13,23.9c0-0.2,0.1-0.4,0.2-0.5c0.1-0.1,0.3-0.2,0.5-0.2h17.5c0.2,0,0.4,0.1,0.5,0.2c0.1,0.1,0.2,0.3,0.2,0.5v16
	c0,0.2-0.1,0.4-0.2,0.5C31.5,40.5,31.3,40.5,31.1,40.5z"/>
<path class="st1" d="M17.7,24.6h-4.1c-0.2,0-0.4-0.1-0.5-0.2C13,24.2,13,24.1,13,23.9s0.1-0.4,0.2-0.5c0.1-0.1,0.3-0.2,0.5-0.2H17
	v-2h-6.7v2.7c0,0.2-0.1,0.4-0.2,0.5c-0.1,0.1-0.3,0.2-0.5,0.2c-0.2,0-0.4-0.1-0.5-0.2c-0.1-0.1-0.2-0.3-0.2-0.5v-3.3
	c0-0.2,0.1-0.4,0.2-0.5c0.1-0.1,0.3-0.2,0.5-0.2h8.1c0.2,0,0.4,0.1,0.5,0.2c0.1,0.1,0.2,0.3,0.2,0.5v3.3c0,0.2-0.1,0.4-0.2,0.5
	C18.1,24.5,17.9,24.6,17.7,24.6z"/>
</svg>
