<?xml version="1.0" encoding="utf-8"?>
<!-- Generator: Adobe Illustrator 24.0.0, SVG Export Plug-In . SVG Version: 6.00 Build 0)  -->
<svg version="1.1" id="图层_1" xmlns="http://www.w3.org/2000/svg" xmlns:xlink="http://www.w3.org/1999/xlink" x="0px" y="0px"
	 viewBox="0 0 116 52" style="enable-background:new 0 0 116 52;" xml:space="preserve">
<style type="text/css">
	.st0{fill:#D5E9FA;}
	.st1{fill:#2C3C59;}
</style>
<path class="st0" d="M36.8,10.1H17v28.7h19.8V10.1z"/>
<path class="st1" d="M41,22.4c-0.2,0-0.4-0.1-0.5-0.2c-0.1-0.1-0.2-0.3-0.2-0.5c0-0.2,0.1-0.4,0.2-0.5c0.1-0.1,0.3-0.2,0.5-0.2
	l8.3-0.1c0.2,0,0.4,0.1,0.5,0.2c0.1,0.1,0.2,0.3,0.2,0.5c0,0.2-0.1,0.4-0.2,0.5c-0.1,0.1-0.3,0.2-0.5,0.2L41,22.4L41,22.4z"/>
<path class="st1" d="M40.6,22.3c-0.1,0-0.3,0-0.4-0.1c-0.1-0.1-0.2-0.2-0.3-0.3c-0.1-0.1-0.1-0.2-0.1-0.4c0-0.1,0.1-0.3,0.1-0.4
	l1.8-2.3c0.1-0.1,0.3-0.2,0.5-0.3c0.2,0,0.4,0,0.5,0.1c0.1,0.1,0.2,0.3,0.3,0.5s0,0.4-0.1,0.5l-1.8,2.3c-0.1,0.1-0.1,0.2-0.2,0.2
	C40.9,22.3,40.7,22.3,40.6,22.3z"/>
<path class="st1" d="M42.4,24.7c-0.1,0-0.2,0-0.3-0.1c-0.1,0-0.2-0.1-0.2-0.2l-1.8-2.3C40,22,39.9,21.8,40,21.6
	c0-0.2,0.1-0.3,0.3-0.5c0.1-0.1,0.3-0.2,0.5-0.1c0.2,0,0.3,0.1,0.5,0.3l1.8,2.3c0.1,0.1,0.1,0.2,0.1,0.4c0,0.1,0,0.3-0.1,0.4
	c-0.1,0.1-0.1,0.2-0.3,0.3C42.7,24.7,42.6,24.7,42.4,24.7L42.4,24.7z"/>
<path class="st1" d="M1.7,22.5c-0.2,0-0.4-0.1-0.5-0.2C1.1,22.2,1,22,1,21.8c0-0.2,0.1-0.4,0.2-0.5c0.1-0.1,0.3-0.2,0.5-0.2l8.3-0.1
	c0.2,0,0.4,0.1,0.5,0.2c0.1,0.1,0.2,0.3,0.2,0.5c0,0.2-0.1,0.4-0.2,0.5c-0.1,0.1-0.3,0.2-0.5,0.2L1.7,22.5z"/>
<path class="st1" d="M10.4,22.4c-0.1,0-0.2,0-0.3-0.1c-0.1,0-0.2-0.1-0.2-0.2l-1.8-2.3C8,19.8,8,19.7,7.9,19.6c0-0.1,0-0.2,0-0.3
	c0-0.1,0-0.2,0.1-0.3c0-0.1,0.1-0.1,0.2-0.2c0.1-0.1,0.2-0.1,0.2-0.1c0.1,0,0.2,0,0.3,0c0.1,0,0.2,0,0.3,0.1c0.1,0,0.1,0.1,0.2,0.2
	l1.8,2.3c0.1,0.1,0.1,0.2,0.1,0.4c0,0.1,0,0.3-0.1,0.4c-0.1,0.1-0.1,0.2-0.3,0.3C10.6,22.4,10.5,22.4,10.4,22.4z"/>
<path class="st1" d="M8.6,24.8c-0.1,0-0.3,0-0.4-0.1C8.1,24.6,8,24.5,8,24.4c-0.1-0.1-0.1-0.2-0.1-0.4c0-0.1,0.1-0.3,0.1-0.4
	l1.8-2.3c0.1-0.1,0.1-0.1,0.2-0.2c0.1,0,0.2-0.1,0.3-0.1c0.1,0,0.2,0,0.3,0s0.2,0.1,0.2,0.1c0.1,0.1,0.1,0.1,0.2,0.2
	c0,0.1,0.1,0.2,0.1,0.3c0,0.1,0,0.2,0,0.3c0,0.1-0.1,0.2-0.1,0.2l-1.8,2.3c-0.1,0.1-0.1,0.2-0.2,0.2C8.8,24.8,8.7,24.8,8.6,24.8z"/>
<path class="st1" d="M35.7,37.2H15.4c-0.2,0-0.4-0.1-0.5-0.2c-0.1-0.1-0.2-0.3-0.2-0.5V8.3c0-0.2,0.1-0.4,0.2-0.5
	c0.1-0.1,0.3-0.2,0.5-0.2H32c0.2,0,0.4,0.1,0.5,0.2c0.1,0.1,0.2,0.3,0.2,0.5c0,0.2-0.1,0.4-0.2,0.5C32.4,9,32.2,9,32,9H16.1v26.8H35
	V12.6c0-0.2,0.1-0.4,0.2-0.5c0.1-0.1,0.3-0.2,0.5-0.2s0.4,0.1,0.5,0.2c0.1,0.1,0.2,0.3,0.2,0.5v23.9c0,0.2-0.1,0.4-0.2,0.5
	C36,37.1,35.9,37.2,35.7,37.2z"/>
<path class="st1" d="M27,14.2h-8.2c-0.2,0-0.4-0.1-0.5-0.2c-0.1-0.1-0.2-0.3-0.2-0.5c0-0.2,0.1-0.4,0.2-0.5c0.1-0.1,0.3-0.2,0.5-0.2
	H27c0.2,0,0.4,0.1,0.5,0.2c0.1,0.1,0.2,0.3,0.2,0.5c0,0.2-0.1,0.4-0.2,0.5C27.4,14.2,27.2,14.2,27,14.2z"/>
<path class="st1" d="M32,18.8H18.8c-0.2,0-0.4-0.1-0.5-0.2c-0.1-0.1-0.2-0.3-0.2-0.5c0-0.2,0.1-0.4,0.2-0.5c0.1-0.1,0.3-0.2,0.5-0.2
	H32c0.2,0,0.4,0.1,0.5,0.2c0.1,0.1,0.2,0.3,0.2,0.5c0,0.2-0.1,0.4-0.2,0.5C32.3,18.8,32.2,18.8,32,18.8z"/>
<path class="st1" d="M35.6,12.8H32c-0.2,0-0.4-0.1-0.5-0.2c-0.1-0.1-0.2-0.3-0.2-0.5V8.3c0-0.1,0-0.3,0.1-0.4
	c0.1-0.1,0.2-0.2,0.3-0.3c0.1-0.1,0.3-0.1,0.4,0c0.1,0,0.3,0.1,0.4,0.2l3.7,3.8c0.1,0.1,0.2,0.2,0.2,0.4c0,0.1,0,0.3,0,0.4
	c-0.1,0.1-0.1,0.2-0.3,0.3C35.9,12.7,35.8,12.8,35.6,12.8z M32.7,11.4H34L32.7,10V11.4z"/>
<path class="st1" d="M25,34.1c-0.1,0-0.2,0-0.3-0.1l-5.9-2.5c-0.1-0.1-0.2-0.1-0.3-0.3c-0.1-0.1-0.1-0.2-0.1-0.4v-6.5
	c0-0.1,0-0.3,0.1-0.4c0.1-0.1,0.2-0.2,0.3-0.3l5.9-2.4c0.2-0.1,0.4-0.1,0.5,0l6.3,2.4c0.1,0.1,0.2,0.1,0.3,0.3
	c0.1,0.1,0.1,0.3,0.1,0.4v6.5c0,0.1,0,0.3-0.1,0.4c-0.1,0.1-0.2,0.2-0.3,0.3L25.2,34C25.2,34.1,25.1,34.1,25,34.1z M19.8,30.4
	l5.2,2.2l5.6-2.2v-5.6L25,22.7l-5.2,2.2V30.4z"/>
<path class="st1" d="M28.4,28.7c-0.1,0-0.2,0-0.3-0.1c-0.1,0-0.2-0.1-0.2-0.2c-0.1-0.1-0.1-0.1-0.2-0.2c0-0.1-0.1-0.2-0.1-0.3v-2
	l-5.9-2.3c-0.1,0-0.2-0.1-0.2-0.1c-0.1-0.1-0.1-0.1-0.2-0.2c0-0.1-0.1-0.2-0.1-0.3c0-0.1,0-0.2,0-0.3c0-0.1,0.1-0.2,0.1-0.2
	c0.1-0.1,0.1-0.1,0.2-0.2c0.1,0,0.2-0.1,0.3-0.1c0.1,0,0.2,0,0.3,0l6.3,2.4c0.1,0.1,0.2,0.1,0.3,0.3c0.1,0.1,0.1,0.3,0.1,0.4V28
	c0,0.1,0,0.2-0.1,0.3c0,0.1-0.1,0.2-0.2,0.2c-0.1,0.1-0.1,0.1-0.2,0.2C28.6,28.7,28.5,28.7,28.4,28.7z"/>
<path class="st1" d="M25,34.1c-0.2,0-0.4-0.1-0.5-0.2c-0.1-0.1-0.2-0.3-0.2-0.5v-6.1L18.8,25c-0.2-0.1-0.3-0.2-0.4-0.4
	c-0.1-0.2-0.1-0.4,0-0.5c0.1-0.2,0.2-0.3,0.4-0.4c0.2-0.1,0.4-0.1,0.5,0l5.6,2.3l6.1-2.3c0.2-0.1,0.4-0.1,0.5,0
	c0.2,0.1,0.3,0.2,0.4,0.4c0.1,0.2,0.1,0.4,0,0.5c-0.1,0.2-0.2,0.3-0.4,0.4l-5.9,2.3v6.1c0,0.2-0.1,0.4-0.2,0.5
	C25.4,34,25.2,34.1,25,34.1z"/>
</svg>
