<?xml version="1.0" encoding="utf-8"?>
<!-- Generator: Adobe Illustrator 24.0.0, SVG Export Plug-In . SVG Version: 6.00 Build 0)  -->
<svg version="1.1" id="图层_1" xmlns="http://www.w3.org/2000/svg" xmlns:xlink="http://www.w3.org/1999/xlink" x="0px" y="0px"
	 viewBox="0 0 116 52" style="enable-background:new 0 0 116 52;" xml:space="preserve">
<style type="text/css">
	.st0{fill:#D5E9FA;}
	.st1{fill:#2C3C59;}
</style>
<path class="st0" d="M10.1,41.9c0-6.8,5.7-12.2,12.8-12.2s12.8,5.5,12.8,12.2"/>
<path class="st0" d="M22.9,26.6c3.9,0,7.1-3.1,7.1-6.8c0-3.8-3.2-6.8-7.1-6.8s-7.1,3.1-7.1,6.8C15.9,23.5,19,26.6,22.9,26.6z"/>
<path class="st1" d="M21.2,26.8c-1.6,0-3.2-0.5-4.5-1.4c-1.3-0.9-2.4-2.1-3-3.6c-0.6-1.5-0.8-3.1-0.5-4.7c0.3-1.6,1.1-3,2.2-4.1
	c1.1-1.1,2.6-1.9,4.1-2.2c1.6-0.3,3.2-0.2,4.7,0.5c1.5,0.6,2.7,1.6,3.6,3c0.9,1.3,1.4,2.9,1.4,4.5c0,2.1-0.9,4.2-2.4,5.7
	C25.4,25.9,23.3,26.8,21.2,26.8z M21.2,12.2c-1.3,0-2.6,0.4-3.6,1.1c-1.1,0.7-1.9,1.7-2.4,2.9c-0.5,1.2-0.6,2.5-0.4,3.8
	c0.3,1.3,0.9,2.4,1.8,3.4c0.9,0.9,2.1,1.5,3.4,1.8c1.3,0.3,2.6,0.1,3.8-0.4c1.2-0.5,2.2-1.3,2.9-2.4c0.7-1.1,1.1-2.3,1.1-3.6
	c0-1.7-0.7-3.4-1.9-4.6C24.6,12.9,22.9,12.2,21.2,12.2z"/>
<path class="st1" d="M33.8,42.2c-0.2,0-0.4-0.1-0.5-0.2c-0.1-0.1-0.2-0.3-0.2-0.5C33,35.1,27.6,30,20.9,30S8.9,35.1,8.9,41.5
	c0,0.2-0.1,0.4-0.2,0.5c-0.1,0.1-0.3,0.2-0.5,0.2c-0.2,0-0.4-0.1-0.5-0.2c-0.1-0.1-0.2-0.3-0.2-0.5c0-7.2,6.1-13,13.6-13
	s13.6,5.8,13.6,13c0,0.2-0.1,0.4-0.2,0.5C34.2,42.1,34,42.2,33.8,42.2z"/>
</svg>
