<?xml version="1.0" encoding="utf-8"?>
<!-- Generator: Adobe Illustrator 24.0.0, SVG Export Plug-In . SVG Version: 6.00 Build 0)  -->
<svg version="1.1" id="图层_1" xmlns="http://www.w3.org/2000/svg" xmlns:xlink="http://www.w3.org/1999/xlink" x="0px" y="0px"
	 viewBox="0 0 191 92" style="enable-background:new 0 0 191 92;" xml:space="preserve">
<style type="text/css">
	.st0{fill:#D5E9FA;}
	.st1{fill:#2C3C59;}
</style>
<path class="st0" d="M80.8,33.4v11.1h-4.5v16.8H63.6v-6.3h4V44.6h-3.2h-4.2l-4-11h24.7V33.4z"/>
<path class="st0" d="M36.9,30H7.2v37.8h29.9V30H36.9z"/>
<path class="st1" d="M35.1,66.4H4.6c-0.3,0-0.6-0.2-1-0.3c-0.2-0.2-0.3-0.6-0.3-1V27.3c0-0.3,0.2-0.6,0.3-1c0.2-0.2,0.6-0.3,1-0.3
	h25c0.3,0,0.6,0.2,1,0.3c0.2,0.2,0.3,0.6,0.3,1c0,0.3-0.2,0.6-0.3,1c-0.2,0.2-0.5,0.3-1,0.3H5.9v35.2H34V33.1c0-0.3,0.2-0.6,0.3-1
	c0.2-0.2,0.5-0.3,1-0.3c0.3,0,0.6,0.2,1,0.3c0.2,0.2,0.3,0.5,0.3,1v32c0,0.2,0,0.3-0.2,0.5c0,0.2-0.2,0.3-0.3,0.5
	c-0.2,0.2-0.3,0.2-0.5,0.3C35.5,66.2,35.3,66.4,35.1,66.4z"/>
<path class="st1" d="M30.6,39.9H19c-0.3,0-0.6-0.2-1-0.3c-0.2-0.2-0.3-0.5-0.3-1c0-0.3,0.2-0.6,0.3-1c0.2-0.2,0.5-0.3,1-0.3h11.6
	c0.3,0,0.6,0.2,1,0.3c0.2,0.2,0.3,0.5,0.3,1c0,0.3-0.2,0.6-0.3,1C31.3,39.7,30.9,39.9,30.6,39.9z"/>
<path class="st1" d="M11.9,41.3L11.9,41.3c-0.2,0-0.3,0-0.5-0.2c-0.2,0-0.3-0.2-0.5-0.3l-1.6-1.9c-0.2-0.2-0.2-0.3-0.3-0.5
	c0-0.2,0-0.3,0-0.5s0-0.3,0.2-0.5c0-0.2,0.2-0.3,0.3-0.3c0.2,0,0.3-0.2,0.5-0.3c0.2,0,0.3,0,0.5,0c0.2,0,0.3,0,0.5,0.2
	s0.3,0.2,0.3,0.3l0.6,0.8l2.4-2.7c0.2-0.3,0.5-0.5,0.8-0.5s0.6,0.2,1,0.3c0.3,0.2,0.5,0.5,0.5,0.8s-0.2,0.6-0.3,1l-3.4,3.9
	c-0.2,0.2-0.3,0.3-0.5,0.3C12.2,41.3,12.1,41.3,11.9,41.3z"/>
<path class="st1" d="M30.6,46.8H19c-0.3,0-0.6-0.2-1-0.3c-0.2-0.2-0.3-0.5-0.3-1s0.2-0.6,0.3-1c0.2-0.2,0.5-0.3,1-0.3h11.6
	c0.3,0,0.6,0.2,1,0.3c0.2,0.2,0.3,0.6,0.3,1c0,0.3-0.2,0.6-0.3,1C31.4,46.7,31.1,46.8,30.6,46.8z"/>
<path class="st1" d="M11.9,48.8c-0.2,0-0.3,0-0.5-0.2c-0.2,0-0.3-0.2-0.5-0.3l-1.6-1.9C9.2,46,9,45.7,9,45.4c0-0.3,0.2-0.6,0.5-0.8
	c0.3-0.2,0.6-0.3,1-0.3c0.3,0,0.6,0.2,0.8,0.5l0.6,0.8l2.4-2.7c0.2-0.3,0.5-0.5,0.8-0.5s0.6,0.2,1,0.3c0.3,0.2,0.5,0.5,0.5,0.8
	c0,0.3-0.2,0.6-0.3,1l-3.4,3.9c-0.2,0.2-0.3,0.3-0.5,0.3C12.2,48.6,12.1,48.8,11.9,48.8z"/>
<path class="st1" d="M30.6,54.7H19c-0.3,0-0.6-0.2-1-0.3c-0.3-0.2-0.3-0.5-0.3-1c0-0.3,0.2-0.6,0.3-1c0.2-0.2,0.5-0.3,1-0.3h11.6
	c0.3,0,0.6,0.2,1,0.3c0.2,0.2,0.3,0.5,0.3,1c0,0.3-0.2,0.6-0.3,1C31.4,54.7,31.1,54.7,30.6,54.7z"/>
<path class="st1" d="M11.9,56L11.9,56c-0.2,0-0.3,0-0.5-0.2c-0.2,0-0.3-0.2-0.5-0.3l-1.6-1.9c-0.2-0.2-0.2-0.3-0.3-0.5
	c0-0.2,0-0.3,0-0.5s0-0.3,0.2-0.5c0-0.2,0.2-0.3,0.3-0.3c0.2-0.2,0.3-0.2,0.5-0.3c0.2,0,0.3,0,0.5,0c0.2,0,0.3,0,0.5,0.2
	c0.2,0,0.3,0.2,0.3,0.3l0.6,0.8l2.4-2.7c0.2-0.2,0.3-0.2,0.3-0.3c0.2,0,0.3-0.2,0.5-0.2c0.2,0,0.3,0,0.5,0s0.3,0.2,0.5,0.3
	c0.2,0.2,0.2,0.3,0.3,0.3c0,0.2,0.2,0.3,0.2,0.5s0,0.3,0,0.5s-0.2,0.3-0.3,0.5l-3.4,3.9c-0.2,0.2-0.3,0.3-0.5,0.3
	C12.2,56,12.1,56,11.9,56z"/>
<path class="st1" d="M35.1,34.2h-5.5c-0.3,0-0.6-0.2-1-0.3c-0.2-0.2-0.3-0.6-0.3-1v-5.6c0-0.3,0-0.5,0.2-0.6
	c0.2-0.2,0.3-0.3,0.6-0.5c0.2-0.2,0.5-0.2,0.8,0c0.3,0.2,0.5,0.2,0.6,0.3l5.5,5.6c0.2,0.2,0.3,0.5,0.3,0.6c0,0.3,0,0.5,0,0.8
	c-0.2,0.2-0.3,0.5-0.5,0.6C35.6,34.1,35.5,34.2,35.1,34.2z M30.9,31.6h1.3l-1.3-1.3V31.6z"/>
<path class="st1" d="M77.9,44.6l-20.5-0.2c-0.3,0-0.5-0.2-0.8-0.2c-0.2-0.2-0.3-0.3-0.5-0.6l-4-11c0-0.2-0.2-0.3,0-0.6
	c0-0.2,0.2-0.3,0.2-0.5c0.2-0.2,0.3-0.3,0.5-0.3c0.2-0.3,0.3-0.3,0.6-0.3h24.5c0.3,0,0.6,0.2,1,0.3c0.2,0.2,0.3,0.6,0.3,1v11.1
	c0,0.3-0.2,0.6-0.3,1C78.6,44.4,78.2,44.6,77.9,44.6z M58.2,41.8h18.4v-8.6H55.2L58.2,41.8z"/>
<path class="st1" d="M61.5,44.6c-0.3,0-0.5-0.2-0.8-0.2c-0.2-0.2-0.3-0.3-0.5-0.6l-4-11c0-0.2-0.2-0.3,0-0.5c0-0.2,0-0.3,0.2-0.5
	c0.2-0.3,0.3-0.5,0.6-0.6c0.3-0.2,0.6-0.2,1,0c0.3,0.2,0.5,0.3,0.6,0.6l4,11c0,0.2,0.2,0.3,0,0.6c0,0.2-0.2,0.3-0.2,0.6
	c-0.2,0.2-0.3,0.3-0.5,0.3C61.9,44.4,61.8,44.6,61.5,44.6z"/>
<path class="st1" d="M73.4,61.3H60.6c-0.3,0-0.6-0.2-1-0.3c-0.3-0.2-0.3-0.5-0.3-1v-6.3c0-0.3,0.2-0.6,0.3-1c0.2-0.2,0.5-0.3,1-0.3
	h2.7v-9.4c0-0.3,0.2-0.6,0.3-1c0.2-0.2,0.5-0.3,1-0.3h8.7c0.3,0,0.6,0.2,1,0.3c0.2,0.2,0.3,0.5,0.3,1v16.9c0,0.3-0.2,0.6-0.3,1
	C74,61.2,73.7,61.3,73.4,61.3z M61.8,58.8h10.2V44.4h-6.1v9.4c0,0.3-0.2,0.6-0.3,1c-0.2,0.2-0.5,0.3-0.8,0.3h-2.7v3.7H61.8z"/>
<path class="st1" d="M41.6,37.5h-1.3c-0.3,0-0.6-0.2-1-0.3c-0.2-0.2-0.3-0.5-0.3-1c0-0.3,0.2-0.6,0.3-1c0.2-0.2,0.5-0.3,1-0.3h1.3
	c0.3,0,0.6,0.2,1,0.3c0.2,0.2,0.3,0.5,0.3,1c0,0.3-0.2,0.6-0.3,1C42.2,37.3,41.9,37.5,41.6,37.5z"/>
<path class="st1" d="M46.9,37.5h-2.7c-0.3,0-0.6-0.2-1-0.3c-0.2-0.2-0.3-0.5-0.3-1c0-0.3,0.2-0.6,0.3-1c0.2-0.2,0.5-0.3,1-0.3h2.7
	c0.3,0,0.6,0.2,1,0.3c0.2,0.2,0.3,0.5,0.3,1c0,0.3-0.2,0.6-0.3,1C47.6,37.3,47.3,37.5,46.9,37.5z"/>
<path class="st1" d="M51,37.5h-1.3c-0.3,0-0.6-0.2-1-0.3c-0.2-0.2-0.3-0.5-0.3-1c0-0.3,0.2-0.6,0.3-1c0.2-0.2,0.5-0.3,1-0.3H51
	c0.3,0,0.6,0.2,1,0.3c0.2,0.2,0.3,0.5,0.3,1c0,0.3-0.2,0.6-0.3,1C51.6,37.3,51.3,37.5,51,37.5z"/>
<path class="st1" d="M46.4,41.5h-1.3c-0.3,0-0.6-0.2-1-0.3c-0.2-0.2-0.3-0.5-0.3-1c0-0.3,0.2-0.6,0.3-1c0.2-0.2,0.5-0.3,1-0.3h1.3
	c0.3,0,0.6,0.2,1,0.3c0.2,0.2,0.3,0.5,0.3,1c0,0.3-0.2,0.6-0.3,1C47.3,41.3,46.8,41.5,46.4,41.5z"/>
<path class="st1" d="M51,41.5h-1.3c-0.3,0-0.6-0.2-1-0.3c-0.2-0.3-0.2-0.6-0.2-1c0-0.3,0.2-0.6,0.3-1c0.2-0.2,0.5-0.3,1-0.3h1.3
	c0.3,0,0.6,0.2,1,0.3c0.2,0.2,0.3,0.5,0.3,1c0,0.3-0.2,0.6-0.3,1C51.6,41.3,51.3,41.5,51,41.5z"/>
</svg>
