<?xml version="1.0" encoding="utf-8"?>
<!-- Generator: Adobe Illustrator 24.0.0, SVG Export Plug-In . SVG Version: 6.00 Build 0)  -->
<svg version="1.1" id="图层_1" xmlns="http://www.w3.org/2000/svg" xmlns:xlink="http://www.w3.org/1999/xlink" x="0px" y="0px"
	 viewBox="0 0 116 52" style="enable-background:new 0 0 116 52;" xml:space="preserve">
<style type="text/css">
	.st0{fill:#D5E9FA;}
	.st1{fill:#2C3C59;}
</style>
<path class="st0" d="M33.4,21l-7.7,3.4l3.4,7.7l7.7-3.4L33.4,21z"/>
<path class="st1" d="M14.1,26.7l-8,0c-0.2,0-0.3-0.1-0.5-0.2c-0.1-0.1-0.2-0.3-0.2-0.5c0-0.2,0.1-0.3,0.2-0.5
	c0.1-0.1,0.3-0.2,0.5-0.2l8,0c0.2,0,0.3,0.1,0.5,0.2c0.1,0.1,0.2,0.3,0.2,0.5c0,0.2-0.1,0.3-0.2,0.5C14.5,26.6,14.3,26.7,14.1,26.7
	L14.1,26.7z"/>
<path class="st1" d="M14.1,24.5h-1.5c-0.2,0-0.3-0.1-0.5-0.2C12.1,24.2,12,24,12,23.8c0-0.2,0.1-0.3,0.2-0.5
	c0.1-0.1,0.3-0.2,0.5-0.2h1.5c0.2,0,0.3,0.1,0.5,0.2c0.1,0.1,0.2,0.3,0.2,0.5c0,0.2-0.1,0.3-0.2,0.5C14.5,24.4,14.3,24.5,14.1,24.5z
	"/>
<path class="st1" d="M10.4,24.5H7.9c-0.2,0-0.3-0.1-0.5-0.2c-0.1-0.1-0.2-0.3-0.2-0.5c0-0.2,0.1-0.3,0.2-0.5
	c0.1-0.1,0.3-0.2,0.5-0.2h2.5c0.2,0,0.3,0.1,0.5,0.2c0.1,0.1,0.2,0.3,0.2,0.5c0,0.2-0.1,0.3-0.2,0.5C10.7,24.4,10.6,24.5,10.4,24.5z
	"/>
<path class="st1" d="M14.1,28.8H8.9c-0.2,0-0.3-0.1-0.5-0.2c-0.1-0.1-0.2-0.3-0.2-0.5c0-0.2,0.1-0.3,0.2-0.5
	c0.1-0.1,0.3-0.2,0.5-0.2h5.2c0.2,0,0.3,0.1,0.5,0.2c0.1,0.1,0.2,0.3,0.2,0.5c0,0.2-0.1,0.3-0.2,0.5C14.5,28.8,14.3,28.8,14.1,28.8z
	"/>
<path class="st1" d="M26.6,36c-0.1,0-0.2,0-0.3-0.1c-0.1-0.1-0.2-0.2-0.2-0.3l-10-22l-1.6,0.7c-0.2,0.1-0.3,0.1-0.5,0
	c-0.2-0.1-0.3-0.2-0.4-0.3c-0.1-0.2-0.1-0.3,0-0.5c0.1-0.2,0.2-0.3,0.3-0.4l2.2-1c0.2-0.1,0.3-0.1,0.5,0c0.2,0.1,0.3,0.2,0.4,0.3
	l10,22l11.7-5.2c0.2-0.1,0.3-0.1,0.5,0c0.2,0.1,0.3,0.2,0.3,0.3c0.1,0.2,0.1,0.3,0,0.5c-0.1,0.2-0.2,0.3-0.3,0.4l-12.3,5.5
	C26.8,36,26.7,36,26.6,36z"/>
<path class="st1" d="M30.6,40.5c-0.5,0-1-0.1-1.4-0.4c-0.4-0.3-0.7-0.7-0.9-1.1c-0.2-0.5-0.2-1-0.1-1.5c0.1-0.5,0.3-0.9,0.7-1.3
	c0.4-0.4,0.8-0.6,1.3-0.7c0.5-0.1,1,0,1.5,0.1c0.5,0.2,0.9,0.5,1.1,0.9c0.3,0.4,0.4,0.9,0.4,1.4c0,0.7-0.3,1.3-0.7,1.8
	C31.9,40.2,31.3,40.5,30.6,40.5z M30.6,36.7c-0.2,0-0.5,0.1-0.7,0.2c-0.2,0.1-0.4,0.3-0.5,0.6c-0.1,0.2-0.1,0.5-0.1,0.7
	c0,0.2,0.2,0.5,0.3,0.6c0.2,0.2,0.4,0.3,0.6,0.3c0.2,0,0.5,0,0.7-0.1s0.4-0.3,0.6-0.5c0.1-0.2,0.2-0.4,0.2-0.7
	c0-0.3-0.1-0.6-0.4-0.9C31.3,36.9,30.9,36.7,30.6,36.7z"/>
<path class="st1" d="M38.3,37.6c-0.5,0-1-0.1-1.4-0.4c-0.4-0.3-0.7-0.7-0.9-1.1c-0.2-0.5-0.2-1-0.1-1.5c0.1-0.5,0.3-0.9,0.7-1.3
	c0.4-0.4,0.8-0.6,1.3-0.7c0.5-0.1,1,0,1.5,0.1c0.5,0.2,0.9,0.5,1.1,0.9c0.3,0.4,0.4,0.9,0.4,1.4c0,0.7-0.3,1.3-0.7,1.8
	C39.6,37.4,39,37.6,38.3,37.6z M38.3,33.9c-0.2,0-0.5,0.1-0.7,0.2c-0.2,0.1-0.4,0.3-0.5,0.6c-0.1,0.2-0.1,0.5-0.1,0.7
	c0,0.2,0.2,0.5,0.3,0.6c0.2,0.2,0.4,0.3,0.6,0.3c0.2,0,0.5,0,0.7-0.1c0.2-0.1,0.4-0.3,0.6-0.5c0.1-0.2,0.2-0.4,0.2-0.7
	c0-0.3-0.1-0.6-0.4-0.9C39,34,38.7,33.9,38.3,33.9L38.3,33.9z"/>
<path class="st1" d="M27.6,32.3c-0.1,0-0.2,0-0.3-0.1C27.1,32.1,27,32,27,31.9l-3.4-7.7c-0.1-0.2-0.1-0.3,0-0.5
	c0.1-0.2,0.2-0.3,0.3-0.4l7.7-3.4c0.1,0,0.2-0.1,0.2-0.1c0.1,0,0.2,0,0.2,0c0.1,0,0.2,0.1,0.2,0.1c0.1,0.1,0.1,0.1,0.1,0.2l3.4,7.7
	c0,0.1,0.1,0.2,0.1,0.2c0,0.1,0,0.2,0,0.2c0,0.1-0.1,0.2-0.1,0.2c-0.1,0.1-0.1,0.1-0.2,0.1l-7.7,3.4C27.7,32.3,27.7,32.3,27.6,32.3z
	 M25,24.3l2.9,6.5l6.5-2.9l-2.9-6.5L25,24.3z"/>
<path class="st1" d="M29.3,25.9c-0.1,0-0.2,0-0.3-0.1c-0.1-0.1-0.2-0.2-0.2-0.3l-1.4-3c-0.1-0.2-0.1-0.3,0-0.5
	c0.1-0.2,0.2-0.3,0.3-0.4c0.2-0.1,0.3-0.1,0.5,0c0.2,0.1,0.3,0.2,0.4,0.3l1.4,3c0,0.1,0.1,0.2,0.1,0.3c0,0.1,0,0.2-0.1,0.3
	c-0.1,0.1-0.1,0.2-0.2,0.2C29.5,25.9,29.4,25.9,29.3,25.9L29.3,25.9z"/>
<path class="st0" d="M28.9,11.1l-7.7,3.4l3.4,7.7l7.7-3.4L28.9,11.1z"/>
<path class="st1" d="M23.1,22.3c-0.1,0-0.2,0-0.3-0.1c-0.1-0.1-0.2-0.2-0.2-0.3L19,14.3c-0.1-0.2-0.1-0.3,0-0.5
	c0.1-0.2,0.2-0.3,0.3-0.4L27,10c0.1,0,0.2-0.1,0.2-0.1c0.1,0,0.2,0,0.2,0c0.1,0,0.2,0.1,0.2,0.1c0.1,0.1,0.1,0.1,0.1,0.2l3.4,7.7
	c0,0.1,0.1,0.2,0.1,0.2c0,0.1,0,0.2,0,0.2c0,0.1-0.1,0.2-0.1,0.2c-0.1,0.1-0.1,0.1-0.2,0.1l-7.7,3.4C23.2,22.3,23.1,22.3,23.1,22.3z
	 M20.5,14.3l2.9,6.5l6.5-2.9L27,11.4L20.5,14.3z"/>
<path class="st1" d="M24.8,15.9c-0.1,0-0.2,0-0.3-0.1c-0.1-0.1-0.2-0.2-0.2-0.3l-1.4-3c0-0.1-0.1-0.2-0.1-0.2c0-0.1,0-0.2,0-0.2
	c0-0.1,0.1-0.2,0.1-0.2c0.1-0.1,0.1-0.1,0.2-0.1c0.1,0,0.2-0.1,0.2-0.1c0.1,0,0.2,0,0.2,0c0.1,0,0.2,0.1,0.2,0.1
	C23.9,11.9,24,12,24,12l1.4,3c0,0.1,0.1,0.2,0.1,0.3s0,0.2-0.1,0.3c-0.1,0.1-0.1,0.2-0.2,0.2C25,15.9,24.9,15.9,24.8,15.9L24.8,15.9
	z"/>
</svg>
