<?xml version="1.0" encoding="utf-8"?>
<!-- Generator: Adobe Illustrator 24.0.0, SVG Export Plug-In . SVG Version: 6.00 Build 0)  -->
<svg version="1.1" id="图层_1" xmlns="http://www.w3.org/2000/svg" xmlns:xlink="http://www.w3.org/1999/xlink" x="0px" y="0px"
	 viewBox="0 0 116 52" style="enable-background:new 0 0 116 52;" xml:space="preserve">
<style type="text/css">
	.st0{fill:#D5E9FA;}
	.st1{fill:#2C3C59;}
</style>
<path class="st0" d="M21.9,15.1v9.1l-7.3,3L7.8,24v-9l6.8-3L21.9,15.1z"/>
<path class="st1" d="M14.6,25.9c-0.1,0-0.1,0-0.3,0l-7.9-3.3c-0.1,0-0.3-0.1-0.4-0.3c-0.1-0.1-0.1-0.3-0.1-0.4v-8.7
	c0-0.1,0-0.3,0.1-0.4c0.1-0.1,0.3-0.3,0.4-0.3l7.9-3.3c0.1-0.1,0.4-0.1,0.6,0l8.4,3.3c0.1,0,0.3,0.1,0.4,0.3
	c0.1,0.1,0.1,0.3,0.1,0.4v8.7c0,0.1,0,0.3-0.1,0.4c-0.1,0.1-0.3,0.3-0.4,0.3l-8.4,3.3C14.7,25.9,14.6,25.9,14.6,25.9z M7.4,21.3l7,3
	l7.6-3v-7.6l-7.6-2.9l-7,2.9C7.4,13.8,7.4,21.3,7.4,21.3z"/>
<path class="st1" d="M14.6,25.9c-0.1,0-0.4-0.1-0.6-0.3c-0.1-0.1-0.3-0.3-0.3-0.6v-8.1l-7.3-3c-0.1,0-0.3-0.1-0.4-0.3
	c-0.1-0.1-0.1-0.3-0.1-0.4c0-0.1,0-0.1,0-0.3s0.1-0.1,0.1-0.3c0.1-0.1,0.3-0.1,0.4-0.1s0.1,0,0.3,0c0.1,0,0.1,0,0.3,0l7.6,3.2
	l8.1-3.2c0.1-0.1,0.4-0.1,0.6,0c0.1,0.1,0.3,0.3,0.4,0.4c0.1,0.1,0,0.4,0,0.6c-0.1,0.1-0.3,0.3-0.4,0.4l-7.9,3v8.1
	c0,0.1-0.1,0.4-0.3,0.6C15,25.9,14.7,25.9,14.6,25.9z"/>
<path class="st1" d="M16.1,19.7c-0.1,0-0.3,0-0.4-0.1c-0.1,0-0.3-0.1-0.3-0.3l-1.5-2.3c0-0.1-0.1-0.1-0.1-0.3c0-0.1,0-0.3,0-0.3
	c0-0.1,0.1-0.3,0.1-0.3c0.1-0.1,0.1-0.1,0.3-0.1l8.4-3.3c0.1,0,0.1,0,0.3,0c0.1,0,0.1,0,0.3,0c0.1,0,0.1,0.1,0.3,0.1
	c0.1,0.1,0.1,0.1,0.1,0.3s0,0.1,0,0.3c0,0.1,0,0.1,0,0.3c0,0.1-0.1,0.1-0.1,0.3C23.3,14,23.3,14,23.2,14l-7.6,2.9l0.7,1l7.9-3
	c0.1-0.1,0.4-0.1,0.6,0c0.1,0.1,0.3,0.3,0.4,0.4c0.1,0.1,0.1,0.4,0,0.6c-0.1,0.1-0.3,0.3-0.4,0.4l-8.4,3.3
	C16.3,19.7,16.3,19.7,16.1,19.7z"/>
<path class="st1" d="M24.7,16.4c-0.1,0-0.3,0-0.4-0.1c-0.1,0-0.3-0.1-0.3-0.3l-1.5-2.3c0-0.1-0.1-0.1-0.1-0.3c0-0.1,0-0.3,0-0.3
	c0-0.1,0-0.1,0.1-0.3c0-0.1,0.1-0.1,0.3-0.3c0.1,0,0.1-0.1,0.3-0.1c0.1,0,0.3,0,0.3,0c0.1,0,0.1,0,0.3,0.1c0.1,0,0.1,0.1,0.3,0.3
	l1.5,2.3c0.1,0.1,0.1,0.3,0.1,0.4s0,0.3-0.1,0.4c0,0.1-0.1,0.3-0.3,0.3C25,16.4,24.8,16.4,24.7,16.4L24.7,16.4z"/>
<path class="st1" d="M13.2,19.6c-0.1,0-0.1,0-0.3,0l-7.9-3.2c-0.1,0-0.1-0.1-0.3-0.1c-0.1-0.1-0.1-0.1-0.1-0.3s0-0.1,0-0.3
	c0-0.1,0-0.1,0-0.3s0.1-0.1,0.1-0.3C5,15,5,15,5.1,15c0.1-0.1,0.4-0.1,0.6,0l7.3,2.9l0.6-1l-7-2.9c-0.1,0-0.1-0.1-0.3-0.1
	c-0.1-0.1-0.1-0.1-0.1-0.3c0-0.1,0-0.1,0-0.3c0-0.1,0-0.1,0-0.3c0-0.1,0.1-0.1,0.1-0.3c0.1-0.1,0.1-0.1,0.3-0.1s0.1,0,0.3,0
	c0.1,0,0.1,0,0.3,0l7.9,3.2c0.1,0,0.1,0.1,0.3,0.1c0.1,0.1,0.1,0.1,0.1,0.3c0,0.1,0,0.3,0,0.3c0,0.1,0,0.3-0.1,0.3L13.8,19
	c0,0.3-0.1,0.4-0.3,0.4C13.5,19.6,13.4,19.6,13.2,19.6z"/>
<path class="st1" d="M5.2,16.4c-0.1,0-0.3,0-0.4-0.1c-0.1-0.1-0.3-0.1-0.3-0.3c0-0.1-0.1-0.3-0.1-0.4c0-0.1,0-0.3,0.1-0.4l1.4-2.2
	c0.1-0.1,0.3-0.3,0.6-0.3c0.1,0,0.4,0,0.6,0.1c0.1,0.1,0.3,0.3,0.3,0.6c0,0.1,0,0.4-0.1,0.6l-1.4,2.2c-0.1,0.1-0.1,0.1-0.3,0.3
	C5.4,16.5,5.2,16.4,5.2,16.4z"/>
<path class="st1" d="M14.6,14c-0.1,0-0.4-0.1-0.6-0.3c-0.1-0.1-0.3-0.3-0.3-0.6v-5c0-0.1,0-0.1,0-0.3c0-0.1,0.1-0.1,0.1-0.3
	c0.1-0.1,0.1-0.1,0.3-0.1c0.1,0,0.1,0,0.3,0c0.1,0,0.4,0.1,0.6,0.3c0.1,0.1,0.3,0.3,0.3,0.6v5c0,0.1-0.1,0.4-0.3,0.6
	C15,13.9,14.9,14,14.6,14z"/>
<path class="st1" d="M14.6,14.2c-0.1,0-0.3,0-0.4-0.1l-1-0.8c-0.1-0.1-0.3-0.3-0.3-0.6c0-0.1,0-0.4,0.1-0.6c0.1-0.1,0.3-0.3,0.6-0.3
	c0.1,0,0.4,0,0.6,0.1l1,0.8c0.1,0.1,0.3,0.3,0.3,0.4s0,0.3,0,0.4c0,0.1-0.1,0.3-0.3,0.4C14.9,14,14.7,14.2,14.6,14.2z"/>
<path class="st1" d="M14.6,14.2c-0.1,0-0.3,0-0.4-0.1c-0.1-0.1-0.3-0.3-0.3-0.4s0-0.3,0-0.4s0.1-0.3,0.3-0.4l1-0.8
	c0.1,0,0.1-0.1,0.3-0.1c0.1,0,0.1,0,0.3,0c0.1,0,0.1,0,0.3,0.1c0.1,0,0.1,0.1,0.3,0.1c0,0.1,0.1,0.1,0.1,0.3s0,0.1,0,0.3
	s0,0.1-0.1,0.3c0,0.1-0.1,0.1-0.1,0.3l-1,0.7C15,14,14.7,14.2,14.6,14.2z"/>
<path class="st0" d="M45.8,14.9V24l-7.4,3l-6.8-3.3v-9l6.8-3L45.8,14.9z"/>
<path class="st1" d="M38.3,25.6c-0.1,0-0.1,0-0.3,0l-7.9-3.3c-0.1,0-0.3-0.1-0.4-0.3c-0.1-0.1-0.1-0.3-0.1-0.4v-8.7
	c0-0.1,0-0.3,0.1-0.4c0.1-0.1,0.1-0.3,0.4-0.3l7.9-3.3c0.1-0.1,0.4-0.1,0.6,0l8.4,3.3c0.1,0,0.3,0.1,0.4,0.3
	c0.1,0.1,0.1,0.3,0.1,0.4v8.7c0,0.1,0,0.3-0.1,0.4c-0.1,0.1-0.3,0.3-0.4,0.3l-8.4,3.3C38.6,25.6,38.5,25.6,38.3,25.6z M31.3,21.1
	l7,3l7.6-3v-7.6l-7.6-3l-7,2.9V21.1z"/>
<path class="st1" d="M38.3,25.6c-0.1,0-0.4-0.1-0.6-0.3c-0.1-0.1-0.3-0.3-0.3-0.6v-8.1l-7.4-3c-0.1-0.1-0.3-0.3-0.4-0.4
	c-0.1-0.1-0.1-0.4,0-0.6c0.1-0.1,0.3-0.3,0.4-0.4c0.1-0.1,0.4-0.1,0.6,0l7.7,3l8.1-3.2c0.1,0,0.1,0,0.3,0s0.1,0,0.3,0
	c0.1,0,0.1,0.1,0.3,0.1c0.1,0.1,0.1,0.1,0.1,0.3s0,0.1,0,0.3s0,0.1,0,0.3c0,0.1-0.1,0.1-0.1,0.3c-0.1,0.1-0.1,0.1-0.3,0.1l-7.9,3.2
	v8.3c0,0.1-0.1,0.4-0.3,0.6C38.7,25.6,38.6,25.6,38.3,25.6z"/>
<path class="st1" d="M40,19.4c-0.1,0-0.3,0-0.4-0.1c-0.1,0-0.3-0.1-0.3-0.3l-1.5-2.3c0-0.1-0.1-0.1-0.1-0.3c0-0.1,0-0.3,0-0.3
	c0-0.1,0.1-0.3,0.1-0.3c0.1-0.1,0.1-0.1,0.3-0.1l8.4-3.3c0.1,0,0.1,0,0.3,0c0.1,0,0.1,0,0.3,0c0.1,0,0.1,0.1,0.3,0.1
	c0.1,0.1,0.1,0.1,0.1,0.3c0,0.1,0,0.1,0,0.3c0,0.1,0,0.1,0,0.3c0,0.1-0.1,0.1-0.1,0.3c-0.1,0.1-0.1,0.1-0.3,0.1l-7.4,2.9l0.7,1
	l7.9-3c0.1,0,0.1,0,0.3,0c0.1,0,0.1,0,0.3,0c0.1,0,0.1,0.1,0.3,0.1c0.1,0.1,0.1,0.1,0.1,0.3c0,0.1,0,0.1,0,0.3s0,0.1,0,0.3
	c0,0.1-0.1,0.1-0.1,0.3C48.8,16,48.8,16,48.7,16l-8.4,3.3C40.1,19.3,40,19.4,40,19.4z"/>
<path class="st1" d="M48.5,16.1c-0.1,0-0.3,0-0.4-0.1c-0.1,0-0.3-0.1-0.3-0.3l-1.5-2.3c0-0.1-0.1-0.1-0.1-0.3c0-0.1,0-0.1,0-0.3
	c0-0.1,0-0.1,0.1-0.3c0-0.1,0.1-0.1,0.3-0.3c0.1,0,0.1-0.1,0.3-0.1c0.1,0,0.1,0,0.3,0c0.1,0,0.1,0,0.3,0.1c0.1,0,0.1,0.1,0.3,0.3
	l1.5,2.3c0,0.1,0.1,0.1,0.1,0.3c0,0.1,0,0.1,0,0.3s0,0.1-0.1,0.3c0,0.1-0.1,0.1-0.3,0.3C48.8,16.1,48.7,16.1,48.5,16.1z"/>
<path class="st1" d="M37,19.3c-0.1,0-0.1,0-0.3,0l-7.9-3.2c-0.1-0.1-0.3-0.3-0.4-0.4c-0.1-0.1-0.1-0.4,0-0.6s0.3-0.3,0.4-0.4
	c0.1-0.1,0.4-0.1,0.6,0l7.3,2.9l0.6-1l-7-2.8c-0.1,0-0.1-0.1-0.3-0.1c-0.1-0.1-0.1-0.1-0.1-0.3c0-0.1,0-0.1,0-0.3c0-0.1,0-0.1,0-0.3
	s0.1-0.1,0.1-0.3c0.1-0.1,0.1-0.1,0.3-0.1c0.1,0,0.1,0,0.3,0c0.1,0,0.1,0,0.3,0l7.9,3.2c0.1,0,0.1,0.1,0.3,0.1C39,16,39,16,39,16.1
	c0,0.1,0,0.3,0,0.3c0,0.1,0,0.3-0.1,0.3l-1.4,2.2c-0.1,0.1-0.1,0.1-0.3,0.3C37.2,19.3,37.1,19.3,37,19.3z"/>
<path class="st1" d="M29,16.1c-0.1,0-0.3,0-0.4-0.1c-0.1-0.1-0.3-0.1-0.3-0.3c0-0.1-0.1-0.3-0.1-0.4c0-0.1,0-0.3,0.1-0.4l1.4-2.2
	c0.1-0.1,0.3-0.3,0.6-0.3c0.1,0,0.4,0,0.6,0.1c0.1,0.1,0.3,0.3,0.3,0.4s0,0.4-0.1,0.6l-1.4,2.2c-0.1,0.1-0.1,0.1-0.3,0.3
	C29.2,16,29.1,16.1,29,16.1z"/>
<path class="st1" d="M38.5,13.6c-0.1,0-0.4-0.1-0.6-0.3c-0.1-0.1-0.3-0.3-0.3-0.6v-5c0-0.1,0.1-0.4,0.3-0.6C38.1,7.1,38.2,7,38.5,7
	c0.1,0,0.4,0.1,0.6,0.3c0.1,0.1,0.3,0.3,0.3,0.6v5c0,0.1,0,0.1,0,0.3c0,0.1-0.1,0.1-0.1,0.3c-0.1,0.1-0.1,0.1-0.3,0.1
	C38.6,13.6,38.6,13.6,38.5,13.6L38.5,13.6z"/>
<path class="st1" d="M38.5,13.9c-0.1,0-0.3,0-0.4-0.1L37,12.9c-0.1,0-0.1-0.1-0.3-0.3c0-0.1-0.1-0.1-0.1-0.3s0-0.3,0-0.3
	c0-0.1,0.1-0.1,0.1-0.3c0-0.1,0.1-0.1,0.3-0.1s0.1-0.1,0.3-0.1c0.1,0,0.3,0,0.3,0c0.1,0,0.1,0.1,0.3,0.1l1,0.8
	c0.1,0.1,0.3,0.3,0.3,0.4s0,0.3,0,0.4c0,0.1-0.1,0.3-0.3,0.4C38.7,13.8,38.6,13.9,38.5,13.9z"/>
<path class="st1" d="M38.5,13.9c-0.1,0-0.3,0-0.4-0.1c-0.1-0.1-0.3-0.3-0.3-0.4s0-0.3,0-0.4s0.1-0.3,0.3-0.4l1-0.8
	c0.1,0,0.1-0.1,0.3-0.1c0.1,0,0.1,0,0.3,0s0.1,0,0.3,0.1c0.1,0,0.1,0.1,0.3,0.1c0,0.1,0.1,0.1,0.1,0.3c0,0.1,0,0.1,0,0.3
	s0,0.1-0.1,0.3c0,0.1-0.1,0.1-0.1,0.3l-1,0.8C38.7,13.8,38.6,13.9,38.5,13.9z"/>
<path class="st0" d="M34.2,32.5v9.1l-7.3,3l-6.6-3.2v-9l6.8-3L34.2,32.5z"/>
<path class="st1" d="M26.9,43.4c-0.1,0-0.1,0-0.3,0l-7.9-3.3c-0.1,0-0.3-0.1-0.4-0.3c-0.1-0.1-0.1-0.3-0.1-0.4v-8.7
	c0-0.1,0-0.3,0.1-0.4c0.1-0.1,0.1-0.3,0.4-0.3l7.9-3.3c0.1-0.1,0.4-0.1,0.6,0l8.4,3.3c0.1,0,0.3,0.1,0.4,0.3
	c0.1,0.1,0.1,0.3,0.1,0.4v8.7c0,0.1,0,0.3-0.1,0.4c-0.1,0.1-0.3,0.3-0.4,0.3l-8.4,3.3C27.2,43.4,27,43.4,26.9,43.4z M19.8,38.9l7,3
	l7.6-3v-7.6l-7.6-2.9l-7,2.9V38.9z"/>
<path class="st1" d="M26.9,43.4c-0.1,0-0.4-0.1-0.6-0.3c-0.1-0.1-0.3-0.3-0.3-0.6v-8.1l-7.4-3c-0.1,0-0.3-0.1-0.4-0.3
	c-0.1-0.1-0.1-0.3-0.1-0.4c0-0.1,0-0.1,0-0.3c0-0.1,0.1-0.1,0.1-0.3c0.1-0.1,0.1-0.1,0.3-0.1c0.1,0,0.1,0,0.3,0c0.1,0,0.1,0,0.3,0
	l7.6,3.2l8.1-3.2c0.1,0,0.1,0,0.3,0c0.1,0,0.1,0,0.3,0s0.1,0.1,0.3,0.1c0.1,0.1,0.1,0.1,0.1,0.3c0,0.1,0,0.1,0,0.3s0,0.1,0,0.3
	c0,0.1-0.1,0.1-0.1,0.3c-0.1,0.1-0.1,0.1-0.3,0.1l-7.9,3v8.1c0,0.1-0.1,0.4-0.3,0.6C27.3,43.3,27.2,43.4,26.9,43.4z"/>
<path class="st1" d="M28.5,37.1c-0.1,0-0.3,0-0.4-0.1c-0.1,0-0.3-0.1-0.3-0.3l-1.5-2.3c0-0.1-0.1-0.1-0.1-0.3s0-0.3,0-0.3
	c0-0.1,0.1-0.3,0.1-0.3c0.1-0.1,0.1-0.1,0.3-0.1L35,30c0.1-0.1,0.4,0,0.6,0c0.1,0.1,0.3,0.3,0.4,0.4c0.1,0.1,0.1,0.4,0,0.6
	c-0.1,0.1-0.3,0.3-0.4,0.4L28,34.3l0.7,1l7.9-3c0.1-0.1,0.4-0.1,0.6,0c0.1,0.1,0.3,0.3,0.4,0.4c0.1,0.1,0,0.4,0,0.6
	c-0.1,0.1-0.3,0.3-0.4,0.4l-8.4,3.3C28.7,37.1,28.5,37.1,28.5,37.1z"/>
<path class="st1" d="M37.1,33.8c-0.1,0-0.3,0-0.4-0.1c-0.1,0-0.3-0.1-0.3-0.3L34.9,31c0-0.1-0.1-0.1-0.1-0.3c0-0.1,0-0.1,0-0.3
	s0-0.1,0.1-0.3c0-0.1,0.1-0.1,0.3-0.3c0.1,0,0.1-0.1,0.3-0.1s0.1,0,0.3,0c0.1,0,0.1,0,0.3,0.1c0.1,0,0.1,0.1,0.3,0.3l1.5,2.3
	c0.1,0.1,0.1,0.3,0.1,0.4s0,0.3-0.1,0.4c0,0.1-0.1,0.3-0.3,0.3C37.4,33.8,37.2,33.8,37.1,33.8z"/>
<path class="st1" d="M25.5,36.9c-0.1,0-0.1,0-0.3,0l-7.9-3.2c-0.1,0-0.1-0.1-0.3-0.1C17,33.5,17,33.5,17,33.3
	c-0.1-0.1-0.1-0.4,0-0.6c0.1-0.1,0.3-0.3,0.4-0.4c0.1-0.1,0.4-0.1,0.6,0l7.3,2.9l0.6-1l-7-2.9c-0.1,0-0.1-0.1-0.3-0.1
	c-0.1-0.1-0.1-0.1-0.1-0.3c-0.1-0.1-0.1-0.4,0-0.6c0.1-0.1,0.3-0.3,0.4-0.4c0.1-0.1,0.4-0.1,0.6,0l8,3.2c0.1,0,0.1,0.1,0.3,0.1
	c0.1,0.1,0.1,0.1,0.1,0.3s0,0.3,0,0.3c0,0.1,0,0.3-0.1,0.3l-1.4,2.2c-0.1,0.1-0.1,0.1-0.3,0.3C25.8,36.9,25.6,36.9,25.5,36.9z"/>
<path class="st1" d="M17.5,33.8c-0.1,0-0.3,0-0.4-0.1c-0.1-0.1-0.3-0.1-0.3-0.3s-0.1-0.3-0.1-0.4c0-0.1,0-0.3,0.1-0.4l1.4-2.2
	c0-0.1,0.1-0.1,0.3-0.3c0.1,0,0.1-0.1,0.3-0.1s0.1,0,0.3,0s0.1,0,0.3,0.1c0.1,0,0.1,0.1,0.3,0.3c0,0.1,0.1,0.1,0.1,0.3s0,0.1,0,0.3
	c0,0.1,0,0.1-0.1,0.3l-1.4,2.2c-0.1,0.1-0.1,0.1-0.3,0.3C17.8,33.8,17.6,33.8,17.5,33.8z"/>
<path class="st1" d="M27,31.4c-0.1,0-0.4-0.1-0.6-0.3c-0.1-0.1-0.3-0.3-0.3-0.6v-5c0-0.1,0-0.1,0-0.3s0.1-0.1,0.1-0.3
	c0.1-0.1,0.1-0.1,0.3-0.1c0.1,0,0.1,0,0.3,0s0.4,0.1,0.6,0.3c0.1,0.1,0.3,0.3,0.3,0.6v5c0,0.1,0,0.1,0,0.3c0,0.1-0.1,0.1-0.1,0.3
	c-0.1,0.1-0.1,0.1-0.3,0.1C27.2,31.4,27,31.4,27,31.4L27,31.4z"/>
<path class="st1" d="M26.9,31.6c-0.1,0-0.3,0-0.4-0.1l-1-0.8c-0.1-0.1-0.3-0.3-0.3-0.6c0-0.1,0-0.4,0.1-0.6c0.1-0.1,0.3-0.3,0.6-0.3
	c0.1,0,0.4,0,0.6,0.1l1,0.8c0.1,0.1,0.3,0.3,0.3,0.4c0,0.1,0,0.3,0,0.4c0,0.1-0.1,0.3-0.3,0.4C27.3,31.6,27.2,31.6,26.9,31.6z"/>
<path class="st1" d="M27,31.6c-0.1,0-0.3,0-0.4-0.1c-0.1-0.1-0.3-0.3-0.3-0.4c0-0.1,0-0.3,0-0.4c0-0.1,0.1-0.3,0.3-0.4l1-0.8
	c0.1-0.1,0.4-0.1,0.6-0.1c0.1,0,0.4,0.1,0.6,0.3c0.1,0.1,0.1,0.4,0.1,0.6s-0.1,0.4-0.3,0.6l-1,0.8C27.3,31.6,27.2,31.6,27,31.6z"/>
</svg>
