<?xml version="1.0" encoding="utf-8"?>
<!-- Generator: Adobe Illustrator 24.0.0, SVG Export Plug-In . SVG Version: 6.00 Build 0)  -->
<svg version="1.1" id="图层_1" xmlns="http://www.w3.org/2000/svg" xmlns:xlink="http://www.w3.org/1999/xlink" x="0px" y="0px"
	 viewBox="0 0 116 52" style="enable-background:new 0 0 116 52;" xml:space="preserve">
<style type="text/css">
	.st0{fill:#D5E9FA;}
	.st1{fill:#2C3C59;}
</style>
<path class="st0" d="M31.6,25.6v12.9l-10.4,4.4l-9.6-4.6l-0.1-12.7l9.6-4.3L31.6,25.6z"/>
<path class="st1" d="M21.1,40.5c-0.1,0-0.2,0-0.3-0.1L9.7,35.8c-0.1-0.1-0.2-0.1-0.3-0.3c-0.1-0.1-0.1-0.2-0.1-0.4V22.8
	c0-0.1,0-0.3,0.1-0.4c0.1-0.1,0.2-0.2,0.3-0.3l11.2-4.6c0.2-0.1,0.3-0.1,0.5,0l12,4.6c0.1,0,0.2,0.1,0.3,0.3
	c0.1,0.1,0.1,0.2,0.1,0.4v12.3c0,0.1,0,0.3-0.1,0.4c-0.1,0.1-0.2,0.2-0.3,0.3l-12,4.7C21.3,40.5,21.2,40.5,21.1,40.5z M10.6,34.7
	l10.5,4.4l11.3-4.4V23.3l-11.3-4.4l-10.5,4.4V34.7z"/>
<path class="st1" d="M27.5,30.4c-0.2,0-0.4-0.1-0.5-0.2c-0.1-0.1-0.2-0.3-0.2-0.5v-4.2l-11.6-4.5c-0.2-0.1-0.3-0.2-0.4-0.4
	c-0.1-0.2-0.1-0.4,0-0.5c0.1-0.2,0.2-0.3,0.4-0.4c0.2-0.1,0.4-0.1,0.5,0l12,4.6c0.1,0,0.2,0.1,0.3,0.3c0.1,0.1,0.1,0.2,0.1,0.4v4.6
	c0,0.1,0,0.2-0.1,0.3c0,0.1-0.1,0.2-0.1,0.2c-0.1,0.1-0.1,0.1-0.2,0.1C27.7,30.4,27.6,30.4,27.5,30.4z"/>
<path class="st1" d="M21.1,40.5c-0.2,0-0.4-0.1-0.5-0.2c-0.1-0.1-0.2-0.3-0.2-0.5V27.9L9.7,23.4c-0.2-0.1-0.3-0.2-0.4-0.4
	c-0.1-0.2-0.1-0.4,0-0.5c0.1-0.2,0.2-0.3,0.4-0.4c0.2-0.1,0.4-0.1,0.5,0l10.9,4.5l11.7-4.5c0.1,0,0.2,0,0.3,0c0.1,0,0.2,0,0.3,0.1
	c0.1,0,0.2,0.1,0.2,0.2c0.1,0.1,0.1,0.1,0.1,0.2c0,0.1,0,0.2,0,0.3c0,0.1,0,0.2-0.1,0.3c0,0.1-0.1,0.2-0.2,0.2
	c-0.1,0.1-0.1,0.1-0.2,0.1l-11.6,4.5v11.9c0,0.1,0,0.2-0.1,0.3c0,0.1-0.1,0.2-0.1,0.2c-0.1,0.1-0.1,0.1-0.2,0.1
	C21.3,40.5,21.2,40.5,21.1,40.5z"/>
<path class="st0" d="M24.8,14.6c0,0.4-0.1,0.9-0.2,1.3c-0.2,0.8-1.4,2.5-3.4,4.4c-1.8-1.8-2.9-3.5-3.3-4.4c-0.1-0.4-0.2-0.8-0.2-1.2
	c0-0.4,0.1-0.9,0.3-1.3c0.2-0.4,0.4-0.9,0.8-1.2c0.3-0.3,0.7-0.6,1.2-0.8c0.4-0.2,0.9-0.3,1.3-0.3c1.6,0,2.7,1.2,2.7,1.3
	c0.3,0.3,0.5,0.7,0.6,1.1C24.7,14,24.8,14.3,24.8,14.6z"/>
<path class="st1" d="M20.6,21.1c-0.1,0-0.2,0-0.3-0.1c-0.1,0-0.2-0.1-0.2-0.2c-1.9-2-3.4-3.9-3.8-5.1c-0.2-0.5-0.3-1-0.3-1.5
	c0-0.6,0.1-1.1,0.3-1.6l0,0l0,0c0.2-0.6,0.6-1.1,1-1.6c0.4-0.4,1-0.8,1.5-1c0.6-0.2,1.2-0.4,1.8-0.4h0c2.1,0,3.4,1.5,3.6,1.7
	c0.4,0.4,0.6,0.9,0.8,1.4l0,0c0,0,0,0,0,0c0.1,0.4,0.1,0.8,0.2,1.2c0,0.6-0.1,1.1-0.2,1.7c-0.3,1-1.6,3.1-3.9,5.2
	C20.9,21,20.8,21.1,20.6,21.1z M17.6,13.1L17.6,13.1c-0.2,0.4-0.2,0.8-0.2,1.2c0,0.4,0.1,0.7,0.2,1.1c0.3,0.7,1.2,2.2,3,4.1
	c1.9-1.9,2.9-3.5,3.1-4.1c0.1-0.4,0.2-0.8,0.2-1.3c0-0.3-0.1-0.6-0.1-0.9c-0.1-0.4-0.3-0.7-0.6-1c0,0-1-1.2-2.5-1.2h0
	c-0.4,0-0.9,0.1-1.2,0.3c-0.4,0.2-0.8,0.4-1.1,0.7C18,12.3,17.8,12.7,17.6,13.1L17.6,13.1z"/>
<path class="st1" d="M20.7,16.5c-0.4,0-0.9-0.1-1.2-0.4c-0.4-0.2-0.6-0.6-0.8-1c-0.2-0.4-0.2-0.8-0.1-1.3c0.1-0.4,0.3-0.8,0.6-1.1
	c0.3-0.3,0.7-0.5,1.1-0.6c0.4-0.1,0.9,0,1.3,0.1s0.7,0.4,1,0.8c0.2,0.4,0.4,0.8,0.4,1.2c0,0.6-0.2,1.1-0.6,1.6
	C21.8,16.3,21.3,16.5,20.7,16.5z M20.7,13.5c-0.2,0-0.3,0-0.5,0.1c-0.1,0.1-0.2,0.2-0.3,0.4c-0.1,0.2-0.1,0.3,0,0.5
	c0,0.2,0.1,0.3,0.2,0.4c0.1,0.1,0.3,0.2,0.4,0.2c0.2,0,0.3,0,0.5,0c0.2-0.1,0.3-0.2,0.4-0.3c0.1-0.1,0.1-0.3,0.1-0.5
	c0-0.2-0.1-0.4-0.2-0.6C21.1,13.5,20.9,13.5,20.7,13.5z"/>
<path class="st1" d="M27.7,15c-0.2,0-0.4-0.1-0.5-0.2c-0.1-0.1-0.2-0.3-0.2-0.5c0-0.2,0.1-0.4,0.2-0.5c0.1-0.1,0.3-0.2,0.5-0.2
	l6.7,0h0c0.2,0,0.4,0.1,0.5,0.2c0.1,0.1,0.2,0.3,0.2,0.5c0,0.2-0.1,0.4-0.2,0.5c-0.1,0.1-0.3,0.2-0.5,0.2L27.7,15L27.7,15z"/>
<path class="st1" d="M34.7,14.9c-0.1,0-0.2,0-0.3-0.1c-0.1,0-0.2-0.1-0.2-0.2l-1.4-1.9c-0.1-0.1-0.2-0.3-0.1-0.5
	c0-0.2,0.1-0.3,0.3-0.5c0.1-0.1,0.3-0.2,0.5-0.1c0.2,0,0.3,0.1,0.5,0.3l1.4,1.9c0.1,0.1,0.1,0.2,0.1,0.3c0,0.1,0,0.3-0.1,0.4
	c-0.1,0.1-0.1,0.2-0.3,0.3C35,14.9,34.9,14.9,34.7,14.9z"/>
<path class="st1" d="M33.3,16.8c-0.1,0-0.3,0-0.4-0.1c-0.1-0.1-0.2-0.2-0.3-0.3c-0.1-0.1-0.1-0.2-0.1-0.4c0-0.1,0.1-0.2,0.1-0.3
	l1.4-1.9c0.1-0.1,0.3-0.2,0.5-0.3c0.2,0,0.4,0,0.5,0.1c0.1,0.1,0.2,0.3,0.3,0.5c0,0.2,0,0.4-0.1,0.5l-1.4,1.9
	c-0.1,0.1-0.1,0.1-0.2,0.2C33.5,16.8,33.4,16.8,33.3,16.8z"/>
<path class="st1" d="M13.7,15.2l-6.7,0c-0.2,0-0.4-0.1-0.5-0.2c-0.1-0.1-0.2-0.3-0.2-0.5s0.1-0.4,0.2-0.5c0.1-0.1,0.3-0.2,0.5-0.2
	l6.7,0c0.2,0,0.4,0.1,0.5,0.2c0.1,0.1,0.2,0.3,0.2,0.5c0,0.2-0.1,0.4-0.2,0.5C14,15.1,13.9,15.2,13.7,15.2L13.7,15.2z"/>
<path class="st1" d="M6.7,15.1c-0.1,0-0.3,0-0.4-0.1c-0.1-0.1-0.2-0.2-0.3-0.3C6,14.6,6,14.5,6,14.4c0-0.1,0.1-0.2,0.1-0.3l1.4-1.9
	C7.7,12,7.9,11.9,8,11.9c0.2,0,0.4,0,0.5,0.1c0.1,0.1,0.2,0.3,0.3,0.5c0,0.2,0,0.4-0.1,0.5l-1.4,1.9C7.2,14.9,7.1,15,7,15
	C6.9,15.1,6.8,15.1,6.7,15.1z"/>
<path class="st1" d="M8.1,17c-0.1,0-0.2,0-0.3-0.1c-0.1,0-0.2-0.1-0.2-0.2l-1.4-1.9C6.1,14.8,6,14.7,6,14.7c0-0.1,0-0.2,0-0.3
	c0-0.2,0.1-0.3,0.3-0.5c0.1-0.1,0.3-0.2,0.5-0.1c0.1,0,0.2,0,0.3,0.1c0.1,0,0.1,0.1,0.2,0.2l1.4,1.9c0.1,0.1,0.1,0.2,0.1,0.3
	c0,0.1,0,0.3-0.1,0.4c-0.1,0.1-0.1,0.2-0.3,0.3C8.4,17,8.2,17,8.1,17z"/>
</svg>
