<?xml version="1.0" encoding="utf-8"?>
<!-- Generator: Adobe Illustrator 24.0.0, SVG Export Plug-In . SVG Version: 6.00 Build 0)  -->
<svg version="1.1" id="图层_1" xmlns="http://www.w3.org/2000/svg" xmlns:xlink="http://www.w3.org/1999/xlink" x="0px" y="0px"
	 viewBox="0 0 116 52" style="enable-background:new 0 0 116 52;" xml:space="preserve">
<style type="text/css">
	.st0{fill:#D5E9FA;}
	.st1{fill:#2C3C59;}
</style>
<path class="st0" d="M24.3,23.3v12.4l-10,4.2l-9.1-4.4L5.2,23.3l9.2-4.1L24.3,23.3z"/>
<path class="st1" d="M14.4,37.7c-0.1,0-0.2,0-0.3-0.1L3.4,33.2C3.2,33.1,3.1,33,3,32.9c-0.1-0.1-0.1-0.3-0.1-0.4V20.6
	c0-0.2,0-0.3,0.1-0.4c0.1-0.1,0.2-0.2,0.4-0.3L14,15.5c0.2-0.1,0.4-0.1,0.6,0l11.5,4.4c0.2,0.1,0.3,0.2,0.4,0.3
	c0.1,0.1,0.1,0.3,0.1,0.5v11.8c0,0.2,0,0.3-0.1,0.5c-0.1,0.1-0.2,0.2-0.4,0.3l-11.5,4.5C14.6,37.7,14.5,37.7,14.4,37.7z M4.5,31.9
	l9.9,4.2L25,31.9V21.2l-10.6-4.1l-9.9,4.1V31.9z"/>
<path class="st1" d="M20.5,28c-0.2,0-0.4-0.1-0.6-0.2s-0.2-0.4-0.2-0.6v-3.9L8.7,19.1c-0.2-0.1-0.4-0.2-0.4-0.4
	c-0.1-0.2-0.1-0.4,0-0.6c0.1-0.2,0.2-0.4,0.4-0.4c0.2-0.1,0.4-0.1,0.6,0l11.5,4.4c0.2,0.1,0.3,0.2,0.4,0.3c0.1,0.1,0.1,0.3,0.1,0.5
	v4.4c0,0.2-0.1,0.4-0.2,0.6C20.9,28,20.7,28,20.5,28z"/>
<path class="st1" d="M14.4,37.7c-0.2,0-0.4-0.1-0.6-0.2s-0.2-0.4-0.2-0.6V25.6L3.4,21.4C3.2,21.3,3,21.1,3,20.9
	c-0.1-0.2-0.1-0.4,0-0.6c0.1-0.2,0.2-0.3,0.4-0.4c0.2-0.1,0.4-0.1,0.6,0l10.4,4.3l11.2-4.3c0.2-0.1,0.4-0.1,0.6,0
	c0.2,0.1,0.3,0.2,0.4,0.4c0.1,0.2,0.1,0.4,0,0.6c-0.1,0.2-0.2,0.3-0.4,0.4l-10.9,4.2v11.3c0,0.2-0.1,0.4-0.2,0.6
	C14.8,37.6,14.6,37.7,14.4,37.7z"/>
<path class="st1" d="M31.1,28.1h-1.4c-0.2,0-0.4-0.1-0.6-0.2c-0.2-0.2-0.2-0.4-0.2-0.6c0-0.2,0.1-0.4,0.2-0.6s0.4-0.2,0.6-0.2h1.4
	c0.2,0,0.4,0.1,0.6,0.2s0.2,0.4,0.2,0.6c0,0.2-0.1,0.4-0.2,0.6C31.5,28,31.3,28.1,31.1,28.1z"/>
<path class="st1" d="M40.4,28.1h-2.3c-0.2,0-0.4-0.1-0.6-0.2c-0.2-0.2-0.2-0.4-0.2-0.6c0-0.2,0.1-0.4,0.2-0.6
	c0.2-0.2,0.4-0.2,0.6-0.2h2.3c0.2,0,0.4,0.1,0.6,0.2c0.2,0.2,0.2,0.4,0.2,0.6c0,0.2-0.1,0.4-0.2,0.6C40.8,28,40.6,28.1,40.4,28.1z
	 M35.7,28.1h-2.3c-0.2,0-0.4-0.1-0.6-0.2c-0.2-0.2-0.2-0.4-0.2-0.6c0-0.2,0.1-0.4,0.2-0.6s0.4-0.2,0.6-0.2h2.3
	c0.2,0,0.4,0.1,0.6,0.2c0.2,0.2,0.2,0.4,0.2,0.6c0,0.2-0.1,0.4-0.2,0.6C36.1,28,35.9,28.1,35.7,28.1z"/>
<path class="st1" d="M44.2,28.1h-1.4c-0.2,0-0.4-0.1-0.6-0.2c-0.2-0.2-0.2-0.4-0.2-0.6c0-0.2,0.1-0.4,0.2-0.6
	c0.2-0.2,0.4-0.2,0.6-0.2h1.4c0.2,0,0.4,0.1,0.6,0.2c0.2,0.2,0.2,0.4,0.2,0.6c0,0.2-0.1,0.4-0.2,0.6C44.6,28,44.4,28.1,44.2,28.1z"
	/>
<path class="st1" d="M46,30.6c-0.2,0-0.3,0-0.4-0.1c-0.1-0.1-0.2-0.2-0.3-0.3c-0.1-0.1-0.1-0.3-0.1-0.4c0-0.2,0.1-0.3,0.2-0.4
	l1.8-2.1l-1.8-1.9c-0.1-0.2-0.2-0.4-0.2-0.6c0-0.2,0.1-0.4,0.3-0.5c0.1-0.1,0.3-0.2,0.5-0.2c0.2,0,0.4,0.1,0.5,0.2l2.2,2.5
	c0.1,0.1,0.2,0.3,0.2,0.5c0,0.2-0.1,0.4-0.2,0.5l-2.2,2.7c-0.1,0.1-0.2,0.2-0.3,0.2C46.2,30.6,46.1,30.6,46,30.6z"/>
</svg>
