<?xml version="1.0" encoding="utf-8"?>
<!-- Generator: Adobe Illustrator 24.0.0, SVG Export Plug-In . SVG Version: 6.00 Build 0)  -->
<svg version="1.1" id="图层_1" xmlns="http://www.w3.org/2000/svg" xmlns:xlink="http://www.w3.org/1999/xlink" x="0px" y="0px"
	 viewBox="0 0 116 52" style="enable-background:new 0 0 116 52;" xml:space="preserve">
<style type="text/css">
	.st0{fill:#D5E9FA;}
	.st1{fill:#2C3C59;}
</style>
<path class="st0" d="M32.2,23.9c0,1.6-0.4,3.4-0.5,3.8c-0.7,2.4-4,7.4-9.7,12.8c-5.2-5.4-8.5-10.1-9.5-12.6
	c-0.4-1.1-0.6-2.2-0.7-3.4c0-2,0.6-3.4,0.7-3.7c0.5-1.2,1.2-2.3,2-3.3c2-2,4.7-3.2,7.5-3.3c4.7,0,7.7,3.5,7.9,3.8
	c0.8,1,1.4,2,1.8,3.2C32.1,22.1,32.2,23,32.2,23.9z"/>
<path class="st1" d="M20.1,41.5c-0.1,0-0.2,0-0.3-0.1c-0.1,0-0.2-0.1-0.3-0.2C14.1,35.7,10,30.2,8.8,26.9c-0.5-1.3-0.7-2.6-0.8-4
	c0-1.5,0.3-2.9,0.8-4.2c0-0.1,0-0.1,0.1-0.1c0,0,0,0,0,0c0.6-1.4,1.4-2.8,2.4-3.9c2.4-2.4,5.6-3.8,8.9-3.9h0.1c5.5,0,9,4,9.4,4.5
	c0.9,1.1,1.6,2.4,2.1,3.8c0,0,0,0,0,0.1c0,0,0,0,0,0c0.2,1,0.4,2.1,0.4,3.2c0.1,2.1-0.6,4.4-0.6,4.5c-0.4,1.5-1.6,3.7-3.4,6.1
	c-2,2.8-4.7,5.7-7.7,8.5C20.5,41.4,20.3,41.5,20.1,41.5z M10.4,19c0,0,0,0.1-0.1,0.2c-0.5,1.2-0.7,2.4-0.7,3.7
	c0.1,1.2,0.3,2.4,0.7,3.5c0.8,2.2,3.9,7,9.9,13.3c6-5.7,9.4-10.9,10.1-13.4c0-0.1,0.6-2.2,0.5-4c0-0.9-0.2-1.9-0.4-2.8
	c-0.4-1.2-1-2.3-1.8-3.3c-0.1-0.2-3.3-3.9-8.2-3.9h-0.1c-3,0.1-5.8,1.3-7.8,3.4C11.6,16.6,10.8,17.8,10.4,19z"/>
<path class="st1" d="M20.3,28.1c-1,0-2-0.3-2.9-0.9c-0.9-0.6-1.5-1.4-1.9-2.3c-0.4-0.9-0.5-2-0.3-3c0.2-1,0.7-1.9,1.4-2.6
	c0.7-0.7,1.6-1.2,2.6-1.4c1-0.2,2-0.1,3,0.3c0.9,0.4,1.8,1.1,2.3,1.9c0.6,0.9,0.9,1.9,0.9,2.9c0,1.4-0.5,2.7-1.5,3.7
	C23,27.5,21.7,28.1,20.3,28.1z M20.3,19.3c-0.7,0-1.4,0.2-2,0.6c-0.6,0.4-1.1,1-1.3,1.6c-0.3,0.7-0.3,1.4-0.2,2.1
	c0.1,0.7,0.5,1.4,1,1.9c0.5,0.5,1.2,0.9,1.9,1c0.7,0.1,1.4,0.1,2.1-0.2c0.7-0.3,1.2-0.7,1.6-1.3c0.4-0.6,0.6-1.3,0.6-2
	c0-1-0.4-1.9-1.1-2.6C22.2,19.6,21.3,19.3,20.3,19.3z"/>
</svg>
